<?xml version="1.0" encoding="utf-8"?>
<!-- Generator: Adobe Illustrator 17.1.0, SVG Export Plug-In . SVG Version: 6.00 Build 0)  -->
<!DOCTYPE svg PUBLIC "-//W3C//DTD SVG 1.1//EN" "http://www.w3.org/Graphics/SVG/1.1/DTD/svg11.dtd">
<svg version="1.1" id="Layer_1" xmlns="http://www.w3.org/2000/svg" xmlns:xlink="http://www.w3.org/1999/xlink" x="0px" y="0px"
	 viewBox="0 0 144.5 36.7" enable-background="new 0 0 144.5 36.7" xml:space="preserve">
<symbol  id="Butterfly_2" viewBox="-39.8 -36.2 79.6 72.1">
	<g>
		<polygon fill="none" points="-39.7,-35.8 39.7,-35.8 39.7,35.8 -39.7,35.8 		"/>
		<g>
			<path d="M0-24.4C1.1-24.4,2-17.9,2-9.8C2-1.7,1.1,4.9,0,4.9c-1.1,0-1.9-6.6-1.9-14.7C-1.9-17.9-1.1-24.4,0-24.4z"/>
			<g>
				<path fill="#D89845" stroke="#000000" stroke-width="0" d="M-1.7-0.9c0,0-3.3,18.6-29.5,35.3c0,0-11.8,6.8-7.3-11.2
					c0,0,3.1-5.6,1.8-13.2c0,0-0.9-8,2.7-10.1c0,0,3.4-2.4,0-4.6c0,0-6.7-5.8-4.3-14.3c0,0,0.5-3.9,2.7-4.3c0,0,0.1-2.7,1.8-3.4
					c0,0,0.6-2.3,2.7-2.1c0,0,0.9-4,4.6-3.4c0,0,0.9-1.5,3.4-1.2c0,0,2.7-2.7,5.5-0.6c0,0,15.2,11,14,18C-3.5-15.9,1.4-10.3-1.7-0.9
					z"/>
				<path fill="#4D3930" d="M-1.7-1.4c0,0-5.3,24.4-34.2,36.7c0,0-6.1-1.9-2.9-11.9c0,0,3-4.1,2.2-12.3c0,0-1.7-9.7,3.7-12.1
					c0,0,2.3-1.7-2.8-6.2c0,0-7.4-11.9,0.2-16c0,0,0.6-4.8,4.4-5.5c0,0,2-4.9,4.9-3.3c0,0,1.7-2.5,3.1-1.1c0,0,2.5-4.1,7.1,0.1
					c0,0-29.7,10.7-13.7,27.1c0,0,3.7,2.7-0.9,9.6c0,0-2.3,3.2-1.4,8.7c0,0,0.5,10.1-4.1,14.6c0,0-2.7,5.9,2.7,4.6
					C-33.4,31.7-17.7,29.7-1.7-1.4z"/>
				<path fill="#F2C256" d="M-2.6-4.7c0,0-2.4,12.1-17.6,21.2c0,0-7.3,4-4.6-6.8c0,0,1.8-3.3,1.3-7.9c0,0-0.9-4.9,1.6-6
					c0,0,2-1.5,0-2.7c0,0-4-3.5-2.6-8.6c0,0,0-2.4,1.6-2.6c0,0-0.4-1.6,1.1-2c0,0,0-1.5,1.6-1.3c0,0,0.2-2.4,2.7-2
					c0,0,0.5-0.9,2-0.7c0,0,1.6-1.6,3.3-0.4c0,0,9.1,6.6,8.4,10.8C-3.6-13.6-0.8-10.4-2.6-4.7z"/>
				<g>
					<path d="M-0.9-6.6c0,0-17.1,13.1-18.9,19.8c0,0-4.6,18.6-16.8,22.2l-0.2,0.4c12.2-3.7,16.8-22.2,16.8-22.2
						C-18.2,6.9-1.2-6.2-1.2-6.2L-0.9-6.6z"/>
					<path d="M-19,11.2c0,0-15.1,4.7-17,2.3l-0.2,0.4c1.8,2.4,16.5-2.1,16.5-2.1L-19,11.2z"/>
					<path d="M-21.4,17.2c0,0-10.5,5.8-16.3,4l-0.2,0.4c5.8,1.8,16.3-4,16.3-4L-21.4,17.2z"/>
					<path d="M-23.8,23c0,0-11.9,10.4-15.8,7.9v0.3c4,2.4,15.6-7.9,15.6-7.9L-23.8,23z"/>
					<path d="M-4.9-3c0,0-3.4,18-22.2,31.4l-0.2,0.4C-8.5,15.4-5.1-2.6-5.1-2.6L-4.9-3z"/>
					<path d="M-14.5,5.5c0,0-22.1,4.9-22.1,2.2l-0.2,0.4c0,2.7,21.3-2.1,21.3-2.1L-14.5,5.5z"/>
					<path d="M-4-4.2c0,0-7-3-12.2,1.2c0,0-4.9,4.6-18.6,4L-35,1.4c13.7,0.6,18.6-4,18.6-4c5.2-4.3,12.2-1.2,12.2-1.2L-4-4.2z"/>
					<path d="M-1.8-6.6c0,0-8.5-3.4-13.4,0c0,0-7.6,7.3-17.1,4.3l-0.2,0.4c9.4,3,17.1-4.3,17.1-4.3c4.9-3.4,13.4,0,13.4,0L-1.8-6.6z
						"/>
					<path d="M-15.3-6.6c0,0-0.6-4.6-7-4.6c0,0-14.3,0.3-15.8-4.6l-0.2,0.4c1.5,4.9,15.8,4.6,15.8,4.6c6.4,0,7,4.6,7,4.6L-15.3-6.6z
						"/>
					<path d="M-1.2-7.8c0,0-18.3-11.3-23.2-7.3c0,0-5.2,2.4-13.1-6.1l-0.2,0.4c7.9,8.5,13.1,6.1,13.1,6.1c4.9-4,23.2,7.3,23.2,7.3
						L-1.2-7.8z"/>
					<path d="M-22.6-15.8c0,0-11-8.8-11-11l-0.2,0.4c0,2.1,11,10.7,11,10.7L-22.6-15.8z"/>
					<path d="M-16.7-15.1c0,0-14.4-10.1-14.1-13.8l-0.2,0.4c-0.3,3.7,14.1,13.5,14.1,13.5L-16.7-15.1z"/>
					<path d="M-11.3-13.2c0,0-14.9-15.9-14.9-18.1l-0.2,0.4c0,2.1,14.9,18.1,14.9,18.1L-11.3-13.2z"/>
					<path d="M-5.2-10c0,0-6.1-10.7-9.1-11.6c0,0-9.8-11-8.5-11.9l-0.2,0.4c-1.2,0.9,8.5,11.9,8.5,11.9c3,0.9,9.1,11.6,9.1,11.6
						L-5.2-10z"/>
					<path d="M-3.4-9c0,0-1.2-8.8-4-10.7c0,0-5.2-6.7-5.5-9.8l-0.2,0.4c0.3,3,5.5,9.8,5.5,9.8c2.7,1.8,4,10.7,4,10.7L-3.4-9z"/>
					<path d="M-15.9-8c0,0-9.1-1.4-11.6,0.8c0,0-5.5,2.4-8.2-0.3l-0.2,0.4c2.7,2.7,8.2,0.3,8.2,0.3C-25.2-9-17-7.7-17-7.7L-15.9-8z"
						/>
				</g>
				<g>
					<path fill="#FFFFFF" d="M-38.1,28.4c0.2,0,0.4,0.8,0.4,1.7c0,1-0.2,1.7-0.4,1.7c-0.2,0-0.4-0.8-0.4-1.7
						C-38.5,29.2-38.3,28.4-38.1,28.4z"/>
					<path fill="#FFFFFF" d="M-35.6,20.7c0.5,0,0.9,0.4,0.9,0.9c0,0.5-0.4,0.9-0.9,0.9c-0.5,0-0.9-0.4-0.9-0.9
						C-36.5,21.1-36.1,20.7-35.6,20.7z"/>
					<path fill="#FFFFFF" d="M-33,13.8c0.8,0,1.5,0.3,1.5,0.6c0,0.4-0.7,0.6-1.5,0.6c-0.8,0-1.5-0.3-1.5-0.6
						C-34.6,14.1-33.9,13.8-33,13.8z"/>
					<path fill="#FFFFFF" d="M-32.4,3.7c0.6,0,1.1,0.4,1.1,0.9c0,0.5-0.5,0.9-1.1,0.9s-1.1-0.4-1.1-0.9C-33.5,4.1-33,3.7-32.4,3.7z"
						/>
					<path fill="#FFFFFF" d="M-32.1-5.8c0.6,0,1.1,0.5,1.1,1.1c0,0.6-0.5,1.1-1.1,1.1c-0.6,0-1.1-0.5-1.1-1.1
						C-33.2-5.4-32.7-5.8-32.1-5.8z"/>
					<path fill="#FFFFFF" d="M-35.3-14.1c0.1,0,0.2,1.1,0.2,2.4c0,1.3-0.1,2.4-0.2,2.4c-0.1,0-0.2-1.1-0.2-2.4
						C-35.5-13.1-35.4-14.1-35.3-14.1z"/>
					<path fill="#FFFFFF" d="M-35-20.1c0.5,0,0.9,0.4,0.9,0.9c0,0.5-0.4,0.9-0.9,0.9c-0.5,0-0.9-0.4-0.9-0.9
						C-35.9-19.7-35.5-20.1-35-20.1z"/>
					<path fill="#FFFFFF" d="M-31.1-28.3c0,0-0.3,1.4-0.3,2c0,0.6,0.2,0.1,0.3,0.1c0,0,0.1-0.5,0.1-1C-31-27.8-31.1-28.3-31.1-28.3z
						"/>
					<path fill="#FFFFFF" d="M-20.2-33.7c0.1,0,0.2,0.5,0.2,1.1c0,0.6-0.1,1.1-0.2,1.1c-0.1,0-0.2-0.5-0.2-1.1
						C-20.4-33.2-20.3-33.7-20.2-33.7z"/>
					<path fill="#FFFFFF" d="M-33,32.4c0.6,0,1.1,0.2,1.1,0.4c0,0.2-0.5,0.4-1.1,0.4c-0.6,0-1.1-0.2-1.1-0.4
						C-34.1,32.6-33.6,32.4-33,32.4z"/>
					<path fill="#FFFFFF" d="M-19.4,22.4c0.4,0,0.6,0.6,0.6,1.3c0,0.7-0.3,1.3-0.6,1.3c-0.4,0-0.6-0.6-0.6-1.3
						C-20.1,23-19.8,22.4-19.4,22.4z"/>
					<path fill="#FFFFFF" d="M-15.1,17.4c0.1,0,0.2,0.4,0.2,0.9c0,0.5-0.1,0.9-0.2,0.9c-0.1,0-0.2-0.4-0.2-0.9
						C-15.3,17.8-15.2,17.4-15.1,17.4z"/>
					<path fill="#FFFFFF" d="M-26.8-29.9c0.5,0,0.9,0.5,0.9,1.1c0,0.6-0.4,1.1-0.9,1.1c-0.5,0-0.9-0.5-0.9-1.1
						C-27.7-29.4-27.3-29.9-26.8-29.9z"/>
				</g>
				<path d="M-1-2.3c0,0-4,19.7-29.3,35c0,0-12.1,7.1-7.5-10.9c0,0,3-5.5,2.1-13.1c0,0-1.5-8.2,2.7-10.1c0,0,3.4-2.4,0-4.6
					c0,0-6.7-5.8-4.3-14.3c0,0,0-4,2.7-4.3c0,0-0.6-2.7,1.8-3.4c0,0,0-2.4,2.7-2.1c0,0,0.3-4,4.6-3.4c0,0,0.9-1.5,3.4-1.2
					c0,0,2.7-2.7,5.5-0.6c0,0,15.2,11,14,18C-2.5-17.2,2.1-11.7-1-2.3l-0.9,1.6c3-9.4-1.5-14.9-1.5-14.9c1.2-7-14-18-14-18
					c-2.7-2.1-5.5,0.6-5.5,0.6c-2.4-0.3-3.4,1.2-3.4,1.2c-4.3-0.6-4.6,3.4-4.6,3.4c-2.7-0.3-2.7,2.1-2.7,2.1
					c-2.4,0.6-1.8,3.4-1.8,3.4c-2.7,0.3-3.1,4.2-3.1,4.2c-2.4,8.5,4.6,14.4,4.6,14.4c3.4,2.1,0,4.6,0,4.6
					c-4.3,1.8-2.7,10.1-2.7,10.1c0.9,7.6-2.1,13.1-2.1,13.1c-4.6,18,7.6,11.3,7.6,11.3C-5.8,19.4-1.9-0.7-1.9-0.7L-1-2.3z"/>
			</g>
			<g>
				<path fill="#D89845" stroke="#000000" stroke-width="0" d="M1.7-1c0,0,3.3,18.6,29.5,35.3c0,0,11.8,6.8,7.3-11.2
					c0,0-3.1-5.6-1.8-13.2c0,0,0.9-8-2.7-10.1c0,0-3.4-2.4,0-4.6c0,0,6.7-5.8,4.3-14.3c0,0-0.5-3.9-2.7-4.3c0,0-0.1-2.7-1.8-3.4
					c0,0-0.6-2.3-2.7-2.1c0,0-0.9-4-4.6-3.4c0,0-0.9-1.5-3.4-1.2c0,0-2.7-2.7-5.5-0.6c0,0-15.2,11-14,18C3.5-16-1.4-10.5,1.7-1z"/>
				<path fill="#4D3930" d="M1.7-1.6c0,0,5.3,24.4,34.2,36.7c0,0,6.1-1.9,2.9-11.9c0,0-3-4.1-2.2-12.3c0,0,1.7-9.7-3.7-12.1
					c0,0-2.3-1.7,2.8-6.2c0,0,7.4-11.9-0.2-16c0,0-0.6-4.8-4.4-5.5c0,0-2-4.9-4.9-3.3c0,0-1.7-2.5-3.1-1.1c0,0-2.5-4.1-7.1,0.1
					c0,0,29.7,10.7,13.7,27.1c0,0-3.7,2.7,0.9,9.6c0,0,2.3,3.2,1.4,8.7c0,0-0.5,10.1,4.1,14.6c0,0,2.7,5.9-2.7,4.6
					C33.4,31.5,17.7,29.5,1.7-1.6z"/>
				<path fill="#F2C256" d="M2.6-4.9c0,0,2.4,12.1,17.6,21.2c0,0,7.3,4,4.6-6.8c0,0-1.8-3.3-1.3-7.9c0,0,0.9-4.9-1.6-6
					c0,0-2-1.5,0-2.7c0,0,4-3.5,2.6-8.6c0,0,0-2.4-1.6-2.6c0,0,0.4-1.6-1.1-2c0,0,0-1.5-1.6-1.3c0,0-0.2-2.4-2.7-2
					c0,0-0.5-0.9-2-0.7c0,0-1.6-1.6-3.3-0.4c0,0-9.1,6.6-8.4,10.8C3.6-13.8,0.8-10.5,2.6-4.9z"/>
				<g>
					<path d="M0.9-6.8C0.9-6.8,18,6.3,19.8,13c0,0,4.6,18.6,16.8,22.2l0.2,0.4C24.6,32,20.1,13.4,20.1,13.4
						C18.2,6.7,1.2-6.4,1.2-6.4L0.9-6.8z"/>
					<path d="M19,11c0,0,15.1,4.7,17,2.3l0.2,0.4c-1.8,2.4-16.5-2.1-16.5-2.1L19,11z"/>
					<path d="M21.4,17c0,0,10.5,5.8,16.3,4l0.2,0.4c-5.8,1.8-16.3-4-16.3-4L21.4,17z"/>
					<path d="M23.8,22.8c0,0,11.9,10.4,15.8,7.9V31c-4,2.4-15.6-7.9-15.6-7.9L23.8,22.8z"/>
					<path d="M4.9-3.1c0,0,3.4,18,22.2,31.4l0.2,0.4C8.5,15.2,5.1-2.7,5.1-2.7L4.9-3.1z"/>
					<path d="M14.5,5.4c0,0,22.1,4.9,22.1,2.2l0.2,0.4c0,2.7-21.3-2.1-21.3-2.1L14.5,5.4z"/>
					<path d="M4-4.4c0,0,7-3,12.2,1.2c0,0,4.9,4.6,18.6,4L35,1.2c-13.7,0.6-18.6-4-18.6-4C11.2-7,4.2-4,4.2-4L4-4.4z"/>
					<path d="M1.8-6.8c0,0,8.5-3.4,13.4,0c0,0,7.6,7.3,17.1,4.3l0.2,0.4c-9.4,3-17.1-4.3-17.1-4.3c-4.9-3.4-13.4,0-13.4,0L1.8-6.8z"
						/>
					<path d="M15.3-6.8c0,0,0.6-4.6,7-4.6c0,0,14.3,0.3,15.8-4.6l0.2,0.4C36.8-10.7,22.5-11,22.5-11c-6.4,0-7,4.6-7,4.6L15.3-6.8z"
						/>
					<path d="M1.2-8c0,0,18.3-11.3,23.2-7.3c0,0,5.2,2.4,13.1-6.1l0.2,0.4c-7.9,8.5-13.1,6.1-13.1,6.1c-4.9-4-23.2,7.3-23.2,7.3
						L1.2-8z"/>
					<path d="M22.6-15.9c0,0,11-8.8,11-11l0.2,0.4c0,2.1-11,10.7-11,10.7L22.6-15.9z"/>
					<path d="M16.7-15.2c0,0,14.4-10.1,14.1-13.8l0.2,0.4c0.3,3.7-14.1,13.5-14.1,13.5L16.7-15.2z"/>
					<path d="M11.3-13.4c0,0,14.9-15.9,14.9-18.1l0.2,0.4c0,2.1-14.9,18.1-14.9,18.1L11.3-13.4z"/>
					<path d="M5.2-10.1c0,0,6.1-10.7,9.1-11.6c0,0,9.8-11,8.5-11.9l0.2,0.4c1.2,0.9-8.5,11.9-8.5,11.9c-3,0.9-9.1,11.6-9.1,11.6
						L5.2-10.1z"/>
					<path d="M3.4-9.2c0,0,1.2-8.8,4-10.7c0,0,5.2-6.7,5.5-9.8l0.2,0.4c-0.3,3-5.5,9.8-5.5,9.8c-2.7,1.8-4,10.7-4,10.7L3.4-9.2z"/>
					<path d="M15.9-8.2c0,0,9.1-1.4,11.6,0.8c0,0,5.5,2.4,8.2-0.3l0.2,0.4C33.2-4.6,27.7-7,27.7-7C25.2-9.1,17-7.9,17-7.9L15.9-8.2z
						"/>
				</g>
				<g>
					<path fill="#FFFFFF" d="M38.1,28.2c-0.2,0-0.4,0.8-0.4,1.7c0,1,0.2,1.7,0.4,1.7c0.2,0,0.4-0.8,0.4-1.7
						C38.5,29,38.3,28.2,38.1,28.2z"/>
					<path fill="#FFFFFF" d="M35.6,20.6c-0.5,0-0.9,0.4-0.9,0.9c0,0.5,0.4,0.9,0.9,0.9c0.5,0,0.9-0.4,0.9-0.9
						C36.5,20.9,36.1,20.6,35.6,20.6z"/>
					<path fill="#FFFFFF" d="M33,13.6c-0.8,0-1.5,0.3-1.5,0.6c0,0.4,0.7,0.6,1.5,0.6c0.8,0,1.5-0.3,1.5-0.6
						C34.6,13.9,33.9,13.6,33,13.6z"/>
					<path fill="#FFFFFF" d="M32.4,3.5c-0.6,0-1.1,0.4-1.1,0.9c0,0.5,0.5,0.9,1.1,0.9c0.6,0,1.1-0.4,1.1-0.9
						C33.5,3.9,33,3.5,32.4,3.5z"/>
					<path fill="#FFFFFF" d="M32.1-6c-0.6,0-1.1,0.5-1.1,1.1c0,0.6,0.5,1.1,1.1,1.1c0.6,0,1.1-0.5,1.1-1.1C33.2-5.5,32.7-6,32.1-6z"
						/>
					<path fill="#FFFFFF" d="M35.3-14.3c-0.1,0-0.2,1.1-0.2,2.4c0,1.3,0.1,2.4,0.2,2.4c0.1,0,0.2-1.1,0.2-2.4
						C35.5-13.3,35.4-14.3,35.3-14.3z"/>
					<path fill="#FFFFFF" d="M35-20.3c-0.5,0-0.9,0.4-0.9,0.9c0,0.5,0.4,0.9,0.9,0.9c0.5,0,0.9-0.4,0.9-0.9
						C35.9-19.9,35.5-20.3,35-20.3z"/>
					<path fill="#FFFFFF" d="M31.1-28.5c0,0,0.3,1.4,0.3,2c0,0.6-0.2,0.1-0.3,0.1c0,0-0.1-0.5-0.1-1C31-28,31.1-28.5,31.1-28.5z"/>
					<path fill="#FFFFFF" d="M20.2-33.9c-0.1,0-0.2,0.5-0.2,1.1c0,0.6,0.1,1.1,0.2,1.1c0.1,0,0.2-0.5,0.2-1.1
						C20.4-33.4,20.3-33.9,20.2-33.9z"/>
					<path fill="#FFFFFF" d="M33,32.3c-0.6,0-1.1,0.2-1.1,0.4s0.5,0.4,1.1,0.4c0.6,0,1.1-0.2,1.1-0.4S33.6,32.3,33,32.3z"/>
					<path fill="#FFFFFF" d="M19.4,22.2c-0.4,0-0.6,0.6-0.6,1.3c0,0.7,0.3,1.3,0.6,1.3c0.4,0,0.6-0.6,0.6-1.3
						C20.1,22.8,19.8,22.2,19.4,22.2z"/>
					<path fill="#FFFFFF" d="M15.1,17.2c-0.1,0-0.2,0.4-0.2,0.9c0,0.5,0.1,0.9,0.2,0.9c0.1,0,0.2-0.4,0.2-0.9
						C15.3,17.6,15.2,17.2,15.1,17.2z"/>
					<path fill="#FFFFFF" d="M26.8-30.1c-0.5,0-0.9,0.5-0.9,1.1c0,0.6,0.4,1.1,0.9,1.1c0.5,0,0.9-0.5,0.9-1.1
						C27.7-29.6,27.3-30.1,26.8-30.1z"/>
				</g>
				<path d="M1-2.4c0,0,4,19.7,29.3,35c0,0,12.1,7.1,7.5-10.9c0,0-3-5.5-2.1-13.1c0,0,1.5-8.2-2.7-10.1c0,0-3.4-2.4,0-4.6
					c0,0,6.7-5.8,4.3-14.3c0,0,0-4-2.7-4.3c0,0,0.6-2.7-1.8-3.4c0,0,0-2.4-2.7-2.1c0,0-0.3-4-4.6-3.4c0,0-0.9-1.5-3.4-1.2
					c0,0-2.7-2.7-5.5-0.6c0,0-15.2,11-14,18C2.5-17.4-2.1-11.9,1-2.4l0.9,1.6c-3-9.4,1.5-14.9,1.5-14.9c-1.2-7,14-18,14-18
					c2.7-2.1,5.5,0.6,5.5,0.6c2.4-0.3,3.4,1.2,3.4,1.2c4.3-0.6,4.6,3.4,4.6,3.4c2.7-0.3,2.7,2.1,2.7,2.1c2.4,0.6,1.8,3.4,1.8,3.4
					c2.7,0.3,3.1,4.2,3.1,4.2c2.4,8.5-4.6,14.4-4.6,14.4c-3.4,2.1,0,4.6,0,4.6c4.3,1.8,2.7,10.1,2.7,10.1
					c-0.9,7.6,2.1,13.1,2.1,13.1c4.6,18-7.6,11.3-7.6,11.3C5.8,19.3,1.9-0.9,1.9-0.9L1-2.4z"/>
			</g>
			<path d="M0.4,4.3c0.1,1.3,0,2.6,0.5,3.8c0.2,0.7,0.6,1.4,0.9,2.1c1.2,2.2,3.4,3.3,5.2,4.7c0,0,0,0.1,0,0.1c0,0-0.1,0.1-0.1,0
				c-2-1.4-4.1-2.6-5.4-4.8C0.5,8.4,0.1,6.4,0.4,4.3C0.4,4.3,0.4,4.2,0.4,4.3C0.4,4.2,0.4,4.3,0.4,4.3L0.4,4.3z"/>
			<path d="M-0.4,4.3c-0.1,1.3,0,2.6-0.5,3.8c-0.2,0.7-0.6,1.4-0.9,2.1C-3,12.4-5.1,13.5-7,14.9c0,0,0,0.1,0,0.1c0,0,0.1,0.1,0.1,0
				c2-1.4,4.1-2.6,5.4-4.8C-0.4,8.4-0.1,6.4-0.4,4.3C-0.3,4.2-0.3,4.2-0.4,4.3C-0.3,4.2-0.4,4.2-0.4,4.3L-0.4,4.3z"/>
		</g>
	</g>
</symbol>
<use xlink:href="#Butterfly_2"  width="79.6" height="72.1" x="-39.8" y="-36.2" transform="matrix(8.333625e-002 8.333625e-002 6.746927e-002 -6.746927e-002 8.9766 7.7)" overflow="visible"/>
<use xlink:href="#Butterfly_2"  width="79.6" height="72.1" x="-39.8" y="-36.2" transform="matrix(3.349468e-002 -7.708391e-002 -7.708391e-002 -3.349468e-002 129.1693 9.6015)" overflow="visible"/>
<g opacity="0.64">
	<path fill="#53AD6E" d="M75.7,14.6c-0.2,0.9-0.5,1.8-1,2.6c-0.5,0.8-1.1,1.2-1.9,1.3c-0.3,0-0.6,0-1,0c2.3,5.8,2,11.5-0.4,17.1
		c-0.1-0.1-0.1-0.1-0.1-0.2c0-1.6,0-3.1,0.1-4.7c0-1.1,0.1-2.3,0.2-3.4c0-0.2,0-0.2-0.2-0.1c-0.3,0.1-0.5,0.4-0.7,0.6
		c-0.4,0.6-0.7,1.4-1.1,2.1c-0.3,0.7-0.7,1.4-1.2,2c-0.9,1.1-2,1.6-3.3,1.4c-0.3-0.1-0.6-0.1-0.9-0.2c0.8,0,1.5-0.4,2.1-1
		c1.2-1.2,1.9-2.6,2.4-4.2c0.3-0.9,0.5-1.9,0.5-2.9c0-0.6-0.1-1.3-0.3-1.9c-0.1-0.5-0.3-1-0.4-1.5c0-0.2-0.1-0.2-0.2-0.1
		c-0.2,0.2-0.5,0.4-0.7,0.6c-0.7,0.5-1.4,0.6-2.2,0.7c-0.5,0-1,0-1.5,0c0.1-0.1,0.2-0.1,0.4-0.2c0.5-0.2,1.1-0.4,1.6-0.7
		c0.7-0.4,1.2-0.9,1.5-1.7c0.3-0.7,0.6-1.5,0.8-2.3c0.2-0.6,0.6-0.9,1.1-1.1c0.4-0.1,0.8-0.1,1.2-0.2c0.9,0,1.8-0.1,2.6-0.3
		c0.4-0.1,0.8-0.3,1.1-0.6c0.5-0.4,0.9-0.8,1.2-1.3C75.6,14.5,75.7,14.5,75.7,14.6z"/>
	<path fill="#F4C944" d="M78.3,10.6c0.4-0.3,0.7-0.6,1.1-1c0,0,0.1-0.1,0.1-0.1c0.1,0,0.1-0.1,0.2-0.2c0.3-0.2,0.5-0.5,0.8-0.7
		c0.1-0.1,0.2-0.2,0.3-0.3c0.4-0.4,0.8-0.8,1.1-1.3c0.3-0.5,0.6-1.1,0.6-1.7c0-0.6-0.3-1.2-0.8-1.5c-0.2-0.1-0.4-0.2-0.7-0.3
		c-0.1-0.1-0.2,0-0.2-0.1c-0.3,0-0.6,0-0.8,0c-0.1,0.1-0.2,0-0.3,0.1c-0.4,0-0.7,0.2-1,0.4C78.5,4,78.4,4,78.3,4.1
		c-0.1,0.1-0.3,0.2-0.4,0.3c-0.1,0.1-0.2,0.1-0.2,0.2c-0.3,0.4-0.7,0.8-1,1.2c-0.1,0.1-0.1,0.2-0.2,0.3l0,0
		c-0.1,0.1-0.1,0.2-0.2,0.3c-0.1,0.1-0.1,0.2-0.2,0.3C76,6.8,75.9,6.9,75.9,7c0,0.1-0.1,0.1-0.1,0.2c-0.1,0,0,0.1-0.1,0.2
		c-0.1,0.1-0.1,0.2-0.2,0.3c0,0.1-0.1,0.2-0.1,0c-0.1-0.1,0-0.2-0.1-0.2l0,0c0-0.1,0-0.1-0.1-0.2l0,0c0-0.1,0-0.1-0.1-0.2
		c0,0,0-0.1,0-0.1c0,0,0-0.1-0.1-0.2l0,0c0,0,0-0.1-0.1-0.2c0-0.2-0.2-0.3-0.2-0.4c-0.1,0,0-0.1-0.1-0.2l0,0c0-0.1,0-0.1-0.1-0.2
		l0,0c0-0.1-0.1-0.2-0.2-0.3l0,0c-0.1-0.1-0.1-0.2-0.1-0.3c-0.3-0.7-0.8-1.2-1.4-1.6c-0.1-0.1-0.2-0.1-0.2-0.1
		c-0.1-0.1-0.2,0-0.2-0.1l0,0c-0.1,0-0.2,0-0.2-0.1c-0.4-0.1-0.8-0.1-1.2-0.1c-0.1,0.1-0.2,0-0.3,0.1c0,0,0,0-0.1,0
		c0,0.1-0.1,0-0.2,0.1c-0.3,0.1-0.6,0.4-0.8,0.7c0,0.1-0.1,0.2-0.2,0.2c-0.1,0.2-0.3,0.3-0.4,0.5c-0.1,0.1,0,0.2-0.1,0.3
		c0,0.1,0,0.1-0.1,0.2C69,5.3,69,5.2,69,5.2c0-0.1-0.1-0.1-0.1-0.1c-0.1,0,0,0.1-0.1,0.1c0,0.1-0.1,0.2-0.2,0.2
		c-0.1,0.1-0.2,0.1-0.2,0.3c0,0.1-0.1,0.1-0.1,0.2c-0.1,0-0.2,0-0.2,0c-0.1,0-0.3-0.1-0.3,0.1c0,0,0,0,0,0l0,0
		c-0.1-0.1,0-0.2-0.1-0.3c0-0.1,0-0.1-0.1-0.2c0-0.3-0.1-0.5-0.1-0.8c0-0.6,0.1-1.1,0.3-1.7C67.9,2.8,68,2.7,68,2.5
		c0.2-0.4,0.4-0.7,0.7-0.9c0.1,0,0.1-0.1,0.2-0.2c0-0.1,0.1,0,0.1-0.1l0,0c0.1,0,0.1-0.1,0.2-0.2c0.3-0.2,0.7-0.4,1-0.4
		c0.4-0.1,0.8-0.1,1.2-0.1c0.4,0,0.8,0.1,1.2,0.3c0,0.1,0.1,0,0.2,0.1l0,0c0.1,0.1,0.2,0.1,0.3,0.2c0.1,0,0.1,0.1,0.1,0.1
		c0,0.1,0.1,0,0.2,0.1l0,0c0.1,0,0.2,0.1,0.2,0.2c0.5,0.3,0.8,0.8,1.1,1.3c0.1,0,0,0.1,0.1,0.2c0.1,0.2,0.2,0.5,0.3,0.8
		c0.1,0.1,0,0.3,0.1,0.4c0.1,0.3,0.2,0.6,0.2,0.9c0,0.1,0.1,0.1,0.2,0C76,4.3,76.4,3.5,77,2.8c0,0,0,0,0-0.1c0.1,0,0.1-0.1,0.2-0.2
		c0.2-0.2,0.4-0.4,0.6-0.6c0.4-0.3,0.9-0.6,1.4-0.8c0,0,0.1,0,0.2-0.1c0.5-0.1,0.9-0.2,1.4-0.2c0.2,0,0.5,0.1,0.7,0.1
		c0.1,0,0.2,0,0.2,0.1c0.2,0.1,0.4,0.1,0.5,0.2c0.1,0,0.1,0,0.2,0.1c0.5,0.2,0.9,0.6,1.3,1c0,0.1,0.1,0.1,0.1,0.2
		c0.2,0.3,0.4,0.6,0.5,1c0.2,0.4,0.3,0.9,0.2,1.3c0,0.2,0,0.5,0,0.7c-0.1,0.1,0,0.2-0.1,0.3c0,0,0,0.1,0,0.1c0,0.1,0,0.2-0.1,0.3
		c0,0,0,0.1,0,0.1c0,0,0,0.1-0.1,0.2l0,0c-0.1,0.1,0,0.2-0.1,0.3l0,0c0,0,0,0.1-0.1,0.2l0,0c0,0,0,0.1-0.1,0.2
		c-0.3,0.7-0.8,1.2-1.3,1.7c-0.4,0.4-0.8,0.7-1.2,1c-0.1,0.1-0.1,0.1-0.2,0.2l0,0c-0.1,0-0.1,0.1-0.2,0.2c-0.1,0-0.1,0-0.1,0.1
		c0,0.1-0.1,0-0.1,0.1c-0.8,0.5-1.5,1.1-2.3,1.6c-0.7,0.5-1.4,1-2,1.6c-0.1,0-0.1,0.1-0.2,0.2c-0.2,0.2-0.3,0.3-0.5,0.5
		c-0.1,0-0.1,0.1-0.1,0.2l0,0c-0.1,0-0.1,0-0.1-0.1c0-0.1,0-0.2,0-0.2c0.1-0.3,0.3-0.7,0.5-1c0.1,0,0-0.1,0.1-0.2l0,0
		c0.1-0.1,0.1-0.2,0.2-0.3c0.1-0.1,0.2-0.2,0.2-0.3c0,0,0-0.1,0.1-0.1c0.4-0.5,0.9-1,1.4-1.5C78.1,10.7,78.2,10.7,78.3,10.6z"/>
	<path fill="#DF846D" d="M92.8,26.2c0-0.1-0.1-0.1-0.2,0c-0.7,0.7-1.5,1-2.4,1.1c-1.1,0.1-2-0.5-2.8-1.4c-0.6-0.7-1-1.6-1.1-2.6
		c-0.1,0.3-0.1,0.6-0.1,1c0,0.3,0,0.7,0,1c0.2,0.4,0.4,0.8,0.5,1.3c0.3,0.4,0.6,0.7,0.9,1.1c0.1,0.1,0.1,0.2,0,0.3
		c-0.1,0.2-0.3,0.4-0.4,0.5c-0.5,0.7-0.8,1.5-0.9,2.4c0,0.1,0,0.2,0.1,0.2c0.2,0,0.3,0.1,0.5,0.1c0.1,0,0.1,0,0.1,0.1
		c0,0.6,0.1,1.2,0.2,1.8c0.1,0.3,0.1,0.6,0.2,0.9c0.1-0.2,0.1-0.3,0.1-0.5c0.1-0.6,0.2-1.2,0.4-1.8c0.1-0.4,0.1-0.4,0.5-0.4
		c0.1,0,0.2,0,0.2,0.2c0.1,0.5,0.3,1,0.6,1.4c0.4,0.5,0.8,0.8,1.4,1c0.1,0,0.1,0.1,0.2,0c-0.3-0.4-0.6-0.8-0.9-1.2
		c-0.2-0.3-0.3-0.6-0.4-1c0-0.2,0-0.2,0.2-0.2c0.1,0,0.2,0.1,0.3,0.1c0.1,0,0.3,0.1,0.4,0.1c-0.4-0.9-0.4-1.8-0.5-2.7
		c0-0.1,0-0.2,0.2-0.2c0.3-0.1,0.6-0.2,0.9-0.3c0.8-0.3,1.3-0.9,1.6-1.7c0-0.1,0-0.2,0.1-0.2l0,0C92.7,26.4,92.7,26.3,92.8,26.2
		C92.8,26.3,92.8,26.2,92.8,26.2z"/>
	<path fill="#51B093" d="M59.9,32c0.4-0.7,0.3-1.5,0.2-2.2c0-0.3-0.1-0.7-0.1-1c0-0.1,0-0.1,0-0.2c-0.1,0-0.1,0-0.1,0.1
		c-0.2,0.2-0.4,0.4-0.6,0.5c-0.3,0.2-0.7,0.4-1.1,0.4c-0.2,0-0.5,0-0.7-0.1c0.2-0.1,0.4-0.2,0.5-0.3c0.4-0.2,0.7-0.6,0.9-1
		c0.3-0.6,0.8-1.1,1.3-1.6c0.4-0.3,0.8-0.5,1.3-0.8c0.5-0.3,1-0.5,1.4-0.9c0.4-0.4,0.6-1,0.7-1.6c0-0.2,0-0.3,0.1-0.5
		c0.1,0.4,0.1,0.7,0.2,1.1c0,0.3,0,0.6,0,0.9c-0.1,0.6-0.4,0.9-0.8,1.3c-0.2,0.2-0.4,0.4-0.5,0.5c-0.1,0.1-0.1,0.1,0,0.2
		c0.4,0.7,0.6,1.5,0.7,2.3c0.1,1.3-0.1,2.6-0.4,3.8c0,0,0,0,0,0.1c-0.2-1.1-0.4-2.1-1.1-3c-0.1,0.7-0.3,1.4-0.8,2
		c-0.1,0.1-0.2,0.2-0.3,0.4c-0.1,0.1-0.1,0.1-0.2,0c-0.1-0.1-0.2-0.2-0.3-0.3C59.9,32.1,59.9,32.1,59.9,32z"/>
	<path fill="#FFFFFF" d="M80.1,33.1c0-0.2,0-0.4,0-0.6c-0.4-0.2-0.7-0.4-1-0.7c0,0.2,0,0.4,0.1,0.6c0.2,0.1,0.3,0.3,0.2,0.5
		c0,0.1,0,0.1,0,0.2c0,0,0,0.1,0,0.1c0.3,0.9,0.7,1.8,1.1,2.7c0,0.1,0,0.1,0.1,0.1c0-0.1,0-0.1,0-0.2C80.3,35,80.1,34.1,80.1,33.1z"
		/>
	<path fill="#F4C944" d="M72.5,11c-0.2-0.1-0.4-0.3-0.6-0.4c-0.1-0.1-0.2-0.1-0.2-0.2l0,0c-0.1-0.1-0.3-0.2-0.4-0.3
		c-0.6-0.4-1.1-0.8-1.6-1.3c0-0.1-0.1-0.1-0.1-0.1c-0.2-0.2-0.3-0.3-0.5-0.5c-0.1-0.1-0.1-0.1-0.2-0.2c-0.1-0.1-0.1-0.2-0.2-0.3
		c-0.1-0.1-0.1-0.2-0.2-0.2c-0.1-0.2-0.3-0.4-0.4-0.6c0-0.1-0.1-0.2-0.1-0.3c0.1-0.1,0.1-0.2,0.2-0.2c0-0.1-0.1-0.1-0.1-0.2
		c0-0.1-0.1-0.1,0-0.2c0-0.1,0.1-0.1,0.2-0.1c0,0,0,0,0.1,0c0.1,0.1,0.2,0.1,0.4,0c0.1-0.1,0.2-0.2,0.3-0.3c0-0.1,0.1-0.1,0.2-0.1
		c0.1,0,0.1,0.1,0.2,0.2c0,0.1,0,0.2,0,0.3c0,0.4,0.1,0.7,0.3,1.1l0,0c0,0.1,0.1,0.2,0.1,0.3c0.1,0.2,0.2,0.3,0.3,0.5
		C70.2,7.9,70.2,8,70.3,8c0.4,0.4,0.8,0.8,1.2,1.2c0.1,0.1,0.2,0.1,0.2,0.2c0.7,0.6,1.5,1.2,2.2,1.9c0.4,0.4,0.7,0.8,1.1,1.2
		c0,0.2,0,0.2-0.1,0.2c-0.7-0.6-1.4-1.1-2.1-1.6C72.6,11,72.5,11,72.5,11z"/>
	<path fill="#53AD6E" d="M67.7,14.9c0-0.8,0.6-1.5,1.3-1.5c0.7,0,1.4,0.8,1.4,1.7c0,0.8-0.5,1.5-1.3,1.5
		C68.3,16.6,67.7,15.8,67.7,14.9z"/>
	<path fill="#DD8044" d="M81.8,17.3c-0.7,0-1.3-0.7-1.3-1.5c0-0.9,0.6-1.6,1.4-1.6c0.8,0,1.3,0.7,1.3,1.5
		C83.2,16.5,82.6,17.3,81.8,17.3z"/>
	<path fill="#51B093" d="M60.5,23.2c0.7,0,1.3,0.6,1.3,1.5c0,0.8-0.5,1.4-1.4,1.4c-0.7,0-1.2-0.6-1.2-1.4
		C59.2,23.8,59.7,23.2,60.5,23.2z"/>
	<path fill="#DF846D" d="M89.6,27c-0.7,0-1.3-0.5-1.3-1.3c0-0.7,0.5-1.3,1.1-1.3c0.7,0,1.2,0.6,1.2,1.4C90.6,26.4,90.2,27,89.6,27z"
		/>
	<path fill="#F2CE46" d="M69.6,7c-0.1-0.1-0.1-0.2-0.2-0.3c-0.1-0.2-0.2-0.4-0.1-0.6c0-0.2,0-0.3-0.1-0.5c0-0.1,0-0.1-0.1-0.1
		c-0.1,0-0.1,0-0.1,0.1C68.9,5.8,68.9,6,68.7,6c-0.1,0.3-0.2,0-0.3,0c-0.1,0-0.2,0-0.2,0c-0.1,0.1,0,0.1,0.1,0.2
		c0,0.1,0.1,0.1,0.1,0.2c0,0.1,0,0.2,0,0.1c-0.1-0.1-0.2,0.1-0.3,0.1c0,0-0.1,0-0.1,0c-0.1-0.2-0.2-0.4-0.2-0.6c0,0,0,0,0,0
		c0-0.1,0.1-0.2,0.2-0.2c0.1,0,0.2,0,0.2,0c0.1,0,0.2,0,0.2-0.2c0-0.2,0.1-0.2,0.2-0.2c0.1-0.1,0.2-0.1,0.2-0.3c0-0.1,0-0.1,0.1-0.1
		C68.9,5,69,5,69,5.1c0,0,0,0.1,0,0.1c0.1,0,0.1-0.1,0-0.1c0-0.3,0.1-0.5,0.3-0.6c0.1,0,0.1-0.1,0.1-0.1c0-0.1,0.1-0.1,0.1-0.1
		c0,0,0,0,0,0c0,0,0,0,0,0c-0.4,0.8-0.4,1.6,0,2.4C69.6,6.9,69.6,6.9,69.6,7z"/>
	<path fill="#51B093" d="M59.9,32c0,0.1,0.2,0.2,0.2,0.3c0.2,0.3,0.3,0.1,0.4-0.1c0.1-0.1,0.1-0.2,0.2-0.2c-0.5,0.8-1.2,1.1-2,1.1
		c0.1-0.1,0.3-0.2,0.4-0.4C59.5,32.6,59.7,32.3,59.9,32z"/>
	<path fill="#E5D04B" d="M74.7,12.7c0.1,0,0.2,0,0.1-0.2c0.2,0.2,0.3,0.4,0.4,0.7C75.1,13,74.9,12.9,74.7,12.7z"/>
	<path fill="#FFFFFF" d="M79.1,32.4c0.1,0,0.3,0.4,0.2,0.4c0,0.1,0,0.2-0.1,0.3C79.2,32.9,79.1,32.7,79.1,32.4z"/>
	<path fill="#E3D77A" d="M75.7,14.1c0,0.1-0.1,0.2,0.1,0.3c0,0.1-0.1,0.1-0.1,0.2c0,0-0.1,0-0.1,0C75.5,14.4,75.6,14.3,75.7,14.1z"
		/>
	<path fill="#D39D8C" d="M92.8,26.2c-0.1-0.1-0.1,0-0.2,0c0.1-0.1,0.2-0.3,0.3-0.4C92.9,25.9,92.9,26.1,92.8,26.2z"/>
	<path fill="#EAD054" d="M75.2,4.2C75,4.1,75,3.9,75,3.7C75.1,3.9,75.2,4,75.2,4.2z"/>
	<path fill="#EBD157" d="M68,2.5C68,2.7,68,2.9,67.8,3C67.8,2.8,67.9,2.7,68,2.5z"/>
	<path fill="#F0E69E" d="M71.3,10.1c0.2,0,0.3,0.2,0.4,0.3C71.4,10.4,71.3,10.3,71.3,10.1z"/>
	<path fill="#ECDB7A" d="M76.4,6.2c0.1-0.1,0.1-0.3,0.2-0.3C76.6,6,76.6,6.1,76.4,6.2z"/>
	<path fill="#EBD462" d="M74.6,5.6c0.2,0.1,0.2,0.2,0.2,0.3C74.6,5.8,74.6,5.7,74.6,5.6z"/>
	<path fill="#F1DE8F" d="M80.7,8.5c-0.1,0.1-0.1,0.2-0.3,0.3C80.5,8.6,80.6,8.5,80.7,8.5z"/>
	<path fill="#F1DB7E" d="M75.9,7c0-0.1,0.1-0.3,0.2-0.4C76.1,6.8,76,6.9,75.9,7z"/>
	<path fill="#F4EEBF" d="M84.4,6.2c0-0.1,0-0.2,0.1-0.3C84.6,6.1,84.6,6.1,84.4,6.2z"/>
	<path fill="#ECD787" d="M67.9,6.6C68,6.6,68,6.6,67.9,6.6c0,0.1,0.2,0.2,0.2,0.3C68,6.9,67.9,6.7,67.9,6.6z"/>
	<path fill="#EEDE83" d="M78.3,4.1c0.1-0.1,0.1-0.2,0.3-0.2C78.5,4.1,78.4,4.1,78.3,4.1z"/>
	<path fill="#EDDD83" d="M71.6,9.4c-0.1,0-0.2-0.1-0.2-0.2C71.5,9.2,71.6,9.3,71.6,9.4z"/>
	<path fill="#F0E593" d="M76.4,12.7c0,0.1-0.1,0.2-0.2,0.3C76.2,12.8,76.3,12.7,76.4,12.7z"/>
	<path fill="#EFDB82" d="M73,1.2c-0.1,0-0.2,0-0.3-0.2C72.8,1,73,1,73,1.2z"/>
	<path fill="#E8E47A" d="M75.6,5.1c0,0.1,0,0.2-0.1,0.2c-0.1,0-0.1-0.1-0.1-0.2C75.5,5.1,75.5,5.1,75.6,5.1z"/>
	<path fill="#F0EC98" d="M79.6,3.6c0.1-0.1,0.2-0.1,0.3-0.1C79.8,3.6,79.7,3.6,79.6,3.6z"/>
	<path fill="#ECE288" d="M70.9,3.4c0.1-0.1,0.2-0.1,0.3-0.1C71.1,3.4,71,3.4,70.9,3.4z"/>
	<path fill="#F2CE46" d="M67.6,5.6c0.1,0.1,0,0.2,0.1,0.3C67.6,5.9,67.6,5.8,67.6,5.6C67.6,5.7,67.6,5.7,67.6,5.6z"/>
	<path fill="#EFE490" d="M69.6,4.4C69.6,4.4,69.6,4.4,69.6,4.4c0-0.1,0.1-0.2,0.1-0.2C69.8,4.3,69.8,4.4,69.6,4.4z"/>
	<path fill="#EDDB74" d="M81.1,10.1c0-0.1,0.1-0.2,0.2-0.2C81.3,10,81.2,10.1,81.1,10.1z"/>
	<path fill="#F0E69E" d="M71.6,10.4c0.1,0,0.2,0.1,0.2,0.2C71.7,10.6,71.7,10.5,71.6,10.4z"/>
	<path fill="#EDD771" d="M79.7,9.4c0,0.1-0.1,0.2-0.2,0.2C79.5,9.5,79.6,9.4,79.7,9.4z"/>
	<path fill="#EFE087" d="M68.5,7.5c0.1,0,0.1,0.1,0.2,0.2C68.5,7.7,68.5,7.7,68.5,7.5z"/>
	<path fill="#F0DD84" d="M70.3,8c-0.1,0-0.1-0.1-0.2-0.3C70.2,7.8,70.3,7.9,70.3,8z"/>
	<path fill="#F4EAA1" d="M74.4,5.3c0.1,0,0.1,0.2,0.1,0.3C74.4,5.5,74.4,5.4,74.4,5.3z"/>
	<path fill="#EBE080" d="M76.4,13.7c0-0.1,0.1-0.2,0.2-0.2C76.6,13.6,76.5,13.8,76.4,13.7z"/>
	<path fill="#EEDC7B" d="M69.8,7.3c-0.1-0.1-0.1-0.2-0.1-0.3C69.7,7.1,69.8,7.1,69.8,7.3z"/>
	<path fill="#EFE282" d="M77.6,4.6c0-0.1,0.1-0.1,0.2-0.2C77.8,4.6,77.8,4.6,77.6,4.6z"/>
	<path fill="#EDE08A" d="M68.9,8.1C69,8.1,69,8.1,69,8.2C68.9,8.2,68.9,8.2,68.9,8.1z"/>
	<path fill="#F0E897" d="M78.3,10.6c0,0.1-0.1,0.2-0.2,0.2C78.1,10.7,78.1,10.6,78.3,10.6z"/>
	<path fill="#E3D77A" d="M75.8,14.4c0-0.1,0-0.2,0.1-0.2C75.9,14.3,75.9,14.4,75.8,14.4z"/>
	<path fill="#ECD873" d="M80.7,3.5c0.1,0,0.2-0.1,0.2,0.1C80.9,3.6,80.8,3.6,80.7,3.5z"/>
	<path fill="#EFDE83" d="M73.6,1.5c-0.1,0-0.2-0.1-0.2-0.2C73.5,1.3,73.5,1.4,73.6,1.5z"/>
	<path fill="#EBDB73" d="M83.8,2.6c-0.1,0-0.2,0-0.1-0.2C83.7,2.4,83.8,2.5,83.8,2.6z"/>
	<path fill="#EEE38C" d="M77.2,2.6c0,0.1,0,0.2-0.2,0.2C77,2.6,77.1,2.6,77.2,2.6z"/>
	<path fill="#F0E28A" d="M72.6,3.5c0.1,0,0.2-0.1,0.2,0.1C72.7,3.6,72.6,3.6,72.6,3.5z"/>
	<path fill="#F4EEBF" d="M84.5,5.9c0-0.1,0-0.2,0.1-0.3C84.5,5.7,84.6,5.8,84.5,5.9z"/>
	<path fill="#EBE687" d="M81.3,9.9c0.1-0.1,0.1-0.2,0.2-0.2C81.5,9.9,81.5,10,81.3,9.9z"/>
	<path fill="#ECDB7A" d="M76.2,6.4c0-0.1,0.1-0.2,0.2-0.3C76.4,6.3,76.3,6.3,76.2,6.4z"/>
	<path fill="#EBD66B" d="M75.3,7.5c0.1,0,0.1,0.2,0.1,0.2C75.3,7.6,75.3,7.6,75.3,7.5z"/>
	<path fill="#EFE78A" d="M67.6,5.6C67.6,5.7,67.6,5.7,67.6,5.6c-0.1,0-0.1-0.1-0.1-0.2C67.6,5.5,67.6,5.6,67.6,5.6z"/>
	<path fill="#F1E18C" d="M69.2,1.2c-0.1,0.1-0.1,0.2-0.2,0.2C69.1,1.2,69.1,1.2,69.2,1.2z"/>
	<path fill="#D9A38F" d="M90.7,33.8c0.1,0,0.1,0,0.2,0c0.1,0,0.1,0,0.1,0.1C90.9,33.9,90.8,33.9,90.7,33.8z"/>
	<path fill="#E9DA70" d="M84.2,6.8c0-0.1-0.1-0.2,0.1-0.3C84.3,6.6,84.3,6.7,84.2,6.8z"/>
	<path fill="#E9DB77" d="M69.5,8.7c0,0,0.2,0,0.1,0.1C69.5,8.8,69.5,8.8,69.5,8.7z"/>
	<path fill="#F0E289" d="M72.3,3.4c0.1,0,0.2,0,0.2,0.1C72.5,3.5,72.4,3.5,72.3,3.4z"/>
	<path fill="#D39D8C" d="M92.6,26.7c0-0.1-0.1-0.2,0.1-0.2C92.7,26.5,92.7,26.6,92.6,26.7z"/>
	<path fill="#E8D668" d="M73.3,1.3c-0.1,0-0.1,0-0.2-0.1C73.2,1.3,73.3,1.2,73.3,1.3z"/>
	<path fill="#F2D983" d="M74.7,3c-0.1,0-0.1-0.1-0.1-0.2C74.7,2.8,74.7,2.9,74.7,3z"/>
	<path fill="#EDE486" d="M79.3,1.1c0,0.1-0.1,0.1-0.2,0.1C79.2,1.1,79.3,1.1,79.3,1.1z"/>
	<path fill="#F1DC74" d="M81.6,1.1c-0.1,0-0.2,0-0.2-0.1C81.5,1,81.6,1,81.6,1.1z"/>
	<path fill="#EBE083" d="M72.7,1c-0.1,0-0.1,0-0.2-0.1C72.6,0.9,72.7,0.9,72.7,1z"/>
	<path fill="#F3E6A4" d="M80.9,10.3c0-0.1,0.1-0.1,0.1-0.1C81,10.3,80.9,10.3,80.9,10.3z"/>
	<path fill="#EBD66B" d="M75.3,7.3c0.1,0,0.1,0.1,0.1,0.2C75.2,7.4,75.3,7.3,75.3,7.3z"/>
	<path fill="#F2DD81" d="M75.7,7.4c0-0.1,0-0.2,0.1-0.2C75.8,7.3,75.8,7.3,75.7,7.4z"/>
	<path fill="#E9DA70" d="M84.1,7.1c0-0.1,0-0.2,0.1-0.2C84.2,7,84.2,7.1,84.1,7.1z"/>
	<path fill="#EEE08B" d="M75,6.7c0.1,0,0.1,0.1,0.1,0.2C75,6.8,75,6.7,75,6.7z"/>
	<path fill="#F1E283" d="M84.3,6.5c0-0.1,0-0.2,0.1-0.2C84.4,6.4,84.4,6.5,84.3,6.5z"/>
	<path fill="#EBD462" d="M74.8,6.1c0.1,0,0.1,0.1,0.1,0.2C74.8,6.2,74.8,6.1,74.8,6.1z"/>
	<path fill="#F0E585" d="M72.5,11c0.1,0,0.1,0,0.1,0.1C72.6,11.1,72.5,11.1,72.5,11z"/>
	<path fill="#EEDD82" d="M76.3,13c0,0.1,0,0.2-0.1,0.2C76.2,13,76.2,13,76.3,13z"/>
	<path fill="#F1E18C" d="M69,1.3c0,0.1-0.1,0.1-0.1,0.1C68.9,1.3,69,1.3,69,1.3z"/>
	<path fill="#EDDF80" d="M70.6,3.5c0-0.1,0.1-0.1,0.2-0.1C70.8,3.5,70.7,3.5,70.6,3.5z"/>
	<path fill="#EEE08B" d="M75.1,6.8c0.1,0,0.1,0.1,0.1,0.2C75.1,7,75.1,6.9,75.1,6.8z"/>
	<path fill="#E9DA70" d="M84.2,6.9c0-0.1,0-0.2,0.1-0.2C84.3,6.8,84.2,6.9,84.2,6.9z"/>
	<path fill="#EBD66B" d="M75.2,7.1c0.1,0,0.1,0.1,0.1,0.2C75.2,7.2,75.2,7.2,75.2,7.1z"/>
	<path fill="#EDE481" d="M82.3,1.3c-0.1,0-0.1,0-0.2-0.1C82.2,1.3,82.3,1.2,82.3,1.3z"/>
	<path fill="#EBD462" d="M74.7,5.9c0.1,0,0.1,0.1,0.1,0.2C74.7,6,74.7,6,74.7,5.9z"/>
	<path fill="#D39D8C" d="M92.7,26.4c0-0.1,0-0.2,0.1-0.2C92.8,26.3,92.8,26.4,92.7,26.4z"/>
	<path fill="#F0DA77" d="M76.7,12.3c0,0.1,0,0.1-0.1,0.1C76.6,12.3,76.6,12.3,76.7,12.3z"/>
	<path display="none" fill="#F4C944" d="M68.7,5.8c-0.1,0-0.1,0-0.1-0.1c0-0.1,0-0.2,0.1-0.2c0.1,0,0.2,0.1,0.2,0.2
		C68.9,5.8,68.8,5.8,68.7,5.8z"/>
</g>
<path opacity="0.64" fill="#D57F4A" d="M78.9,29.3l0,0.4l0,0.5l0,0.6l0,0.8l0.1,0.4c0.4,1.5,0.8,2.9,1.5,4c-0.6-2.2-0.6-4.5,0-6.7
	c0.1-0.4,0.3-0.7,0.5-0.9l0.1,0.1l0.1,0.1c0.5,1,0.9,1.7,0.9,1.7l0.8,1l1,0.7l0.9,0.6l0.7,0.4l0.8,0.1c-1.1-0.8-2-1.7-2.7-2.5
	c-0.6-0.8-0.9-1.6-1-2.5c-0.1-0.1-0.1-0.3,0.2-0.4l1.6-0.8c-1.8-1.5-2.8-3.2-2.3-5.2l0.2,0c0.6,0.4,1.1,0.7,1.7,0.8
	c0.6,0.1,1.2,0.3,1.8,0.4c-1.8-0.7-2.8-1.7-3.1-3.2c0.1-1.4-0.4-2.2-1.5-2.5l-0.6-0.1h-0.8l-1.1,0l0,0c-1.1-0.2-2-1-2.8-2.2
	c0.5,1.4,1,2.5,1.5,2.9c0.8,0.5,1.6,0.7,2.4,0.4l0.2,0l0,0.1c-0.5,1.1-0.9,2.2-1.2,3.3c-0.4,1.3-0.6,2.8-0.7,4.3l-0.1,2.7l0.1,0.2
	l0.9,0l0.2,0.2l0-0.1l-0.1-0.1l0,0"/>
<g>
	<path fill="#685797" d="M29.1,12.2L29,11.6c-1.5,0.2-2.8,0.2-3.8,0.2c-2.2,0-4-0.3-5.3-1c-1.3-0.6-2-1.5-2-2.7c0-0.6,0.3-1.4,1-2.2
		c0.7-0.8,2-1.5,3.9-2.2c1.9-0.7,4.7-1,8.2-1v0.3c-2.6,0-4.7,0.2-6.5,0.6c-1.7,0.4-3,0.9-3.9,1.4c-0.9,0.6-1.5,1.1-1.8,1.7
		c-0.3,0.5-0.5,1.1-0.5,1.5c0,0.8,0.5,1.5,1.6,2.2c1.1,0.7,2.8,1,5.3,1c0.8,0,2-0.1,3.6-0.3c0-1,0.2-1.8,0.5-2.4
		c0.3-0.6,0.9-1.3,1.7-2.1c1.3-1.1,2.9-2,4.9-2.8c2-0.7,3.7-1.1,5.4-1.1c0.7,0,1.3,0.1,1.7,0.3c0.4,0.2,0.6,0.5,0.6,0.9
		c0,0.6-0.4,1.3-1.2,2.1c-0.8,0.8-1.9,1.6-3.2,2.3s-2.8,1.4-4.5,1.9s-3.4,0.9-5.2,1.1l-0.1,0.6c1.2-0.1,2.2,0,2.9,0.2
		c0.8,0.3,1.1,0.6,1.1,1.2c0,0.4-0.2,0.6-0.5,0.8c-0.4,0.2-0.8,0.3-1.2,0.3c-1.4,0-2.3-0.7-2.7-2.2c-2.3,0.3-4.2,0.9-5.9,1.8
		c-1.7,0.9-3,1.8-4.1,2.9c-1,1.1-1.8,2.1-2.3,3.1c-0.5,1-0.7,1.8-0.7,2.4c0,1.9,1.5,2.9,4.4,2.9c1.9,0,3.8-0.3,5.7-1
		c1.9-0.7,3.5-1.6,4.7-2.7c1.2-1.1,1.8-2.2,1.8-3.3c0-0.6-0.3-1.1-0.8-1.4c-0.5-0.3-1.3-0.5-2.2-0.5c-1.2,0-2.4,0.2-3.7,0.7
		c-1.3,0.5-2.4,1.1-3.5,2c-0.6,0.5-1.2,1-1.6,1.5c-0.4,0.5-0.9,1.2-1.4,2.1h-0.4c0.6-1.1,1.1-1.9,1.5-2.4c0.4-0.5,0.9-1,1.6-1.6
		c2.3-1.8,4.8-2.7,7.5-2.7c1,0,1.8,0.2,2.4,0.6c0.6,0.4,0.9,0.9,0.9,1.6c0,1.2-0.6,2.4-1.9,3.5s-2.9,2-4.9,2.7
		c-2,0.7-3.9,1.1-5.7,1.1c-2,0-3.5-0.4-4.5-1.2c-1-0.8-1.5-1.9-1.5-3.3c0-1,0.4-2.1,1.1-3.1c0.8-1,1.8-1.9,3.1-2.7
		c1.3-0.8,2.8-1.5,4.6-2.1C25.3,12.8,27.2,12.4,29.1,12.2z M29.7,12.4c0.1,0.6,0.4,1.1,0.7,1.5c0.3,0.3,0.9,0.5,1.7,0.5
		c0.3,0,0.6-0.1,0.9-0.2c0.3-0.2,0.4-0.4,0.4-0.6c0-0.4-0.3-0.7-1-0.9C31.7,12.4,30.8,12.3,29.7,12.4z M29.8,11.1
		c2.4-0.3,4.6-0.8,6.7-1.7c2.1-0.8,3.8-1.8,5-2.8s1.9-1.8,1.9-2.5c0-0.3-0.2-0.6-0.5-0.7c-0.3-0.2-0.9-0.3-1.5-0.3
		c-1.3,0-2.7,0.3-4.3,1c-1.6,0.7-3,1.6-4.4,2.8C31.4,8.2,30.4,9.6,29.8,11.1z"/>
	<path fill="#685797" d="M35.8,20.3c0.8-0.5,1.6-1,2.3-1.5c0.8-0.5,1.5-1,2.3-1.4c-0.1-0.4-0.1-0.8,0.2-1.1c0.3-0.3,0.6-0.5,1-0.5
		c0.2,0,0.4,0.1,0.6,0.1c0.2,0.1,0.3,0.2,0.3,0.4c0,0.2-0.1,0.3-0.2,0.4c-0.1,0.1-0.3,0.2-0.5,0.2s-0.5-0.1-0.9-0.4
		c-0.1,0.1-0.2,0.3-0.2,0.4c0,0.2,0.1,0.3,0.2,0.5c0.2,0.1,0.4,0.2,0.6,0.2c0.2,0,0.4,0,0.7-0.1c0.3-0.1,0.6-0.1,0.6-0.1
		c0.1,0,0.3,0.1,0.4,0.3c0.1,0.2,0.1,0.4,0.1,0.7c0,0.2-0.2,0.6-0.6,1s-1.2,1-2.2,1.9c-1,0.9-1.8,1.5-2.2,1.9
		c-0.4,0.4-0.6,0.7-0.6,0.9s0.2,0.3,0.5,0.3c0.5,0,1.5-0.4,3.1-1.3s3.4-2,5.5-3.3v0.3c-4.7,3.1-7.6,4.6-8.8,4.6
		c-0.5,0-0.7-0.2-0.7-0.7c0-0.6,0.2-1.2,0.5-1.8c0.3-0.6,0.9-1.2,1.7-1.9l3-2.6c-0.4,0.1-0.8,0.2-1.2,0.1c-0.5,0-0.7-0.1-0.8-0.3
		c-2.3,1.5-3.9,2.4-4.7,2.9V20.3z"/>
	<path fill="#685797" d="M46.4,20.3l3-1.9c-0.1-0.3,0-0.6,0.3-0.9c0.3-0.3,0.6-0.4,1.1-0.4c0.5,0,0.7,0.2,0.7,0.5
		c0,0.2-0.1,0.3-0.2,0.4c-0.1,0.1-0.3,0.2-0.5,0.2c-0.4,0-0.7-0.1-0.9-0.3c-0.1,0.2,0,0.4,0.3,0.5c0.3,0.2,0.6,0.2,1.2,0.2
		c1.2,0,2.1-0.2,2.7-0.5l0.9-0.6c0.9-0.6,1.5-0.9,1.8-0.9c0.2,0,0.4,0.1,0.4,0.2c0,0.7-1.2,1.2-3.5,1.7L48,22.3
		c0.9-0.2,1.7-0.3,2.3-0.3c0.9,0,1.4,0.3,1.4,0.9c0,0.2-0.2,0.5-0.6,0.8c-0.2,0.1-0.2,0.2-0.3,0.4c0,0.1,0.1,0.2,0.2,0.2
		c0.3,0,1.3-0.5,2.8-1.4c1.5-0.9,3-2,4.4-3v0.3c-4.1,3.1-6.7,4.6-7.9,4.6c-0.2,0-0.5-0.1-0.7-0.2c-0.2-0.1-0.3-0.3-0.3-0.6
		c0-0.3,0.3-0.7,0.9-1.1c0.3-0.1,0.5-0.3,0.6-0.4c0.1-0.1-0.2-0.2-0.8-0.2c-0.9,0-2,0.3-3.5,1c-0.2,0.2-0.5,0.4-0.7,0.7
		c-0.2,0.2-0.5,0.4-0.7,0.6c-0.2,0.1-0.4,0.2-0.6,0.2c-0.3,0-0.5-0.1-0.5-0.3c0-0.4,1-1,3-1.8l5.9-3.8c-0.8,0.1-1.4,0.2-1.8,0.2
		c-0.8,0-1.3-0.2-1.5-0.5l-3.3,2.1V20.3z"/>
	<path fill="#685797" d="M57.7,20.6l-0.1-0.3c1.3-0.9,2.9-1.8,4.6-2.6h2.3l-6.1,5.3c-0.4,0.4-0.7,0.7-0.8,1c-0.1,0.3,0,0.5,0.3,0.5
		c0.9,0,2.2-0.5,3.9-1.5c1.7-1,3.3-2,4.8-3.1v0.3c-1.7,1.2-3.3,2.3-4.9,3.2s-2.8,1.3-3.8,1.3c-0.6,0-0.9-0.2-0.9-0.7
		c0-1.4,1.4-3.2,4.2-5.3c0.2-0.1,0.3-0.2,0.4-0.4c0.1-0.1,0.3-0.2,0.4-0.3C60.5,18.8,59,19.6,57.7,20.6z M66.7,13.4
		c0.4,0,0.6,0.2,0.6,0.5c0,0.2-0.1,0.4-0.2,0.5c-0.2,0.1-0.4,0.2-0.6,0.2c-0.5,0-0.7-0.2-0.7-0.5c0-0.2,0.1-0.4,0.3-0.5
		C66.2,13.5,66.4,13.4,66.7,13.4z"/>
	<path fill="#685797" d="M77.1,19.8v0.3c-1.9,1.5-3.7,2.6-5.3,3.4c-1.6,0.8-3.2,1.2-4.9,1.2c-1.5,0-2.2-0.6-2.2-1.9
		c0-1.1,0.5-2,1.6-2.8c1-0.8,2.3-1.4,3.7-1.9c1.4-0.4,2.6-0.7,3.4-0.7c0.5,0,0.9,0.1,1.2,0.3c0.3,0.2,0.4,0.4,0.4,0.7
		c0,0.5-0.3,0.9-1,1.3c-0.6,0.4-1.5,0.7-2.7,0.9c-1.1,0.2-2.5,0.4-4,0.4c-1.3,1.1-2,2-2,2.6c0,0.2,0.1,0.4,0.4,0.5
		c0.3,0.1,0.6,0.2,1.1,0.2C69.7,24.4,73.1,22.9,77.1,19.8z M67.9,20.7c1.4,0,2.7-0.1,3.6-0.4c1-0.3,1.7-0.6,2.3-1
		c0.5-0.4,0.8-0.7,0.8-0.9c0-0.4-0.3-0.6-0.9-0.6c-0.8,0-1.7,0.3-2.7,0.8C69.9,19.1,68.9,19.8,67.9,20.7z"/>
	<path fill="#685797" d="M95,7h2.1L79.8,22.1c1.6-1.1,3.5-2.1,5.5-3.1c2-1,3.4-1.5,4.1-1.5c0.8,0,1.2,0.3,1.2,1c0,0.8-0.3,1.4-1,2
		c-0.6,0.6-1.5,1.2-2.6,1.8c-1.4,0.8-2,1.3-2,1.7c0,0.3,0.2,0.4,0.7,0.4c0.8,0,2-0.4,3.4-1.1s3.2-1.9,5.3-3.4v0.3l-0.8,0.5
		c-1.7,1.2-3.3,2.2-4.7,2.9c-1.4,0.7-2.5,1.1-3.3,1.1c-0.8,0-1.2-0.3-1.2-0.9c0-1.1,0.8-2.1,2.3-3.2c1.2-0.8,2-1.4,2.4-1.7
		c0.4-0.3,0.7-0.7,0.7-0.9c0-0.1,0-0.1-0.1-0.2c-0.1-0.1-0.2-0.1-0.4-0.1c-0.7,0-2.6,0.9-5.7,2.6c-2.6,1.4-4.8,2.9-6.7,4.4h-2.2
		l13.8-12.1l-12,8v-0.3l7.4-5c2.1-1.4,3.7-2.5,4.8-3.3c1.1-0.8,2.1-1.5,3-2.2C92.6,9.1,93.7,8.2,95,7z"/>
	<path fill="#685797" d="M93.7,20.6v-0.3c1.1-0.9,2.7-1.7,4.8-2.7h2.2l-5.8,5.1c-1,0.9-1.5,1.3-1.5,1.5c0,0.1,0.1,0.2,0.4,0.2
		c1,0,2.5-0.7,4.7-2c2.2-1.3,4.6-2.9,7.2-4.8h2.1l-6.1,5.3c-0.1,0.1-0.2,0.2-0.4,0.4c-0.2,0.2-0.4,0.4-0.5,0.5s-0.2,0.3-0.1,0.4
		c0,0.1,0.1,0.2,0.4,0.2c0.6,0,1.8-0.4,3.6-1.3c1.8-0.9,3.5-2,5.2-3.3v0.3c-1.7,1.3-3.4,2.4-5.1,3.3s-3,1.3-3.8,1.3
		c-0.6,0-0.9-0.2-0.9-0.7c0-0.4,0.3-1,0.8-1.7c0.5-0.7,1.3-1.5,2.5-2.6l0.5-0.4l-1,0.7c-2.1,1.4-3.9,2.6-5.4,3.4
		c-1.5,0.8-2.7,1.3-3.6,1.3c-0.6,0-1-0.3-1-0.9c0-0.4,0.1-0.8,0.4-1.2s0.7-0.9,1.1-1.4c0.5-0.5,1-1,1.5-1.4c0.5-0.5,1.1-0.9,1.6-1.4
		L96.3,19C95.1,19.7,94.2,20.2,93.7,20.6z"/>
	<path fill="#685797" d="M109.2,20.6v-0.3c2.6-1.9,4.5-2.8,5.5-2.8c0.6,0,0.9,0.3,0.9,0.9c0,0.5-0.2,0.9-0.5,1.3
		c-0.4,0.4-1.1,1.2-2.2,2.3c2.2-1.4,4-2.5,5.6-3.3c1.6-0.8,2.9-1.2,4.1-1.2c0.6,0,0.9,0.3,0.9,0.9c0,0.6-0.3,1.2-0.8,1.8
		c-0.6,0.6-1.5,1.3-2.7,2c-1.4,0.8-2,1.3-2,1.7c0,0.1,0.1,0.3,0.2,0.4s0.3,0.2,0.5,0.2c0.6,0,1.4-0.3,2.4-0.8c1-0.5,2.1-1.2,3.3-2
		s2.1-1.4,2.9-1.9v0.3c-1.1,0.8-2.1,1.5-3.1,2.1c-1,0.7-2,1.2-3,1.7c-1,0.5-1.8,0.7-2.5,0.7c-0.4,0-0.7-0.1-0.9-0.3
		c-0.2-0.2-0.3-0.4-0.3-0.7c0-0.5,0.3-1.1,0.8-1.7s1.2-1.3,2.2-1.9c1.1-0.7,1.8-1.3,2.2-1.7c0.4-0.4,0.3-0.7-0.4-0.7
		c-0.8,0-2,0.4-3.7,1.3c-1.6,0.8-3.2,1.7-4.6,2.7c-1.4,0.9-2.8,1.9-4.1,2.8h-2l3.5-3c2.5-2.2,3.8-3.4,3.8-3.6c0-0.1-0.1-0.2-0.3-0.2
		C113.9,17.8,112.1,18.7,109.2,20.6z"/>
	<path fill="#685797" d="M126.7,27.1l3.9-3.8c-0.3,0.1-0.5,0.3-0.7,0.4c-1.2,0.7-2.2,1-2.9,1c-1.2,0-1.8-0.6-1.8-1.8
		c0-0.7,0.3-1.4,0.9-2.1c0.6-0.7,1.4-1.2,2.3-1.7s1.9-0.8,2.9-1.1c1-0.3,1.9-0.4,2.8-0.4c1,0,1.6,0.3,1.6,0.9c0,0.2-0.1,0.4-0.2,0.7
		l1.8-1.6h2.2l-9.7,8.5c1.6-0.6,3.3-1.4,5.1-2.4c1.7-1,3.8-2.3,6.3-3.9v0.3c-1.7,1.1-3.1,2-4.3,2.8s-2.4,1.4-3.7,2
		c-1.3,0.6-2.6,1.2-3.9,1.6c-2.2,1.9-4.1,3.4-5.6,4.5c-1.5,1.2-2.8,2-3.7,2.7c-1,0.6-1.8,1-2.5,1.3s-1.3,0.4-1.9,0.4
		c-0.5,0-0.9-0.1-1.2-0.3s-0.5-0.5-0.5-0.9c0-0.6,0.4-1.2,1.1-1.8c0.7-0.7,1.8-1.3,3.1-2c1.4-0.7,2.9-1.3,4.7-1.9l3.8-1.2
		L126.7,27.1z M126.2,27.5c-3.2,1.1-5.6,1.9-7.1,2.5c-1.5,0.6-2.8,1.4-3.8,2.2c-0.9,0.7-1.3,1.4-1.3,1.9c0,0.3,0.1,0.5,0.4,0.7
		c0.3,0.2,0.6,0.2,1,0.2c0.8,0,1.8-0.3,2.8-0.8c1-0.5,2.3-1.4,3.7-2.6C124,29.7,125.5,28.3,126.2,27.5z M135.2,18.5
		c0-0.2-0.1-0.4-0.4-0.5c-0.2-0.1-0.5-0.2-0.8-0.2c-1,0-2.1,0.4-3.4,1.1s-2.4,1.6-3.3,2.6c-0.9,1-1.4,1.7-1.4,2.2
		c0,0.2,0.1,0.3,0.3,0.4c0.2,0.1,0.4,0.2,0.7,0.2c0.7,0,1.7-0.4,3-1.1c1.3-0.8,2.5-1.6,3.6-2.6C134.7,19.7,135.2,19,135.2,18.5z"/>
</g>
</svg>
