<?xml version="1.0" encoding="utf-8"?>
<!-- Generator: Adobe Illustrator 17.1.0, SVG Export Plug-In . SVG Version: 6.00 Build 0)  -->
<!DOCTYPE svg PUBLIC "-//W3C//DTD SVG 1.1//EN" "http://www.w3.org/Graphics/SVG/1.1/DTD/svg11.dtd">
<svg version="1.1" id="Layer_1" xmlns="http://www.w3.org/2000/svg" xmlns:xlink="http://www.w3.org/1999/xlink" width="200" height="40" x="0px" y="0px"
	 viewBox="0 0 144.5 36.7" enable-background="new 0 0 144.5 36.7" xml:space="preserve">
<symbol  id="Butterfly_2" viewBox="-39.8 -36.2 79.6 72.1">
	<g>
		<polygon fill="none" points="-39.7,-35.8 39.7,-35.8 39.7,35.8 -39.7,35.8 		"/>
		<g>
			<path d="M0-24.4C1.1-24.4,2-17.9,2-9.8C2-1.7,1.1,4.9,0,4.9c-1.1,0-1.9-6.6-1.9-14.7C-1.9-17.9-1.1-24.4,0-24.4z"/>
			<g>
				<path fill="#D89845" stroke="#000000" stroke-width="0" d="M-1.7-0.9c0,0-3.3,18.6-29.5,35.3c0,0-11.8,6.8-7.3-11.2
					c0,0,3.1-5.6,1.8-13.2c0,0-0.9-8,2.7-10.1c0,0,3.4-2.4,0-4.6c0,0-6.7-5.8-4.3-14.3c0,0,0.5-3.9,2.7-4.3c0,0,0.1-2.7,1.8-3.4
					c0,0,0.6-2.3,2.7-2.1c0,0,0.9-4,4.6-3.4c0,0,0.9-1.5,3.4-1.2c0,0,2.7-2.7,5.5-0.6c0,0,15.2,11,14,18C-3.5-15.9,1.4-10.3-1.7-0.9
					z"/>
				<path fill="#4D3930" d="M-1.7-1.4c0,0-5.3,24.4-34.2,36.7c0,0-6.1-1.9-2.9-11.9c0,0,3-4.1,2.2-12.3c0,0-1.7-9.7,3.7-12.1
					c0,0,2.3-1.7-2.8-6.2c0,0-7.4-11.9,0.2-16c0,0,0.6-4.8,4.4-5.5c0,0,2-4.9,4.9-3.3c0,0,1.7-2.5,3.1-1.1c0,0,2.5-4.1,7.1,0.1
					c0,0-29.7,10.7-13.7,27.1c0,0,3.7,2.7-0.9,9.6c0,0-2.3,3.2-1.4,8.7c0,0,0.5,10.1-4.1,14.6c0,0-2.7,5.9,2.7,4.6
					C-33.4,31.7-17.7,29.7-1.7-1.4z"/>
				<path fill="#F2C256" d="M-2.6-4.7c0,0-2.4,12.1-17.6,21.2c0,0-7.3,4-4.6-6.8c0,0,1.8-3.3,1.3-7.9c0,0-0.9-4.9,1.6-6
					c0,0,2-1.5,0-2.7c0,0-4-3.5-2.6-8.6c0,0,0-2.4,1.6-2.6c0,0-0.4-1.6,1.1-2c0,0,0-1.5,1.6-1.3c0,0,0.2-2.4,2.7-2
					c0,0,0.5-0.9,2-0.7c0,0,1.6-1.6,3.3-0.4c0,0,9.1,6.6,8.4,10.8C-3.6-13.6-0.8-10.4-2.6-4.7z"/>
				<g>
					<path d="M-0.9-6.6c0,0-17.1,13.1-18.9,19.8c0,0-4.6,18.6-16.8,22.2l-0.2,0.4c12.2-3.7,16.8-22.2,16.8-22.2
						C-18.2,6.9-1.2-6.2-1.2-6.2L-0.9-6.6z"/>
					<path d="M-19,11.2c0,0-15.1,4.7-17,2.3l-0.2,0.4c1.8,2.4,16.5-2.1,16.5-2.1L-19,11.2z"/>
					<path d="M-21.4,17.2c0,0-10.5,5.8-16.3,4l-0.2,0.4c5.8,1.8,16.3-4,16.3-4L-21.4,17.2z"/>
					<path d="M-23.8,23c0,0-11.9,10.4-15.8,7.9v0.3c4,2.4,15.6-7.9,15.6-7.9L-23.8,23z"/>
					<path d="M-4.9-3c0,0-3.4,18-22.2,31.4l-0.2,0.4C-8.5,15.4-5.1-2.6-5.1-2.6L-4.9-3z"/>
					<path d="M-14.5,5.5c0,0-22.1,4.9-22.1,2.2l-0.2,0.4c0,2.7,21.3-2.1,21.3-2.1L-14.5,5.5z"/>
					<path d="M-4-4.2c0,0-7-3-12.2,1.2c0,0-4.9,4.6-18.6,4L-35,1.4c13.7,0.6,18.6-4,18.6-4c5.2-4.3,12.2-1.2,12.2-1.2L-4-4.2z"/>
					<path d="M-1.8-6.6c0,0-8.5-3.4-13.4,0c0,0-7.6,7.3-17.1,4.3l-0.2,0.4c9.4,3,17.1-4.3,17.1-4.3c4.9-3.4,13.4,0,13.4,0L-1.8-6.6z
						"/>
					<path d="M-15.3-6.6c0,0-0.6-4.6-7-4.6c0,0-14.3,0.3-15.8-4.6l-0.2,0.4c1.5,4.9,15.8,4.6,15.8,4.6c6.4,0,7,4.6,7,4.6L-15.3-6.6z
						"/>
					<path d="M-1.2-7.8c0,0-18.3-11.3-23.2-7.3c0,0-5.2,2.4-13.1-6.1l-0.2,0.4c7.9,8.5,13.1,6.1,13.1,6.1c4.9-4,23.2,7.3,23.2,7.3
						L-1.2-7.8z"/>
					<path d="M-22.6-15.8c0,0-11-8.8-11-11l-0.2,0.4c0,2.1,11,10.7,11,10.7L-22.6-15.8z"/>
					<path d="M-16.7-15.1c0,0-14.4-10.1-14.1-13.8l-0.2,0.4c-0.3,3.7,14.1,13.5,14.1,13.5L-16.7-15.1z"/>
					<path d="M-11.3-13.2c0,0-14.9-15.9-14.9-18.1l-0.2,0.4c0,2.1,14.9,18.1,14.9,18.1L-11.3-13.2z"/>
					<path d="M-5.2-10c0,0-6.1-10.7-9.1-11.6c0,0-9.8-11-8.5-11.9l-0.2,0.4c-1.2,0.9,8.5,11.9,8.5,11.9c3,0.9,9.1,11.6,9.1,11.6
						L-5.2-10z"/>
					<path d="M-3.4-9c0,0-1.2-8.8-4-10.7c0,0-5.2-6.7-5.5-9.8l-0.2,0.4c0.3,3,5.5,9.8,5.5,9.8c2.7,1.8,4,10.7,4,10.7L-3.4-9z"/>
					<path d="M-15.9-8c0,0-9.1-1.4-11.6,0.8c0,0-5.5,2.4-8.2-0.3l-0.2,0.4c2.7,2.7,8.2,0.3,8.2,0.3C-25.2-9-17-7.7-17-7.7L-15.9-8z"
						/>
				</g>
				<g>
					<path fill="#FFFFFF" d="M-38.1,28.4c0.2,0,0.4,0.8,0.4,1.7c0,1-0.2,1.7-0.4,1.7c-0.2,0-0.4-0.8-0.4-1.7
						C-38.5,29.2-38.3,28.4-38.1,28.4z"/>
					<path fill="#FFFFFF" d="M-35.6,20.7c0.5,0,0.9,0.4,0.9,0.9c0,0.5-0.4,0.9-0.9,0.9c-0.5,0-0.9-0.4-0.9-0.9
						C-36.5,21.1-36.1,20.7-35.6,20.7z"/>
					<path fill="#FFFFFF" d="M-33,13.8c0.8,0,1.5,0.3,1.5,0.6c0,0.4-0.7,0.6-1.5,0.6c-0.8,0-1.5-0.3-1.5-0.6
						C-34.6,14.1-33.9,13.8-33,13.8z"/>
					<path fill="#FFFFFF" d="M-32.4,3.7c0.6,0,1.1,0.4,1.1,0.9c0,0.5-0.5,0.9-1.1,0.9s-1.1-0.4-1.1-0.9C-33.5,4.1-33,3.7-32.4,3.7z"
						/>
					<path fill="#FFFFFF" d="M-32.1-5.8c0.6,0,1.1,0.5,1.1,1.1c0,0.6-0.5,1.1-1.1,1.1c-0.6,0-1.1-0.5-1.1-1.1
						C-33.2-5.4-32.7-5.8-32.1-5.8z"/>
					<path fill="#FFFFFF" d="M-35.3-14.1c0.1,0,0.2,1.1,0.2,2.4c0,1.3-0.1,2.4-0.2,2.4c-0.1,0-0.2-1.1-0.2-2.4
						C-35.5-13.1-35.4-14.1-35.3-14.1z"/>
					<path fill="#FFFFFF" d="M-35-20.1c0.5,0,0.9,0.4,0.9,0.9c0,0.5-0.4,0.9-0.9,0.9c-0.5,0-0.9-0.4-0.9-0.9
						C-35.9-19.7-35.5-20.1-35-20.1z"/>
					<path fill="#FFFFFF" d="M-31.1-28.3c0,0-0.3,1.4-0.3,2c0,0.6,0.2,0.1,0.3,0.1c0,0,0.1-0.5,0.1-1C-31-27.8-31.1-28.3-31.1-28.3z
						"/>
					<path fill="#FFFFFF" d="M-20.2-33.7c0.1,0,0.2,0.5,0.2,1.1c0,0.6-0.1,1.1-0.2,1.1c-0.1,0-0.2-0.5-0.2-1.1
						C-20.4-33.2-20.3-33.7-20.2-33.7z"/>
					<path fill="#FFFFFF" d="M-33,32.4c0.6,0,1.1,0.2,1.1,0.4c0,0.2-0.5,0.4-1.1,0.4c-0.6,0-1.1-0.2-1.1-0.4
						C-34.1,32.6-33.6,32.4-33,32.4z"/>
					<path fill="#FFFFFF" d="M-19.4,22.4c0.4,0,0.6,0.6,0.6,1.3c0,0.7-0.3,1.3-0.6,1.3c-0.4,0-0.6-0.6-0.6-1.3
						C-20.1,23-19.8,22.4-19.4,22.4z"/>
					<path fill="#FFFFFF" d="M-15.1,17.4c0.1,0,0.2,0.4,0.2,0.9c0,0.5-0.1,0.9-0.2,0.9c-0.1,0-0.2-0.4-0.2-0.9
						C-15.3,17.8-15.2,17.4-15.1,17.4z"/>
					<path fill="#FFFFFF" d="M-26.8-29.9c0.5,0,0.9,0.5,0.9,1.1c0,0.6-0.4,1.1-0.9,1.1c-0.5,0-0.9-0.5-0.9-1.1
						C-27.7-29.4-27.3-29.9-26.8-29.9z"/>
				</g>
				<path d="M-1-2.3c0,0-4,19.7-29.3,35c0,0-12.1,7.1-7.5-10.9c0,0,3-5.5,2.1-13.1c0,0-1.5-8.2,2.7-10.1c0,0,3.4-2.4,0-4.6
					c0,0-6.7-5.8-4.3-14.3c0,0,0-4,2.7-4.3c0,0-0.6-2.7,1.8-3.4c0,0,0-2.4,2.7-2.1c0,0,0.3-4,4.6-3.4c0,0,0.9-1.5,3.4-1.2
					c0,0,2.7-2.7,5.5-0.6c0,0,15.2,11,14,18C-2.5-17.2,2.1-11.7-1-2.3l-0.9,1.6c3-9.4-1.5-14.9-1.5-14.9c1.2-7-14-18-14-18
					c-2.7-2.1-5.5,0.6-5.5,0.6c-2.4-0.3-3.4,1.2-3.4,1.2c-4.3-0.6-4.6,3.4-4.6,3.4c-2.7-0.3-2.7,2.1-2.7,2.1
					c-2.4,0.6-1.8,3.4-1.8,3.4c-2.7,0.3-3.1,4.2-3.1,4.2c-2.4,8.5,4.6,14.4,4.6,14.4c3.4,2.1,0,4.6,0,4.6
					c-4.3,1.8-2.7,10.1-2.7,10.1c0.9,7.6-2.1,13.1-2.1,13.1c-4.6,18,7.6,11.3,7.6,11.3C-5.8,19.4-1.9-0.7-1.9-0.7L-1-2.3z"/>
			</g>
			<g>
				<path fill="#D89845" stroke="#000000" stroke-width="0" d="M1.7-1c0,0,3.3,18.6,29.5,35.3c0,0,11.8,6.8,7.3-11.2
					c0,0-3.1-5.6-1.8-13.2c0,0,0.9-8-2.7-10.1c0,0-3.4-2.4,0-4.6c0,0,6.7-5.8,4.3-14.3c0,0-0.5-3.9-2.7-4.3c0,0-0.1-2.7-1.8-3.4
					c0,0-0.6-2.3-2.7-2.1c0,0-0.9-4-4.6-3.4c0,0-0.9-1.5-3.4-1.2c0,0-2.7-2.7-5.5-0.6c0,0-15.2,11-14,18C3.5-16-1.4-10.5,1.7-1z"/>
				<path fill="#4D3930" d="M1.7-1.6c0,0,5.3,24.4,34.2,36.7c0,0,6.1-1.9,2.9-11.9c0,0-3-4.1-2.2-12.3c0,0,1.7-9.7-3.7-12.1
					c0,0-2.3-1.7,2.8-6.2c0,0,7.4-11.9-0.2-16c0,0-0.6-4.8-4.4-5.5c0,0-2-4.9-4.9-3.3c0,0-1.7-2.5-3.1-1.1c0,0-2.5-4.1-7.1,0.1
					c0,0,29.7,10.7,13.7,27.1c0,0-3.7,2.7,0.9,9.6c0,0,2.3,3.2,1.4,8.7c0,0-0.5,10.1,4.1,14.6c0,0,2.7,5.9-2.7,4.6
					C33.4,31.5,17.7,29.5,1.7-1.6z"/>
				<path fill="#F2C256" d="M2.6-4.9c0,0,2.4,12.1,17.6,21.2c0,0,7.3,4,4.6-6.8c0,0-1.8-3.3-1.3-7.9c0,0,0.9-4.9-1.6-6
					c0,0-2-1.5,0-2.7c0,0,4-3.5,2.6-8.6c0,0,0-2.4-1.6-2.6c0,0,0.4-1.6-1.1-2c0,0,0-1.5-1.6-1.3c0,0-0.2-2.4-2.7-2
					c0,0-0.5-0.9-2-0.7c0,0-1.6-1.6-3.3-0.4c0,0-9.1,6.6-8.4,10.8C3.6-13.8,0.8-10.5,2.6-4.9z"/>
				<g>
					<path d="M0.9-6.8C0.9-6.8,18,6.3,19.8,13c0,0,4.6,18.6,16.8,22.2l0.2,0.4C24.6,32,20.1,13.4,20.1,13.4
						C18.2,6.7,1.2-6.4,1.2-6.4L0.9-6.8z"/>
					<path d="M19,11c0,0,15.1,4.7,17,2.3l0.2,0.4c-1.8,2.4-16.5-2.1-16.5-2.1L19,11z"/>
					<path d="M21.4,17c0,0,10.5,5.8,16.3,4l0.2,0.4c-5.8,1.8-16.3-4-16.3-4L21.4,17z"/>
					<path d="M23.8,22.8c0,0,11.9,10.4,15.8,7.9V31c-4,2.4-15.6-7.9-15.6-7.9L23.8,22.8z"/>
					<path d="M4.9-3.1c0,0,3.4,18,22.2,31.4l0.2,0.4C8.5,15.2,5.1-2.7,5.1-2.7L4.9-3.1z"/>
					<path d="M14.5,5.4c0,0,22.1,4.9,22.1,2.2l0.2,0.4c0,2.7-21.3-2.1-21.3-2.1L14.5,5.4z"/>
					<path d="M4-4.4c0,0,7-3,12.2,1.2c0,0,4.9,4.6,18.6,4L35,1.2c-13.7,0.6-18.6-4-18.6-4C11.2-7,4.2-4,4.2-4L4-4.4z"/>
					<path d="M1.8-6.8c0,0,8.5-3.4,13.4,0c0,0,7.6,7.3,17.1,4.3l0.2,0.4c-9.4,3-17.1-4.3-17.1-4.3c-4.9-3.4-13.4,0-13.4,0L1.8-6.8z"
						/>
					<path d="M15.3-6.8c0,0,0.6-4.6,7-4.6c0,0,14.3,0.3,15.8-4.6l0.2,0.4C36.8-10.7,22.5-11,22.5-11c-6.4,0-7,4.6-7,4.6L15.3-6.8z"
						/>
					<path d="M1.2-8c0,0,18.3-11.3,23.2-7.3c0,0,5.2,2.4,13.1-6.1l0.2,0.4c-7.9,8.5-13.1,6.1-13.1,6.1c-4.9-4-23.2,7.3-23.2,7.3
						L1.2-8z"/>
					<path d="M22.6-15.9c0,0,11-8.8,11-11l0.2,0.4c0,2.1-11,10.7-11,10.7L22.6-15.9z"/>
					<path d="M16.7-15.2c0,0,14.4-10.1,14.1-13.8l0.2,0.4c0.3,3.7-14.1,13.5-14.1,13.5L16.7-15.2z"/>
					<path d="M11.3-13.4c0,0,14.9-15.9,14.9-18.1l0.2,0.4c0,2.1-14.9,18.1-14.9,18.1L11.3-13.4z"/>
					<path d="M5.2-10.1c0,0,6.1-10.7,9.1-11.6c0,0,9.8-11,8.5-11.9l0.2,0.4c1.2,0.9-8.5,11.9-8.5,11.9c-3,0.9-9.1,11.6-9.1,11.6
						L5.2-10.1z"/>
					<path d="M3.4-9.2c0,0,1.2-8.8,4-10.7c0,0,5.2-6.7,5.5-9.8l0.2,0.4c-0.3,3-5.5,9.8-5.5,9.8c-2.7,1.8-4,10.7-4,10.7L3.4-9.2z"/>
					<path d="M15.9-8.2c0,0,9.1-1.4,11.6,0.8c0,0,5.5,2.4,8.2-0.3l0.2,0.4C33.2-4.6,27.7-7,27.7-7C25.2-9.1,17-7.9,17-7.9L15.9-8.2z
						"/>
				</g>
				<g>
					<path fill="#FFFFFF" d="M38.1,28.2c-0.2,0-0.4,0.8-0.4,1.7c0,1,0.2,1.7,0.4,1.7c0.2,0,0.4-0.8,0.4-1.7
						C38.5,29,38.3,28.2,38.1,28.2z"/>
					<path fill="#FFFFFF" d="M35.6,20.6c-0.5,0-0.9,0.4-0.9,0.9c0,0.5,0.4,0.9,0.9,0.9c0.5,0,0.9-0.4,0.9-0.9
						C36.5,20.9,36.1,20.6,35.6,20.6z"/>
					<path fill="#FFFFFF" d="M33,13.6c-0.8,0-1.5,0.3-1.5,0.6c0,0.4,0.7,0.6,1.5,0.6c0.8,0,1.5-0.3,1.5-0.6
						C34.6,13.9,33.9,13.6,33,13.6z"/>
					<path fill="#FFFFFF" d="M32.4,3.5c-0.6,0-1.1,0.4-1.1,0.9c0,0.5,0.5,0.9,1.1,0.9c0.6,0,1.1-0.4,1.1-0.9
						C33.5,3.9,33,3.5,32.4,3.5z"/>
					<path fill="#FFFFFF" d="M32.1-6c-0.6,0-1.1,0.5-1.1,1.1c0,0.6,0.5,1.1,1.1,1.1c0.6,0,1.1-0.5,1.1-1.1C33.2-5.5,32.7-6,32.1-6z"
						/>
					<path fill="#FFFFFF" d="M35.3-14.3c-0.1,0-0.2,1.1-0.2,2.4c0,1.3,0.1,2.4,0.2,2.4c0.1,0,0.2-1.1,0.2-2.4
						C35.5-13.3,35.4-14.3,35.3-14.3z"/>
					<path fill="#FFFFFF" d="M35-20.3c-0.5,0-0.9,0.4-0.9,0.9c0,0.5,0.4,0.9,0.9,0.9c0.5,0,0.9-0.4,0.9-0.9
						C35.9-19.9,35.5-20.3,35-20.3z"/>
					<path fill="#FFFFFF" d="M31.1-28.5c0,0,0.3,1.4,0.3,2c0,0.6-0.2,0.1-0.3,0.1c0,0-0.1-0.5-0.1-1C31-28,31.1-28.5,31.1-28.5z"/>
					<path fill="#FFFFFF" d="M20.2-33.9c-0.1,0-0.2,0.5-0.2,1.1c0,0.6,0.1,1.1,0.2,1.1c0.1,0,0.2-0.5,0.2-1.1
						C20.4-33.4,20.3-33.9,20.2-33.9z"/>
					<path fill="#FFFFFF" d="M33,32.3c-0.6,0-1.1,0.2-1.1,0.4s0.5,0.4,1.1,0.4c0.6,0,1.1-0.2,1.1-0.4S33.6,32.3,33,32.3z"/>
					<path fill="#FFFFFF" d="M19.4,22.2c-0.4,0-0.6,0.6-0.6,1.3c0,0.7,0.3,1.3,0.6,1.3c0.4,0,0.6-0.6,0.6-1.3
						C20.1,22.8,19.8,22.2,19.4,22.2z"/>
					<path fill="#FFFFFF" d="M15.1,17.2c-0.1,0-0.2,0.4-0.2,0.9c0,0.5,0.1,0.9,0.2,0.9c0.1,0,0.2-0.4,0.2-0.9
						C15.3,17.6,15.2,17.2,15.1,17.2z"/>
					<path fill="#FFFFFF" d="M26.8-30.1c-0.5,0-0.9,0.5-0.9,1.1c0,0.6,0.4,1.1,0.9,1.1c0.5,0,0.9-0.5,0.9-1.1
						C27.7-29.6,27.3-30.1,26.8-30.1z"/>
				</g>
				<path d="M1-2.4c0,0,4,19.7,29.3,35c0,0,12.1,7.1,7.5-10.9c0,0-3-5.5-2.1-13.1c0,0,1.5-8.2-2.7-10.1c0,0-3.4-2.4,0-4.6
					c0,0,6.7-5.8,4.3-14.3c0,0,0-4-2.7-4.3c0,0,0.6-2.7-1.8-3.4c0,0,0-2.4-2.7-2.1c0,0-0.3-4-4.6-3.4c0,0-0.9-1.5-3.4-1.2
					c0,0-2.7-2.7-5.5-0.6c0,0-15.2,11-14,18C2.5-17.4-2.1-11.9,1-2.4l0.9,1.6c-3-9.4,1.5-14.9,1.5-14.9c-1.2-7,14-18,14-18
					c2.7-2.1,5.5,0.6,5.5,0.6c2.4-0.3,3.4,1.2,3.4,1.2c4.3-0.6,4.6,3.4,4.6,3.4c2.7-0.3,2.7,2.1,2.7,2.1c2.4,0.6,1.8,3.4,1.8,3.4
					c2.7,0.3,3.1,4.2,3.1,4.2c2.4,8.5-4.6,14.4-4.6,14.4c-3.4,2.1,0,4.6,0,4.6c4.3,1.8,2.7,10.1,2.7,10.1
					c-0.9,7.6,2.1,13.1,2.1,13.1c4.6,18-7.6,11.3-7.6,11.3C5.8,19.3,1.9-0.9,1.9-0.9L1-2.4z"/>
			</g>
			<path d="M0.4,4.3c0.1,1.3,0,2.6,0.5,3.8c0.2,0.7,0.6,1.4,0.9,2.1c1.2,2.2,3.4,3.3,5.2,4.7c0,0,0,0.1,0,0.1c0,0-0.1,0.1-0.1,0
				c-2-1.4-4.1-2.6-5.4-4.8C0.5,8.4,0.1,6.4,0.4,4.3C0.4,4.3,0.4,4.2,0.4,4.3C0.4,4.2,0.4,4.3,0.4,4.3L0.4,4.3z"/>
			<path d="M-0.4,4.3c-0.1,1.3,0,2.6-0.5,3.8c-0.2,0.7-0.6,1.4-0.9,2.1C-3,12.4-5.1,13.5-7,14.9c0,0,0,0.1,0,0.1c0,0,0.1,0.1,0.1,0
				c2-1.4,4.1-2.6,5.4-4.8C-0.4,8.4-0.1,6.4-0.4,4.3C-0.3,4.2-0.3,4.2-0.4,4.3C-0.3,4.2-0.4,4.2-0.4,4.3L-0.4,4.3z"/>
		</g>
	</g>
</symbol>
<symbol  id="Palm" viewBox="-67.9 -84.8 135.8 169.6">
	<g>
		<path fill="#E8DED2" d="M-15.1-47.5c0,0-53.9-3-43-7.3c10.9-4.2,25.4-6.1,20-10.9c-5.4-4.8-3-12.1,18.2-12.7
			c21.2-0.6,39.9,4.8,35.7-0.6c-4.2-5.4-2.4-6.7,7.9-5.4c10.3,1.2,41.2,10.9,7.9,16.3c-33.3,5.4-12.7,12.7,4.2,12.7
			S76.9-49.3-15.1-47.5z"/>
		<g>
			<path fill="#895958" d="M-5.8,33.2C-5.8,33.2-5.8,33.2-5.8,33.2C-5.8,33.2-5.8,33.2-5.8,33.2z"/>
			<path fill="#895958" d="M-5.9,31.8c0,0,0.1,0.7,0.2,1.1c-0.1,0.1-0.2,0.2-0.2,0.3C-5.8,33-5.9,31.8-5.9,31.8z"/>
			<path fill="#895958" d="M-5.6,31.7c0,0,0.1,0.5,0.2,0.8c0,0.1-0.1,0.1-0.1,0.2C-5.6,32.4-5.6,31.8-5.6,31.7z"/>
			<g>
				<path fill="#B07F63" d="M8.9-61.6c-0.3,2,1.2,2.1,0.9,4.1c-0.3,2-1.7,1.8-2,3.9c-0.3,2,1.2,2.2,0.9,4.3c-0.3,2.1-1.7,1.9-2,3.9
					c-0.3,2,1.2,2.2,0.9,4.2c-0.3,2-1.7,1.8-2,3.8c-0.3,2,1.2,2.2,0.9,4.3c-0.3,2-1.7,1.8-2,3.9c-0.3,2,1.2,2.2,0.9,4.3
					c-0.3,2-1.7,1.8-2,3.9c-0.3,2,1.2,2.2,0.9,4.3C4-14.8,2.6-15,2.3-13C2-10.9,3.4-10.7,3.2-8.6c-0.3,2-1.7,1.8-2,3.9
					C0.9-2.7,2.3-2.5,2-0.4c-0.3,2-1.7,1.8-2,3.8c-0.3,2.1,1.2,2.2,0.9,4.3c-0.3,2-1.7,1.8-2,3.8c-0.3,2.1,1.2,2.2,0.9,4.3
					c-0.3,2-1.7,1.8-2,3.9C-2.4,21.8-1,22-1.3,24.1c-0.3,2-1.7,1.8-2,3.9c-0.3,2.1,1.2,2.3,0.9,4.4c0,0-0.3-0.8-0.6-0.8l-0.1,1.4
					v-1.4v1.4c0,0-0.1-1.4-0.1-1.4c-0.1,0,0.1,1.4,0,1.5c-0.1,0-0.2-1.4-0.3-1.4c-0.1,0,0.1,1.4,0,1.5c0,0,0-0.1-0.1-0.2v-97.3h14.3
					C10.2-63.3,9.1-63.2,8.9-61.6z"/>
				<path fill="#895958" d="M-3.8,31.6c-0.1,0,0.1,1.4,0,1.4c0,0-0.2-1.4-0.3-1.4c-0.1,0,0,1.5-0.1,1.5c-0.1,0-0.3-1.4-0.4-1.4
					c-0.1,0,0.1,1.4-0.1,1.5c-0.1,0-0.3-1.4-0.3-1.4c-0.1,0,0.1,1.4,0,1.5c-0.1,0-0.2-1.4-0.3-1.4c-0.1,0,0.1,1.4,0,1.5
					c0,0-0.1-0.3-0.1-0.6c0.1-0.1,0.1-0.2,0.1-0.2c-0.3-1.9-1.6-1.7-1.9-3.6c-0.2-1.9,1.2-2,1-3.9c-0.2-2-1.7-1.8-1.9-3.7
					c-0.2-2,1.2-2.2,1-4.2c-0.2-2-1.7-1.9-1.9-3.9c-0.2-2,1.2-2.1,1-4.1c-0.2-2-1.7-1.9-1.9-3.9C-10,3-8.6,2.8-8.8,0.7
					c-0.2-2-1.7-1.9-1.9-3.9c-0.2-2,1.2-2.2,1-4.2c-0.2-2-1.7-1.9-1.9-3.9c-0.2-2,1.2-2.2,1-4.2c-0.2-2.1-1.7-1.9-1.9-4
					c-0.2-2.1,1.2-2.2,1-4.3c-0.2-2.1-1.7-1.9-1.9-4c-0.2-2,1.2-2.2,1-4.2c-0.2-2.1-1.7-1.9-1.9-4c-0.2-2,1.2-2.2,1-4.2
					c-0.2-2.1-1.7-1.9-1.9-4c-0.2-2,1.2-2.2,1-4.2c-0.2-2.1-1.7-1.9-1.9-4c-0.2-2,1.2-2.2,1-4.2c-0.2-2.1-1.7-1.9-1.9-4
					c-0.2-1.9,1-2.2,1-3.8h12.5v97.3C-3.7,32.4-3.8,31.5-3.8,31.6z"/>
			</g>
			<path fill="#895958" d="M-5.6,33.2c0,0,0-0.1-0.1-0.3c0,0,0.1-0.1,0.1-0.1C-5.6,33-5.5,33.2-5.6,33.2z"/>
		</g>
		<g>
			<g>
				<path fill="#A3C566" d="M-1.5,38.5C-2,38-2.1,35.3-2.3,33.8c0.6,1.2,2,3.3,2.1,4.1c-0.3,0.2-0.7,0.4-0.9,0.5
					C-1.2,38.5-1.3,38.5-1.5,38.5z"/>
				<path fill="#A3C566" d="M-2.6,32.9c0.1,0,0.2,0.3,0.3,0.9C-2.6,33.3-2.7,33-2.6,32.9z"/>
				<path fill="#A3C566" d="M53.3,74.3c0.6-0.1,1-0.1,1,0.1C54.3,74.5,53.9,74.4,53.3,74.3z"/>
				<path fill="#A3C566" d="M48.4,74.7c-0.1-0.7-0.2-1.3,0-1.3c0.6-0.2,3.4,0.6,5,0.9C51.9,74.4,49.4,74.9,48.4,74.7z"/>
				<path fill="#A3C566" d="M48.5,78.1c-0.7,0.1-2.9-4.3-3.7-4.2c-0.7,0-0.8,4.6-1.7,4.6c-0.8,0-1.8-4.6-2.7-4.7
					c-0.8-0.1-1.8,4.4-2.7,4.2c-0.8-0.1-1.1-4.8-1.9-4.9c-0.8-0.2-2.5,4.1-3.4,3.9c-0.8-0.2-0.5-4.8-1.3-5.1c-0.8-0.2-3,3.8-3.9,3.5
					c-0.8-0.3,0.2-4.8-0.6-5.1c-0.7-0.3-3.5,3.5-4.3,3.1c-0.8-0.4,0.8-4.7,0-5.1c-0.7-0.4-3.9,3.1-4.6,2.7c-0.7-0.4,1.3-4.6,0.7-5
					c-0.7-0.5-4.3,2.7-5.1,2.1c-0.6-0.5,1.9-4.4,1.3-4.8c-0.6-0.5-4.5,2.3-5.1,1.8c-0.6-0.6,2.3-4.2,1.7-4.8
					C10.8,59.6,6.5,62,6,61.4c-0.6-0.6,2.8-3.9,2.3-4.5c-0.5-0.6-5.1,1.3-5.6,0.7C2.2,56.9,6,54,5.6,53.4c-0.4-0.6-5.2,0.8-5.6,0.1
					c-0.4-0.7,3.7-3.3,3.3-3.9c-0.4-0.7-5.4,0.2-5.7-0.6c-0.3-0.8,4.1-2.7,3.8-3.4c-0.3-0.7-5.4-0.6-5.6-1.3c-0.2-0.8,4.5-2,4.4-2.7
					C0,40.9-5.2,40-5.2,39.3c0-0.6,2.2-0.7,3.7-0.8c0,0,0,0,0,0c0.1,0.1,0.2,0,0.4,0c0.5-0.1,0.9-0.2,0.9-0.3c0,0,0-0.1,0-0.2
					c1.3-0.8,3-2,3.3-1.6c0.4,0.5-2.9,4.1-2.4,4.7c0.4,0.5,4.6-1.8,5.1-1.3c0.4,0.5-3.1,3.9-2.6,4.5c0.4,0.6,4.7-1.7,5.1-1.2
					c0.4,0.5-3,3.9-2.5,4.5c0.5,0.5,4.7-1.8,5.1-1.3c0.4,0.5-2.8,3.9-2.3,4.5c0.5,0.5,4.6-2,5.1-1.5c0.5,0.5-2.6,4-2.1,4.5
					c0.5,0.5,4.5-2.2,5-1.7c0.5,0.4-2.4,4.1-1.9,4.6c0.5,0.5,4.4-2.4,4.9-2c0.5,0.4-2.2,4.2-1.6,4.7c0.6,0.5,4.3-2.6,4.8-2.2
					c0.5,0.4-2,4.3-1.4,4.7c0.6,0.4,4-2.8,4.6-2.5c0.6,0.4-1.7,4.4-1,4.8c0.6,0.4,3.9-3,4.5-2.7c0.6,0.3-1.4,4.5-0.8,4.8
					c0.7,0.4,3.8-3.2,4.4-2.9c0.6,0.3-1.2,4.5-0.5,4.8c0.7,0.3,3.6-3.3,4.2-3.1c0.6,0.3-0.9,4.6-0.3,4.9c0.7,0.3,3.6-3.5,4.2-3.2
					c0.7,0.3-0.8,4.6-0.1,4.9c0.8,0.3,3.6-3.5,4.2-3.3c0.7,0.3-0.8,4.6-0.1,4.8c0.8,0.3,3.9-3.4,4.5-3.2c0.8,0.3-1.6,4.4-1,4.7
					c0.1,0,0.2,0.1,0.3,0.1C48.6,76.1,49.1,78,48.5,78.1z"/>
			</g>
			<g>
				<g>
					<path fill="#B1CD78" d="M-32.5,60.7c0.6-0.5,4.4,3,5,2.5c0.6-0.5-2.2-4.8-1.7-5.3c0.5-0.5,4.5,2.8,5,2.3
						c0.6-0.5-2.4-4.7-1.9-5.2c0.5-0.5,4.6,2.5,5.2,2c0.5-0.6-2.6-4.6-2.2-5.1c0.5-0.5,4.8,2.3,5.3,1.7c0.5-0.6-2.8-4.5-2.4-5.1
						c0.5-0.6,4.8,2.1,5.3,1.5c0.5-0.7-3-4.5-2.6-5.1c0.4-0.6,4.9,2,5.3,1.3c0.5-0.7-3.1-4.5-2.7-5.1c0.4-0.6,4.8,2,5.2,1.5
						c0.5-0.7-2.9-4.8-2.5-5.4c0.5-0.7,4.3,2.9,4.8,2.4c0.7-0.7,0.6-6.4,1.1-6.3c0.5,0.1-2.6,4.8-2.5,5.9c0.1,0.7,5.3,0.3,5.2,1.3
						c-0.1,0.8-5.4,1.7-5.6,2.6c-0.1,0.8,4.8,2.1,4.6,3.1c-0.2,0.8-5.5,0.6-5.8,1.5c-0.3,0.8,4.3,3,4,3.9c-0.3,0.8-5.5-0.2-5.9,0.6
						c-0.4,0.7,3.9,3.6,3.4,4.4c-0.4,0.8-5.4-0.9-5.8-0.1c-0.4,0.7,3.4,4,2.9,4.8c-0.5,0.7-5.2-1.4-5.8-0.8c-0.5,0.6,3,4.4,2.4,5.1
						c-0.6,0.7-5-2-5.6-1.4c-0.6,0.6,2.5,4.8,1.8,5.4c-0.6,0.6-4.7-2.6-5.3-2c-0.6,0.5,2.1,4.9,1.4,5.5c-0.8,0.6-4.5-2.9-5.2-2.4
						c-0.7,0.5,1.4,5.2,0.7,5.7c-0.8,0.5-4.1-3.4-4.8-3c-0.7,0.4,0.8,5.4,0,5.8c-0.8,0.4-3.7-3.8-4.5-3.5c-0.8,0.4,0.2,5.5-0.6,5.8
						c-0.9,0.3-3.2-4.2-4-3.9c-0.8,0.3-0.4,5.5-1.3,5.7c-0.9,0.3-2.7-4.6-3.5-4.4c-0.8,0.2-1.1,5.4-2,5.6c-0.9,0.1-2-4.9-2.8-4.8
						c-0.9,0.1-1.9,5.3-2.8,5.3c-0.9,0-1-5.1-1.8-5.2c-0.9,0-3.1,4.9-3.8,4.8c-1-0.2,0.7-5.2,0.1-5.4c-0.9-0.3-6.2,1.6-6.2,1.1
						c0-0.5,5.5,0.9,6.5,0.3c0.6-0.3-1.9-4.9-1.1-5.3c0.6-0.3,3.9,4,4.7,3.6c0.7-0.3-0.9-5.2-0.1-5.5c0.7-0.3,3.6,4.1,4.4,3.7
						c0.7-0.3-0.8-5.2-0.1-5.5c0.7-0.3,3.6,4,4.4,3.6c0.7-0.3-0.9-5.2-0.3-5.5c0.6-0.3,3.7,3.8,4.4,3.5c0.7-0.3-1.2-5.1-0.6-5.5
						c0.6-0.3,3.8,3.7,4.5,3.3c0.6-0.4-1.4-5.1-0.8-5.4c0.6-0.4,4,3.5,4.6,3.1c0.6-0.4-1.7-5-1.1-5.4c0.5-0.4,4.1,3.3,4.7,2.8
						C-30.5,65.6-33.1,61.1-32.5,60.7z"/>
				</g>
			</g>
			<g>
				<g>
					<path fill="#B1CD78" d="M31.9,30.1c-0.7,0.1-0.6,5.3-1.4,5.4c-0.8,0.1-2.3-4.8-2.9-4.7c-0.7,0.1-0.8,5.2-1.5,5.3
						c-0.8,0.1-2-4.9-2.7-4.8c-0.7,0.1-1.1,5.2-1.8,5.2c-0.8,0-1.8-5-2.5-5c-0.7,0-1.3,5.1-2.1,5.1c-0.8,0-1.6-5.1-2.3-5.1
						c-0.7,0-1.5,5-2.3,5c-0.8,0-1.5-5.2-2.2-5.2c-0.8-0.1-1.7,5-2.4,4.9c-0.8-0.1-1.4-5.3-2.1-5.3c-0.8-0.1-1.5,5-2.3,4.9
						c-0.9-0.1-1.8-5.3-2.5-5.4c-0.8,0-0.6,5.2-1.2,5.2c-1,0.1-5.3-3.7-5.5-3.2c-0.2,0.5,5.4,1.1,6.1,1.9c0.4,0.5-3.2,4.3-2.4,4.9
						c0.6,0.5,4.8-3,5.6-2.6c0.7,0.4-1.5,5-0.6,5.5c0.8,0.4,4.1-3.8,4.9-3.5C8.4,39,7.1,43.9,8,44.2c0.8,0.3,3.4-4.3,4.3-4.1
						c0.8,0.2,0.2,5.3,1.2,5.5c0.9,0.2,2.8-4.7,3.7-4.5c0.8,0.1,0.8,5.2,1.8,5.3c0.9,0.1,2.3-4.9,3.1-4.9c0.8,0,1.4,5.1,2.3,5.1
						c0.9,0,1.7-5.1,2.5-5.2c0.8,0,2,5,3,4.9c0.9-0.1,1.1-5.2,1.9-5.4c0.8-0.1,2.4,4.7,3.3,4.6c0.9-0.2,0.7-5.3,1.6-5.6
						c0.8-0.2,3.1,4.4,3.9,4.2c0.9-0.3,0-5.3,0.8-5.6c0.8-0.3,3.5,4.1,4.4,3.8c0.9-0.4-0.5-5.3,0.2-5.7c0.8-0.4,4,3.7,4.8,3.3
						c0.8-0.4-1.1-5.2-0.4-5.6c0.7-0.4,4.5,3.2,5.2,2.7c0.8-0.5-1.8-5-1.1-5.5c0.7-0.5,4.9,2.6,5.6,2.1c0.7-0.6-2.4-4.7-1.9-5.2
						c0.6-0.6,5.3,1.9,5.8,1.3c0.6-0.7-3.2-4.1-2.8-4.7c0.5-0.7,5.8,0.8,6.1,0.2c0.5-0.9-4.4-2.8-4.2-3.4c0.3-0.9,5.2-3.7,4.9-4
						c-0.4-0.3-2.9,4.8-4,5.1c-0.6,0.2-2.6-4.6-3.4-4.2c-0.6,0.3,0.5,5.5-0.3,5.9c-0.7,0.3-3.4-4-4.1-3.6c-0.6,0.3,0.8,5.4,0,5.8
						c-0.7,0.3-3.4-4-4.1-3.6c-0.6,0.3,0.7,5.3,0,5.7c-0.7,0.3-3.4-4.1-4-3.8c-0.6,0.3,0.5,5.3-0.2,5.6c-0.7,0.3-3.2-4.2-3.8-4
						c-0.7,0.2,0.3,5.3-0.4,5.6c-0.7,0.2-2.9-4.4-3.6-4.2c-0.7,0.2,0.1,5.3-0.7,5.5c-0.7,0.2-2.8-4.5-3.4-4.3
						c-0.7,0.2-0.2,5.3-0.9,5.4C34.3,34.8,32.6,30,31.9,30.1z"/>
				</g>
			</g>
			<g>
				<path fill="#88A952" d="M-67.6,11.5c0.1-0.1,0.3,0.2,0.5,0.7C-67.5,11.8-67.7,11.5-67.6,11.5z"/>
				<path fill="#88A952" d="M-64.1,15.3c0,0.2-0.4,0.4-1.1,0.7c-0.6-0.6-1.4-2.7-2-3.8C-66.1,13.1-64.2,14.8-64.1,15.3z"/>
				<path fill="#88A952" d="M-9.2,32.3c0.5-0.2,0.8-0.4,0.9-0.3C-8.3,32.2-8.6,32.3-9.2,32.3z"/>
				<path fill="#88A952" d="M-13.2,34.1c-0.1-0.1-0.1-0.2-0.2-0.3c0-0.2,0-0.5,0-0.9c0.7-0.3,3-0.4,4.3-0.5
					C-10.4,32.9-12.6,34.2-13.2,34.1z"/>
				<path fill="#88A952" d="M-13.4,33.8c0,0.2,0.1,0.3,0.2,0.3c0,0,0,0,0,0c0.6,1.2,1.6,2.9,1.1,3.1c-0.6,0.3-3.6-3-4.3-2.8
					c-0.6,0.2,0.6,4.3-0.1,4.6c-0.7,0.2-2.9-3.6-3.6-3.4c-0.7,0.1-0.2,4.4-0.9,4.5c-0.7,0.1-2.3-3.9-3.1-3.9
					c-0.7,0.1-0.8,4.3-1.6,4.4c-0.7,0-1.8-4.2-2.5-4.2c-0.7,0-1.3,4.2-2,4.2c-0.7,0-1.3-4.3-2-4.4c-0.7-0.1-1.8,4.1-2.5,4
					c-0.7-0.1-0.8-4.4-1.5-4.6c-0.7-0.1-2.3,3.9-3,3.7c-0.7-0.2-0.3-4.5-1-4.7c-0.6-0.2-2.6,3.6-3.2,3.4c-0.8-0.3,0-4.5-0.6-4.8
					c-0.6-0.3-3,3.3-3.7,3c-0.7-0.3,0.6-4.4,0-4.7c-0.6-0.3-3.4,3-4,2.6c-0.7-0.4,1-4.3,0.5-4.7c-0.6-0.4-3.7,2.6-4.3,2.2
					c-0.6-0.5,1.5-4.2,1-4.6c-0.6-0.5-4.1,2.1-4.6,1.6c-0.6-0.5,2-3.9,1.5-4.4c-0.5-0.5-4.3,1.6-4.8,1.1c-0.5-0.6,2.5-3.6,2.1-4.1
					c-0.4-0.6-4.6,1-5,0.4c-0.4-0.6,3.1-3,2.8-3.5c-0.4-0.6-4.8,0-5.1-0.6c-0.2-0.5,1.6-1.1,2.8-1.6c0.1,0.1,0.1,0.1,0.2,0.2
					c0.5,0.2,2.7-3.5,3.3-3.1c0.5,0.3-1.1,4.5-0.5,4.9c0.5,0.4,3.3-2.9,3.8-2.5c0.5,0.3-1.2,4.3-0.7,4.7c0.5,0.4,3.3-2.9,3.8-2.5
					c0.5,0.3-1.2,4.3-0.6,4.7c0.5,0.3,3.2-3,3.8-2.6c0.5,0.3-1.1,4.3-0.5,4.6c0.5,0.3,3.1-3.1,3.6-2.8c0.5,0.3-0.9,4.3-0.3,4.6
					c0.6,0.3,2.9-3.3,3.5-3c0.5,0.2-0.7,4.4-0.1,4.6c0.6,0.3,2.8-3.4,3.3-3.2c0.5,0.2-0.5,4.4,0.1,4.6c0.6,0.2,2.5-3.6,3-3.4
					c0.6,0.2-0.1,4.4,0.5,4.6c0.6,0.2,2.4-3.7,3-3.5c0.6,0.2,0,4.4,0.7,4.6c0.6,0.2,2.2-3.8,2.8-3.7c0.6,0.1,0.3,4.4,0.9,4.5
					c0.6,0.1,2.1-3.9,2.7-3.8c0.6,0.1,0.5,4.4,1.1,4.5c0.7,0.1,1.9-4,2.5-4c0.6,0.1,0.7,4.3,1.3,4.4c0.7,0.1,1.8-4.1,2.4-4.1
					c0.6,0,0.8,4.3,1.4,4.3c0.7,0,1.8-4.2,2.4-4.1c0.6,0,0.7,4.3,1.3,4.3c0.7,0,2.1-4.2,2.7-4.1c0.5,0,0.3,1.9,0.3,3.2
					c-0.1,0-0.1,0.1-0.1,0.1C-13.7,33-13.6,33.3-13.4,33.8z"/>
			</g>
			<path fill="#AF8376" d="M-7.2,31.3c0-2.7-1.5-4.9-3.4-4.9c-1.9,0-3.4,2.2-3.4,4.9s1.5,4.9,3.4,4.9C-8.7,36.1-7.2,33.9-7.2,31.3z"
				/>
			<path fill="#AF8376" d="M3.7,34.1c0-2.5-1.8-4.5-4.1-4.5c-2.2,0-4.1,2-4.1,4.5c0,2.5,1.8,4.5,4.1,4.5C1.9,38.6,3.7,36.6,3.7,34.1
				z"/>
			<path fill="#AF8376" d="M-3.5,35.2c0-2.7-1.4-4.9-3.1-4.9s-3.1,2.2-3.1,4.9c0,2.7,1.4,4.9,3.1,4.9S-3.5,37.9-3.5,35.2z"/>
		</g>
		<g>
			<polygon fill="#DCA886" points="-9.5,-65.8 -9.5,-62.1 -5.3,-58.3 -4.5,-56.4 -6.8,-52.4 -12.2,-51.9 -17.3,-50.8 -22.6,-52.4 
				-27,-55 -32.2,-56 -32.4,-60.8 -31.7,-65.4 -27.1,-67.7 -25.7,-68.3 -16.5,-67.1 			"/>
			<polygon fill="#B0764C" points="-4,-57.3 -4.5,-56.4 -5.3,-58.3 -9.5,-62.1 -9.5,-65.8 -16.5,-67.1 -25.7,-68.3 -22.4,-69.7 
				-17.3,-69.5 -12.2,-68.2 -6.5,-69.2 -3.5,-64.5 -1.7,-60.8 			"/>
		</g>
		<g>
			<polygon fill="#DCA886" points="12.7,-64.9 11,-63.1 9.8,-59.2 6.4,-57.9 2.9,-58.2 -0.8,-58.5 -3.6,-60.9 -7.6,-61.2 
				-6.6,-64.8 -7.4,-68.4 -3.1,-68.5 -0.4,-71.1 2.9,-70.4 6.3,-70.7 10.1,-70.3 12.4,-67.3 			"/>
		</g>
	</g>
</symbol>
<g>
	<g>
		<path d="M27.4,15.3c0,0.1,0,0.2-0.1,0.3c0,0.1-0.1,0.2-0.2,0.3c-0.1,0.1-0.1,0.2-0.2,0.3s-0.2,0.2-0.3,0.2
			c-0.2,0.1-0.4,0.1-0.5,0.2c-0.2,0-0.4,0.1-0.6,0.1c-0.6,0.1-1.3,0.2-1.9,0.2c-0.6,0-1.2,0.1-1.7,0.1c-0.5,0-1,0-1.5,0
			s-0.8,0-1.1,0l-1.5-0.1c-0.2,0-0.4,0-0.6,0c-0.2,0-0.4,0-0.5,0c0,0.2-0.1,0.5-0.1,0.8s-0.1,0.6-0.1,0.9c0,0.3-0.1,0.6-0.1,0.9
			c0,0.3-0.1,0.5-0.1,0.7c0.2,0,0.4,0.1,0.6,0.1c0.2,0,0.5,0,0.7,0c0.3,0,0.7,0,1,0c0.3,0,0.6,0,0.8,0c0.1,0,0.3,0,0.5,0
			c0.2,0,0.5,0,0.7,0s0.5,0,0.8,0c0.3,0,0.4,0,0.6-0.1c0.1-0.1,0.3-0.1,0.4-0.1c0.1,0,0.2-0.1,0.4-0.1s0.2,0,0.4,0s0.2,0,0.4,0
			c0.2,0,0.3,0.1,0.5,0.1c0.1,0.1,0.2,0.2,0.3,0.3c0.1,0.1,0.1,0.3,0.1,0.4c0,0.1,0,0.3,0,0.5c0,0.2-0.1,0.4-0.2,0.5
			c-0.1,0.1-0.3,0.2-0.4,0.3c-0.2,0.1-0.3,0.1-0.5,0.2s-0.3,0.1-0.5,0.1c-0.1,0-0.3,0-0.6,0s-0.6,0-1,0s-0.8,0-1.2,0
			c-0.4,0-0.8,0-1.2,0c-0.4,0-0.7,0-1,0c-0.3,0-0.5,0-0.7,0c-0.2,0-0.4,0-0.6,0c-0.2,0-0.4,0.1-0.6,0.1c-0.1,0.3-0.2,0.6-0.2,1
			c-0.1,0.4-0.2,0.7-0.3,1.1c0,0.2-0.1,0.3-0.1,0.5c0,0.2-0.1,0.3-0.1,0.5s-0.1,0.3-0.1,0.4c0,0.1,0,0.2-0.1,0.3c0.1,0,0.3,0,0.5,0
			c0.2,0,0.4,0,0.6,0c0.2,0,0.4,0,0.6,0c0.2,0,0.4,0,0.6,0c0.5,0,0.9,0,1.2,0c0.3,0,0.7,0,0.9,0c0.3,0,0.5,0,0.8,0
			c0.2,0,0.5,0,0.8-0.1c0.1,0,0.3,0,0.5,0c0.2,0,0.4,0,0.6,0s0.4,0,0.6,0c0.2,0,0.4,0,0.6-0.1c0.1,0,0.2,0,0.3-0.1
			c0.1,0,0.2-0.1,0.3-0.1s0.2-0.1,0.4-0.1c0.1,0,0.2,0,0.4,0c0.1,0,0.3,0,0.4,0.1c0.1,0.1,0.2,0.2,0.3,0.3c0.1,0.1,0.2,0.2,0.2,0.4
			s0.1,0.3,0.1,0.5c0,0.1,0,0.1-0.1,0.2c-0.1,0.1-0.2,0.2-0.3,0.3c-0.1,0.1-0.3,0.2-0.4,0.3c-0.2,0.1-0.3,0.1-0.5,0.2
			c-0.6,0.1-1.2,0.1-1.8,0.2c-0.6,0-1.3,0.1-2,0.1c-0.5,0-1.1,0.1-1.6,0.1c-0.5,0-1,0.1-1.5,0.1c-0.5,0-0.9,0.1-1.2,0.1
			c-0.3,0-0.6,0-0.8,0.1c-0.2,0-0.3,0-0.5,0.1s-0.4,0.1-0.5,0.1s-0.4,0.1-0.5,0.1c-0.2,0-0.3,0-0.4,0l0,0c-0.2,0-0.5-0.1-0.6-0.1
			c-0.2-0.1-0.3-0.2-0.4-0.3c-0.1-0.1-0.2-0.3-0.3-0.6c-0.1-0.2-0.1-0.5-0.1-0.9c0-0.3,0.1-0.6,0.2-0.9c0.1-0.3,0.2-0.7,0.3-1.2
			c0.1-0.5,0.2-0.9,0.3-1.2c0.1-0.4,0.2-0.7,0.3-1.1c0.1-0.4,0.2-0.7,0.3-1.1c0.1-0.4,0.2-0.7,0.2-1.1c0,0,0-0.2,0-0.3
			s0-0.4,0.1-0.6c0-0.2,0.1-0.5,0.1-0.8c0-0.3,0.1-0.5,0.1-0.8c0-0.2,0.1-0.5,0.1-0.6c0-0.2,0-0.3,0-0.3c0,0,0-0.1,0-0.2
			s0-0.2,0-0.2c0-0.2,0-0.3,0.1-0.5s0.2-0.4,0.3-0.5c0.1-0.1,0.2-0.2,0.3-0.3c0.2-0.1,0.3-0.2,0.5-0.3c0.2-0.1,0.4-0.1,0.5-0.2
			c0.2,0,0.3-0.1,0.5-0.1c0.1,0,0.2,0,0.4,0.1c0.2,0,0.3,0.1,0.5,0.1c0.2,0,0.3,0.1,0.5,0.1c0.2,0,0.3,0.1,0.3,0.1
			c0.2,0,0.4,0,0.6,0c0.3,0,0.6,0,0.9,0.1c0.6,0,1.2,0,1.8,0c0.6,0,1.2,0,1.9-0.1c0.3,0,0.5-0.1,0.8-0.1c0.2-0.1,0.5-0.1,0.7-0.2
			c0.2-0.1,0.5-0.1,0.7-0.1s0.5,0,0.8,0c0.1,0,0.3,0,0.4,0.1c0.1,0.1,0.2,0.1,0.3,0.2s0.2,0.2,0.2,0.3
			C27.4,15.1,27.4,15.2,27.4,15.3z"/>
		<path d="M39.8,21.1c0,0.1,0,0.1-0.1,0.2c0,0.1-0.1,0.2-0.1,0.3c-0.1,0.1-0.1,0.2-0.2,0.2c-0.1,0.1-0.2,0.1-0.3,0.1
			c0,0-0.1,0-0.2,0c-0.1,0-0.2,0-0.3,0s-0.2,0-0.3,0c-0.1,0-0.2,0-0.2,0c-1.1,0-2.2,0.3-3,1c-0.2,0.2-0.4,0.3-0.6,0.5
			c-0.2,0.2-0.4,0.4-0.6,0.7c-0.2,0.3-0.4,0.5-0.6,0.8s-0.4,0.6-0.5,0.9c-0.1,0.3-0.3,0.5-0.4,0.8s-0.2,0.6-0.3,0.9
			c-0.1,0.2-0.1,0.3-0.1,0.4c0,0.1-0.1,0.3-0.1,0.4c0,0.1-0.1,0.2-0.2,0.3c-0.1,0.1-0.2,0.1-0.3,0.2c-0.1,0-0.2,0.1-0.3,0.1
			c-0.1,0-0.2,0-0.4,0c-0.4,0-0.7-0.2-0.9-0.6c-0.1-0.4-0.2-1-0.2-1.7c0-0.2,0-0.3,0-0.5c0-0.2,0-0.3,0-0.5c0-0.2,0-0.3,0.1-0.5
			c0-0.2,0-0.4,0.1-0.6c0-0.3,0.1-0.7,0.2-1.1c0.1-0.4,0.1-0.8,0.2-1.3c0.1-0.4,0.2-0.9,0.2-1.3c0.1-0.4,0.2-0.7,0.3-1
			c0.1-0.3,0.3-0.6,0.5-0.8C31.3,19,31.6,19,32,19c0.1,0,0.2,0,0.3,0.1s0.2,0.1,0.3,0.2c0.1,0.1,0.2,0.2,0.2,0.3
			c0.1,0.1,0.1,0.2,0.1,0.3l0,0.2c0,0.2,0,0.4-0.1,0.6c0,0.2-0.1,0.5-0.2,0.8c-0.1,0.3-0.1,0.6-0.2,0.8c-0.1,0.3-0.2,0.6-0.2,0.8
			c-0.1,0.3-0.1,0.5-0.2,0.7c-0.1,0.2-0.1,0.4-0.1,0.5c0.3-0.5,0.5-0.9,0.8-1.4c0.3-0.4,0.6-0.8,0.9-1.2s0.7-0.7,1.1-1
			c0.4-0.3,0.8-0.5,1.2-0.7c0.3-0.1,0.6-0.2,0.9-0.3s0.5-0.1,0.7-0.1c0.3,0,0.5,0.1,0.8,0.1s0.5,0.2,0.7,0.3
			c0.2,0.1,0.4,0.2,0.5,0.4C39.8,20.7,39.8,20.9,39.8,21.1z"/>
		<path d="M52,26.7c0.1,0,0.2,0,0.3,0.1s0.1,0.1,0.2,0.1c0,0.1,0.1,0.1,0.1,0.2c0,0.1,0,0.1,0,0.2c0,0.2-0.1,0.4-0.3,0.6
			c-0.2,0.2-0.4,0.4-0.8,0.6s-0.7,0.4-1.1,0.5c-0.4,0.1-0.8,0.2-1.2,0.2c-0.1,0-0.2,0-0.4-0.1c-0.2,0-0.4-0.1-0.7-0.2
			s-0.5-0.1-0.8-0.2s-0.6-0.1-0.8-0.2s-0.5-0.1-0.7-0.2c-0.2,0-0.4-0.1-0.5-0.1c-0.2,0-0.4,0-0.5,0s-0.3,0-0.5,0.1
			c-0.1,0-0.3,0.1-0.4,0.2s-0.3,0.2-0.4,0.3c-0.1,0.1-0.2,0.1-0.3,0.2c-0.1,0.1-0.2,0.1-0.3,0.1c-0.1,0-0.2,0.1-0.3,0.1
			c-0.1,0-0.3,0-0.4,0c-0.2,0-0.3-0.1-0.4-0.1c-0.1-0.1-0.2-0.2-0.2-0.3c-0.1-0.1-0.1-0.3-0.1-0.4c0-0.1,0-0.3,0-0.4
			c0.4-0.5,0.8-0.9,1.2-1.2c0.4-0.4,0.8-0.7,1.2-1c0.4-0.3,0.8-0.6,1.1-1c0.4-0.3,0.8-0.7,1.2-1c0.2-0.2,0.5-0.4,0.7-0.6
			c0.3-0.2,0.5-0.4,0.8-0.7c0.2-0.2,0.5-0.4,0.7-0.7c0.2-0.2,0.4-0.4,0.5-0.6c-0.1,0-0.3,0-0.4,0c-0.2,0-0.4,0-0.5,0s-0.4,0-0.5,0
			c-0.2,0-0.3,0-0.3,0c-0.1,0-0.2,0-0.4,0.1c-0.2,0-0.4,0.1-0.6,0.1c-0.2,0-0.4,0.1-0.6,0.1c-0.2,0-0.4,0-0.5,0
			c-0.9,0-1.5-0.2-1.9-0.4c-0.4-0.2-0.6-0.6-0.5-1c0-0.1,0-0.3,0.1-0.4c0.1-0.1,0.2-0.2,0.3-0.3c0.1-0.1,0.2-0.1,0.4-0.1
			c0.1,0,0.3,0,0.4,0c0.2,0,0.4,0,0.5,0.1c0.2,0,0.3,0.1,0.4,0.1c0.1,0,0.3,0.1,0.4,0.1c0.1,0,0.3,0,0.4,0c0.1,0,0.3,0,0.5,0
			c0.2,0,0.5,0,0.8,0c0.3,0,0.6,0,1,0c0.3,0,0.7,0,1,0c0.3,0,0.6,0,0.8,0c0.2,0,0.4,0,0.5,0c0.1,0,0.3,0,0.5,0.1
			c0.2,0,0.3,0.1,0.5,0.2s0.3,0.2,0.3,0.3s0.1,0.3,0.1,0.5l0,0.1c-0.2,0.3-0.4,0.6-0.6,0.9s-0.4,0.5-0.6,0.7
			c-0.2,0.2-0.4,0.4-0.6,0.7c-0.2,0.2-0.5,0.4-0.7,0.7c-0.3,0.3-0.6,0.6-1,0.8s-0.7,0.6-1,0.8s-0.6,0.5-0.9,0.8
			c-0.3,0.3-0.5,0.5-0.7,0.7c0.1,0,0.2,0,0.3,0c0.1,0,0.2,0,0.3,0c0.1,0,0.2,0,0.3,0c0.1,0,0.2,0,0.2,0c0.2,0,0.5,0,0.7,0.1
			c0.2,0,0.4,0.1,0.7,0.1c0.2,0,0.4,0.1,0.6,0.1c0.2,0.1,0.4,0.1,0.6,0.2c0.2,0.1,0.4,0.1,0.7,0.2s0.5,0.1,0.7,0.1
			c0.2,0,0.4,0,0.6-0.1s0.4-0.2,0.5-0.3c0.1-0.1,0.3-0.1,0.4-0.2S51.8,26.7,52,26.7z"/>
		<path d="M67.1,22.7c0,0.2-0.1,0.3-0.2,0.6c-0.1,0.2-0.3,0.5-0.5,0.8c-0.2,0.3-0.5,0.6-0.8,0.9c-0.3,0.3-0.6,0.6-1,0.9
			c-0.4,0.4-0.8,0.7-1.2,1c-0.4,0.3-0.9,0.7-1.4,1c-0.5,0.3-1,0.5-1.4,0.7c-0.5,0.2-0.9,0.2-1.3,0.2c-0.5,0-0.9-0.1-1.2-0.3
			c-0.3-0.2-0.6-0.4-0.9-0.7c-0.2-0.3-0.4-0.6-0.6-0.9c-0.1-0.4-0.2-0.7-0.3-1.1c-0.1-0.4-0.1-0.8-0.1-1.2c0-0.4,0-0.8,0-1.1
			c0-0.1,0-0.3,0.1-0.6c0-0.3,0.1-0.6,0.1-0.9c0.1-0.3,0.1-0.6,0.2-0.9c0.1-0.3,0.1-0.5,0.2-0.7c0.1-0.3,0.4-0.6,0.8-0.9
			c0.4-0.3,0.8-0.4,1.2-0.4c0.4,0,0.7,0.3,0.6,0.8c0,0.2,0,0.5-0.1,0.8s-0.1,0.5-0.2,0.8c-0.1,0.5-0.2,0.9-0.3,1.3
			c-0.1,0.4-0.1,0.7-0.1,1c0,0.3,0,0.7,0,1c0,0.3,0.1,0.6,0.1,0.8c0.1,0.3,0.2,0.5,0.3,0.6c0.1,0.2,0.2,0.2,0.4,0.2
			c0.2,0,0.4,0,0.6,0c0.2,0,0.5-0.1,0.8-0.2c0.6-0.3,1.3-0.7,1.9-1.2c0.2-0.2,0.5-0.4,0.8-0.6c0.3-0.2,0.6-0.5,0.9-0.7
			c0.3-0.3,0.6-0.5,0.9-0.7c0.3-0.2,0.5-0.5,0.6-0.6c0,0,0.1-0.1,0.1-0.1s0.1-0.1,0.1-0.1c0.1,0,0.1-0.1,0.2-0.1c0.1,0,0.1,0,0.2,0
			c0.1,0,0.2,0,0.2,0.1c0,0,0.1,0.1,0.2,0.3C67.1,22.4,67.1,22.6,67.1,22.7z M61.2,14.3c0,0.2-0.1,0.4-0.1,0.6
			c-0.1,0.2-0.2,0.4-0.3,0.5c-0.3,0.3-0.7,0.5-1.2,0.5c-0.2,0-0.4,0-0.6-0.1c-0.2,0-0.4-0.1-0.5-0.2c-0.2-0.1-0.3-0.1-0.4-0.2
			c-0.1-0.1-0.1-0.2-0.1-0.3c0-0.2,0.1-0.4,0.2-0.6c0.1-0.2,0.3-0.4,0.5-0.6c0.2-0.2,0.4-0.3,0.6-0.5c0.2-0.1,0.4-0.2,0.6-0.2
			c0.2,0,0.4,0,0.6,0.1c0.2,0,0.3,0.1,0.5,0.2c0.1,0.1,0.2,0.2,0.3,0.3S61.2,14.1,61.2,14.3z"/>
		<path d="M79.9,22.2c0,0.1-0.1,0.3-0.3,0.6c-0.4,0.5-0.8,0.9-1.3,1.4c-0.5,0.5-0.9,0.9-1.5,1.3c-0.5,0.4-1,0.8-1.6,1.1
			c-0.6,0.3-1.1,0.6-1.7,0.9c-0.6,0.2-1.1,0.4-1.7,0.5c-0.6,0.1-1.1,0.2-1.6,0.1c-1.2-0.1-2.1-0.4-2.7-1.1c-0.6-0.7-0.9-1.6-0.8-2.9
			c0-0.5,0.1-1,0.2-1.5s0.3-1,0.5-1.4s0.5-0.9,0.8-1.4c0.3-0.5,0.7-0.9,1.1-1.3c0.2-0.2,0.3-0.3,0.6-0.4c0.2-0.1,0.4-0.3,0.7-0.4
			s0.5-0.2,0.7-0.2c0.3-0.1,0.5-0.1,0.7-0.1c0.4,0,0.7,0.1,0.9,0.2s0.5,0.3,0.6,0.6c0.2,0.2,0.3,0.5,0.3,0.8C74,19.4,74,19.7,74,20
			c0,0.6-0.3,1.2-0.8,1.8c-0.5,0.6-1.1,1.2-2,1.8c-0.3,0.2-0.6,0.4-0.9,0.6c-0.4,0.2-0.8,0.5-1.2,0.8c0,0.2,0,0.3,0.1,0.5
			s0.2,0.3,0.3,0.4s0.3,0.2,0.5,0.3c0.2,0.1,0.4,0.1,0.7,0.1c0.3,0,0.7,0,1.1-0.1c0.4-0.1,0.8-0.2,1.1-0.3c0.4-0.1,0.7-0.3,1.1-0.4
			c0.4-0.2,0.7-0.3,1-0.5c0.5-0.3,1-0.7,1.5-1c0.5-0.4,1-0.8,1.4-1.2l0.6-0.5c0.4-0.3,0.7-0.4,1-0.4c0.1,0,0.2,0.1,0.3,0.1
			C79.9,22.1,79.9,22.2,79.9,22.2z M72,20c0-0.1,0-0.3,0-0.4s-0.1-0.2-0.1-0.3c-0.2,0-0.5,0.1-0.8,0.2c-0.3,0.2-0.5,0.4-0.8,0.8
			c-0.3,0.3-0.5,0.8-0.7,1.2c-0.2,0.5-0.4,1-0.5,1.6c0.3-0.2,0.7-0.4,1-0.7s0.6-0.5,0.9-0.7c0.3-0.3,0.5-0.5,0.7-0.8
			C71.9,20.7,72,20.4,72,20z"/>
		<path d="M97.9,22.7c0,0.1,0,0.2-0.1,0.3c-0.1,0.1-0.2,0.3-0.3,0.4c-0.1,0.1-0.2,0.2-0.3,0.3c-0.1,0.1-0.2,0.3-0.4,0.4
			s-0.3,0.3-0.4,0.4c-0.1,0.1-0.2,0.2-0.4,0.3c-0.4,0.4-0.8,0.7-1.3,1c-0.5,0.3-0.9,0.6-1.4,0.9c-0.5,0.3-1,0.4-1.5,0.6
			c-0.5,0.1-1.1,0.2-1.6,0.2c-0.5,0-0.9-0.1-1.2-0.3c-0.3-0.2-0.6-0.5-0.8-0.8c-0.1-0.1-0.1-0.3-0.2-0.6c-0.1-0.3-0.1-0.5-0.2-0.8
			c0-0.3-0.1-0.6-0.1-0.9c0-0.3,0-0.5,0-0.7c0-0.1,0-0.3,0-0.4s0-0.3,0-0.4s0-0.3-0.1-0.4c0-0.1-0.1-0.1-0.1-0.2c-0.1,0-0.1,0-0.2,0
			c-0.1,0.1-0.3,0.2-0.6,0.4c-0.3,0.2-0.6,0.5-1,0.9c-0.4,0.4-0.8,0.8-1.2,1.2c-0.4,0.5-0.8,0.9-1.2,1.5c-0.1,0.2-0.3,0.4-0.5,0.6
			c-0.2,0.2-0.3,0.5-0.5,0.7c-0.2,0.2-0.3,0.5-0.4,0.7c-0.1,0.2-0.3,0.4-0.4,0.6c-0.1,0.1-0.2,0.2-0.3,0.3s-0.2,0.1-0.3,0.2
			s-0.2,0.1-0.3,0.1s-0.1,0-0.2,0c-0.2,0-0.3,0-0.4-0.1s-0.2-0.2-0.3-0.3c-0.1-0.1-0.2-0.2-0.2-0.4c-0.1-0.1-0.1-0.3-0.1-0.4
			c0-0.1,0-0.2,0.1-0.4c0-0.2,0.1-0.4,0.1-0.6c0-0.2,0.1-0.5,0.2-0.7c0.1-0.3,0.1-0.5,0.1-0.7c0.1-0.4,0.2-0.9,0.2-1.4
			s0.2-1,0.2-1.5c0.1-0.5,0.2-1,0.2-1.5c0.1-0.5,0.1-0.9,0.2-1.3c0-0.1,0-0.3,0.1-0.5s0.1-0.4,0.1-0.7s0.1-0.5,0.1-0.8
			c0-0.3,0.1-0.5,0.1-0.8c0-0.3,0.1-0.5,0.1-0.7s0-0.4,0.1-0.6c0-0.2,0-0.4,0.1-0.5s0.1-0.3,0.1-0.5s0.1-0.3,0.2-0.5
			s0.2-0.3,0.3-0.5c0-0.1,0.1-0.1,0.2-0.2c0.1-0.1,0.2-0.2,0.3-0.2s0.2-0.1,0.4-0.2s0.3-0.1,0.4-0.1c0.3,0,0.5,0.1,0.7,0.3
			c0.2,0.2,0.3,0.5,0.3,0.8c0,0.1,0,0.2-0.1,0.4c0,0.2-0.1,0.3-0.1,0.5s-0.1,0.3-0.1,0.4s0,0.2,0,0.2c0,0.1-0.1,0.3-0.1,0.5
			c0,0.2-0.1,0.5-0.2,0.8c-0.1,0.3-0.1,0.7-0.2,1.1c-0.1,0.4-0.1,0.8-0.2,1.2s-0.1,0.8-0.2,1.1c-0.1,0.4-0.1,0.7-0.2,1
			c-0.1,0.3-0.1,0.5-0.1,0.7c0,0.2,0,0.3-0.1,0.3c0,0.1-0.1,0.3-0.1,0.6s-0.1,0.5-0.1,0.7c-0.1,0.3-0.1,0.5-0.1,0.7
			c0,0.2-0.1,0.4-0.1,0.5c0.1-0.1,0.2-0.2,0.3-0.3c0.1-0.1,0.2-0.3,0.3-0.4c0.1-0.1,0.2-0.3,0.3-0.4c0.1-0.1,0.2-0.2,0.2-0.3
			c0.1-0.2,0.3-0.3,0.4-0.5c0.2-0.2,0.3-0.4,0.5-0.6c0.2-0.2,0.4-0.4,0.5-0.6c0.2-0.2,0.4-0.4,0.5-0.5c0.2-0.2,0.5-0.4,0.8-0.6
			c0.3-0.2,0.6-0.4,0.9-0.6c0.3-0.2,0.6-0.3,0.9-0.4c0.3-0.1,0.6-0.1,0.9-0.1c0.1,0,0.2,0,0.3,0.1c0.1,0,0.2,0.1,0.3,0.2
			c0.1,0.1,0.2,0.2,0.3,0.2s0.2,0.2,0.2,0.3c0.1,0.2,0.1,0.5,0.2,0.9c0,0.3,0.1,0.7,0.1,1.1s0.1,0.7,0.1,1.1c0,0.4,0.1,0.7,0.1,1
			c0.1,0.3,0.1,0.5,0.2,0.7s0.2,0.3,0.3,0.3c0.2,0,0.4,0,0.5,0s0.3,0,0.5,0c0.2,0,0.3-0.1,0.5-0.1c0.2,0,0.3-0.1,0.5-0.2
			c0.4-0.2,0.7-0.3,1-0.5c0.3-0.1,0.5-0.3,0.8-0.5c0.3-0.2,0.5-0.3,0.8-0.5c0.3-0.2,0.6-0.4,0.9-0.7c0.4-0.3,0.7-0.5,0.9-0.7
			s0.5-0.3,0.6-0.3c0.1,0,0.1,0,0.2,0.1c0,0,0.1,0.1,0.1,0.1s0,0.1,0,0.2S97.9,22.7,97.9,22.7z"/>
		<path d="M116,21.3c0,0.4-0.2,0.8-0.5,1.2c-0.3,0.4-0.7,0.9-1.1,1.3c-0.5,0.4-1,0.8-1.5,1.2c-0.6,0.4-1.1,0.7-1.7,1
			c-0.6,0.3-1.1,0.5-1.6,0.7s-0.9,0.2-1.2,0.2c-0.4,0-0.8-0.1-1.1-0.3s-0.5-0.4-0.7-0.8c-0.2-0.3-0.3-0.7-0.4-1S106,24,106,23.6
			c-0.1,0.2-0.3,0.5-0.4,0.7c-0.2,0.3-0.4,0.5-0.6,0.8c-0.2,0.3-0.4,0.5-0.6,0.7s-0.4,0.4-0.6,0.6c-0.3,0.2-0.5,0.5-0.8,0.7
			s-0.6,0.4-1,0.5c-0.3,0.2-0.7,0.3-1.1,0.4c-0.4,0.1-0.8,0.1-1.1,0.1c-0.3,0-0.6-0.1-0.9-0.2c-0.2-0.1-0.5-0.3-0.6-0.6
			c-0.2-0.2-0.3-0.5-0.3-0.8s-0.1-0.6-0.1-0.8c0-0.2,0-0.5,0.1-0.8c0.1-0.3,0.1-0.5,0.2-0.8c0.1-0.3,0.1-0.5,0.2-0.8
			c0.1-0.3,0.1-0.5,0.1-0.8c0-0.2,0-0.4,0.1-0.6c0-0.2,0-0.4,0.1-0.7s0.1-0.4,0.1-0.7c0-0.2,0.1-0.4,0.1-0.6c0-0.1,0.1-0.3,0.1-0.4
			c0.1-0.1,0.1-0.2,0.2-0.3c0.1-0.1,0.2-0.2,0.4-0.2c0.1,0,0.3-0.1,0.5-0.1c0.4,0,0.7,0.2,0.9,0.4s0.2,0.6,0.2,1.1
			c0,0.2,0,0.3-0.1,0.5c0,0.2-0.1,0.4-0.1,0.6c0,0.2-0.1,0.4-0.2,0.6c-0.1,0.2-0.1,0.4-0.2,0.6c-0.1,0.4-0.3,0.9-0.4,1.3
			s-0.2,0.8-0.2,1.1c0,0.2,0,0.4,0.1,0.5s0.2,0.2,0.3,0.2c0.3,0,0.6-0.1,0.9-0.2c0.3-0.2,0.6-0.4,1-0.6c0.3-0.2,0.6-0.5,0.9-0.8
			c0.3-0.3,0.5-0.6,0.7-0.8c0.2-0.2,0.4-0.5,0.6-0.8c0.2-0.3,0.4-0.7,0.6-1.1c0.2-0.4,0.4-0.7,0.6-1.1s0.3-0.7,0.5-1
			c0.2-0.4,0.4-0.7,0.7-0.9c0.2-0.2,0.5-0.3,0.7-0.3c0.3,0,0.4,0.1,0.6,0.2c0.1,0.1,0.2,0.3,0.2,0.6c0,0.1,0,0.3-0.1,0.5
			c0,0.2-0.1,0.4-0.1,0.7c0,0.2-0.1,0.5-0.1,0.7c0,0.2-0.1,0.4-0.1,0.5c0,0.1,0,0.2,0,0.4c0,0.2,0,0.3,0,0.5s0,0.3,0,0.5
			c0,0.2,0,0.3,0,0.4c0,0.1,0.1,0.3,0.1,0.4c0.1,0.2,0.1,0.4,0.2,0.5s0.2,0.3,0.3,0.4s0.2,0.2,0.3,0.2c0.4,0,0.7,0,1.1-0.2
			c0.4-0.2,0.8-0.4,1.3-0.6c0.4-0.3,0.9-0.6,1.3-0.9c0.4-0.3,0.9-0.7,1.3-1c0.2-0.1,0.3-0.3,0.5-0.4c0.2-0.1,0.3-0.3,0.5-0.4
			c0.2-0.1,0.3-0.2,0.4-0.3c0.1-0.1,0.2-0.1,0.3-0.1c0.1,0,0.2,0,0.3,0.1C115.9,21.2,116,21.3,116,21.3z"/>
		<path d="M132.9,22.1c0,0.1,0,0.3-0.1,0.4c-0.1,0.1-0.1,0.3-0.2,0.4c-0.1,0.1-0.2,0.3-0.3,0.4c-0.1,0.1-0.2,0.2-0.3,0.3
			c-0.2,0.3-0.5,0.5-0.8,0.8c-0.3,0.3-0.6,0.6-0.9,0.8c-0.3,0.3-0.6,0.5-0.9,0.8s-0.6,0.5-1,0.6c-0.2,0.1-0.5,0.3-0.7,0.4
			c-0.2,0.1-0.5,0.2-0.7,0.3c-0.2,0.1-0.5,0.2-0.8,0.2c-0.3,0-0.6,0.1-0.9,0c-0.5,0-0.9-0.1-1.3-0.4c-0.3-0.2-0.6-0.5-0.8-0.8
			s-0.3-0.7-0.4-1.2c-0.1-0.4-0.2-0.9-0.2-1.3c-0.1-0.6-0.1-1.1-0.2-1.5c-0.1-0.4-0.2-0.6-0.4-0.6c-0.1,0-0.3,0-0.4,0.1
			c-0.1,0.1-0.3,0.2-0.5,0.4c-0.2,0.2-0.5,0.5-0.8,0.9s-0.7,0.9-1.2,1.5c-0.2,0.2-0.4,0.5-0.6,0.7s-0.5,0.5-0.8,0.8
			c-0.3,0.2-0.5,0.4-0.8,0.6c-0.3,0.2-0.5,0.3-0.7,0.4c-0.9-0.2-1.2-1-1.2-2.4c0-0.4,0.1-0.9,0.2-1.6c0.1-0.3,0.1-0.6,0.2-1
			c0.1-0.3,0.2-0.7,0.2-1s0.2-0.7,0.3-1c0.1-0.3,0.3-0.6,0.4-0.9c0.1-0.2,0.2-0.3,0.3-0.4s0.2-0.1,0.3-0.2c0.1,0,0.2-0.1,0.3-0.1
			c0.1,0,0.2,0,0.3,0c0.1,0,0.2,0,0.3,0.1c0.1,0.1,0.2,0.1,0.2,0.2s0.1,0.2,0.2,0.3c0,0.1,0.1,0.3,0,0.5c0,0.2,0,0.3-0.1,0.4
			s-0.1,0.3-0.1,0.4s-0.1,0.3-0.2,0.5s-0.1,0.3-0.2,0.6c0,0.1-0.1,0.3-0.2,0.5c-0.1,0.2-0.2,0.4-0.2,0.7s-0.1,0.5-0.2,0.7
			s-0.1,0.4-0.1,0.6c0.1-0.1,0.3-0.3,0.5-0.5c0.2-0.2,0.4-0.4,0.5-0.6c0.2-0.2,0.4-0.5,0.6-0.7c0.2-0.2,0.4-0.5,0.6-0.7
			c0.3-0.3,0.5-0.5,0.7-0.8c0.2-0.2,0.5-0.5,0.8-0.6s0.6-0.3,0.9-0.4s0.6-0.1,1-0.1c0.4,0,0.8,0.1,1.1,0.3c0.3,0.2,0.5,0.4,0.6,0.8
			c0.2,0.3,0.3,0.7,0.3,1.1c0.1,0.4,0.1,0.9,0.1,1.4c0,0.3,0,0.5,0.1,0.8c0,0.3,0.1,0.5,0.2,0.7c0.1,0.2,0.2,0.4,0.3,0.6
			s0.3,0.2,0.5,0.2c0.3,0,0.7,0,1-0.2c0.4-0.1,0.8-0.3,1.2-0.6c0.4-0.3,0.9-0.6,1.3-0.9c0.5-0.4,0.9-0.7,1.4-1.1
			c0.1-0.1,0.3-0.3,0.4-0.4c0.1-0.1,0.3-0.2,0.4-0.3c0.1-0.1,0.2-0.2,0.4-0.2s0.2-0.1,0.3-0.1c0,0,0.1,0,0.1,0s0.1,0,0.2,0.1
			s0.1,0.1,0.1,0.1C132.9,22,132.9,22,132.9,22.1z"/>
		<path d="M140.4,21.3c-0.1,0.4-0.1,0.9-0.2,1.4c-0.1,0.5-0.1,1.1-0.2,1.7c0,0.2-0.1,0.5-0.1,0.8s-0.1,0.6-0.2,0.9s-0.1,0.6-0.2,0.9
			c-0.1,0.3-0.1,0.6-0.2,0.8c-0.1,0.4-0.2,0.8-0.3,1.2c-0.1,0.4-0.3,0.8-0.4,1.2s-0.4,0.8-0.6,1.2c-0.2,0.4-0.5,0.7-0.8,1
			c-0.3,0.3-0.7,0.5-1.1,0.6c-0.4,0.1-0.9,0.2-1.4,0.2c-0.3,0-0.6-0.1-1-0.2c-0.3-0.1-0.6-0.2-0.9-0.3s-0.6-0.3-0.9-0.5
			c-0.3-0.2-0.5-0.4-0.8-0.6c-0.6-0.5-1-1-1.2-1.4c-0.1-0.1-0.1-0.3-0.2-0.4c0-0.1-0.1-0.2,0-0.3c0-0.1,0.1-0.3,0.2-0.4
			c0.1-0.1,0.2-0.1,0.4-0.1c0.1,0,0.1,0,0.2,0.1c0.1,0.1,0.2,0.1,0.3,0.2c0.1,0.1,0.2,0.1,0.2,0.2c0.1,0.1,0.1,0.1,0.1,0.1
			c0.6,0.6,1.2,1,1.8,1.3s1.3,0.5,1.9,0.5c0.4,0,0.7-0.1,1-0.3s0.5-0.5,0.7-0.9c0.2-0.4,0.3-0.8,0.5-1.2c0.1-0.4,0.2-0.8,0.3-1.2
			c0.1-0.4,0.2-0.8,0.2-1.3s0.1-0.9,0.2-1.4c-0.3,0.3-0.7,0.6-1.1,0.8c-0.4,0.3-0.8,0.5-1.2,0.7c-0.4,0.2-0.8,0.4-1.3,0.5
			c-0.4,0.1-0.9,0.2-1.3,0.1c-0.2,0-0.4-0.1-0.6-0.2c-0.2-0.1-0.4-0.2-0.5-0.4c-0.1-0.2-0.2-0.4-0.3-0.6s-0.1-0.5-0.1-0.8
			c0-0.4,0.1-0.8,0.3-1.2s0.4-0.8,0.6-1.3c0.2-0.4,0.5-0.8,0.8-1.2c0.3-0.4,0.6-0.7,0.8-1c0.3-0.3,0.6-0.6,1-0.9
			c0.4-0.3,0.8-0.6,1.2-0.9c0.4-0.3,0.9-0.5,1.3-0.6c0.5-0.2,0.9-0.2,1.3-0.2c0.2,0,0.5,0.1,0.7,0.1s0.5,0.2,0.7,0.3
			c0.2,0.1,0.4,0.3,0.5,0.5c0.1,0.2,0.2,0.4,0.2,0.7c0,0.1,0,0.2,0,0.3c0,0.1,0,0.3-0.1,0.4s0,0.3-0.1,0.4
			C140.4,21.1,140.4,21.2,140.4,21.3L140.4,21.3z M138,22.9c0-0.2,0.1-0.4,0.1-0.7c0-0.3,0.1-0.6,0.2-1c0-0.2,0-0.4,0.1-0.5
			s0-0.2,0-0.3c0-0.1,0-0.2,0-0.3c0-0.1-0.1-0.1-0.1-0.2c-0.1,0-0.2-0.1-0.4-0.1c-0.3,0.2-0.6,0.4-1,0.7s-0.6,0.5-0.9,0.8
			c-0.3,0.3-0.6,0.6-0.8,1c-0.3,0.3-0.5,0.7-0.7,1c-0.2,0.3-0.4,0.7-0.5,1c-0.1,0.3-0.2,0.6-0.2,0.9c0,0.1,0,0.2,0.1,0.2
			s0.2,0.1,0.3,0.1c0.2,0,0.4,0,0.7-0.1c0.3-0.1,0.5-0.2,0.8-0.3c0.3-0.1,0.5-0.3,0.8-0.4c0.2-0.1,0.5-0.3,0.6-0.4
			c0.1,0,0.2-0.1,0.3-0.2c0.1-0.1,0.2-0.2,0.3-0.3s0.2-0.3,0.3-0.4C137.9,23.2,138,23,138,22.9z"/>
	</g>
	<g>
		<linearGradient id="SVGID_1_" gradientUnits="userSpaceOnUse" x1="76.3515" y1="33.3945" x2="76.3515" y2="13.2017">
			<stop  offset="0" style="stop-color:#FFFFFF"/>
			<stop  offset="0.5" style="stop-color:#7E5FA3"/>
			<stop  offset="1" style="stop-color:#6E589F"/>
		</linearGradient>
		<path fill="url(#SVGID_1_)" d="M27.4,15.3c0,0.1,0,0.2-0.1,0.3c0,0.1-0.1,0.2-0.2,0.3c-0.1,0.1-0.1,0.2-0.2,0.3s-0.2,0.2-0.3,0.2
			c-0.2,0.1-0.4,0.1-0.5,0.2c-0.2,0-0.4,0.1-0.6,0.1c-0.6,0.1-1.3,0.2-1.9,0.2c-0.6,0-1.2,0.1-1.7,0.1c-0.5,0-1,0-1.5,0
			s-0.8,0-1.1,0l-1.5-0.1c-0.2,0-0.4,0-0.6,0c-0.2,0-0.4,0-0.5,0c0,0.2-0.1,0.5-0.1,0.8s-0.1,0.6-0.1,0.9c0,0.3-0.1,0.6-0.1,0.9
			c0,0.3-0.1,0.5-0.1,0.7c0.2,0,0.4,0.1,0.6,0.1c0.2,0,0.5,0,0.7,0c0.3,0,0.7,0,1,0c0.3,0,0.6,0,0.8,0c0.1,0,0.3,0,0.5,0
			c0.2,0,0.5,0,0.7,0s0.5,0,0.8,0c0.3,0,0.4,0,0.6-0.1c0.1-0.1,0.3-0.1,0.4-0.1c0.1,0,0.2-0.1,0.4-0.1s0.2,0,0.4,0s0.2,0,0.4,0
			c0.2,0,0.3,0.1,0.5,0.1c0.1,0.1,0.2,0.2,0.3,0.3c0.1,0.1,0.1,0.3,0.1,0.4c0,0.1,0,0.3,0,0.5c0,0.2-0.1,0.4-0.2,0.5
			c-0.1,0.1-0.3,0.2-0.4,0.3c-0.2,0.1-0.3,0.1-0.5,0.2s-0.3,0.1-0.5,0.1c-0.1,0-0.3,0-0.6,0s-0.6,0-1,0s-0.8,0-1.2,0
			c-0.4,0-0.8,0-1.2,0c-0.4,0-0.7,0-1,0c-0.3,0-0.5,0-0.7,0c-0.2,0-0.4,0-0.6,0c-0.2,0-0.4,0.1-0.6,0.1c-0.1,0.3-0.2,0.6-0.2,1
			c-0.1,0.4-0.2,0.7-0.3,1.1c0,0.2-0.1,0.3-0.1,0.5c0,0.2-0.1,0.3-0.1,0.5s-0.1,0.3-0.1,0.4c0,0.1,0,0.2-0.1,0.3c0.1,0,0.3,0,0.5,0
			c0.2,0,0.4,0,0.6,0c0.2,0,0.4,0,0.6,0c0.2,0,0.4,0,0.6,0c0.5,0,0.9,0,1.2,0c0.3,0,0.7,0,0.9,0c0.3,0,0.5,0,0.8,0
			c0.2,0,0.5,0,0.8-0.1c0.1,0,0.3,0,0.5,0c0.2,0,0.4,0,0.6,0s0.4,0,0.6,0c0.2,0,0.4,0,0.6-0.1c0.1,0,0.2,0,0.3-0.1
			c0.1,0,0.2-0.1,0.3-0.1s0.2-0.1,0.4-0.1c0.1,0,0.2,0,0.4,0c0.1,0,0.3,0,0.4,0.1c0.1,0.1,0.2,0.2,0.3,0.3c0.1,0.1,0.2,0.2,0.2,0.4
			s0.1,0.3,0.1,0.5c0,0.1,0,0.1-0.1,0.2c-0.1,0.1-0.2,0.2-0.3,0.3c-0.1,0.1-0.3,0.2-0.4,0.3c-0.2,0.1-0.3,0.1-0.5,0.2
			c-0.6,0.1-1.2,0.1-1.8,0.2c-0.6,0-1.3,0.1-2,0.1c-0.5,0-1.1,0.1-1.6,0.1c-0.5,0-1,0.1-1.5,0.1c-0.5,0-0.9,0.1-1.2,0.1
			c-0.3,0-0.6,0-0.8,0.1c-0.2,0-0.3,0-0.5,0.1s-0.4,0.1-0.5,0.1s-0.4,0.1-0.5,0.1c-0.2,0-0.3,0-0.4,0l0,0c-0.2,0-0.5-0.1-0.6-0.1
			c-0.2-0.1-0.3-0.2-0.4-0.3c-0.1-0.1-0.2-0.3-0.3-0.6c-0.1-0.2-0.1-0.5-0.1-0.9c0-0.3,0.1-0.6,0.2-0.9c0.1-0.3,0.2-0.7,0.3-1.2
			c0.1-0.5,0.2-0.9,0.3-1.2c0.1-0.4,0.2-0.7,0.3-1.1c0.1-0.4,0.2-0.7,0.3-1.1c0.1-0.4,0.2-0.7,0.2-1.1c0,0,0-0.2,0-0.3
			s0-0.4,0.1-0.6c0-0.2,0.1-0.5,0.1-0.8c0-0.3,0.1-0.5,0.1-0.8c0-0.2,0.1-0.5,0.1-0.6c0-0.2,0-0.3,0-0.3c0,0,0-0.1,0-0.2
			s0-0.2,0-0.2c0-0.2,0-0.3,0.1-0.5s0.2-0.4,0.3-0.5c0.1-0.1,0.2-0.2,0.3-0.3c0.2-0.1,0.3-0.2,0.5-0.3c0.2-0.1,0.4-0.1,0.5-0.2
			c0.2,0,0.3-0.1,0.5-0.1c0.1,0,0.2,0,0.4,0.1c0.2,0,0.3,0.1,0.5,0.1c0.2,0,0.3,0.1,0.5,0.1c0.2,0,0.3,0.1,0.3,0.1
			c0.2,0,0.4,0,0.6,0c0.3,0,0.6,0,0.9,0.1c0.6,0,1.2,0,1.8,0c0.6,0,1.2,0,1.9-0.1c0.3,0,0.5-0.1,0.8-0.1c0.2-0.1,0.5-0.1,0.7-0.2
			c0.2-0.1,0.5-0.1,0.7-0.1s0.5,0,0.8,0c0.1,0,0.3,0,0.4,0.1c0.1,0.1,0.2,0.1,0.3,0.2s0.2,0.2,0.2,0.3
			C27.4,15.1,27.4,15.2,27.4,15.3z"/>
		<linearGradient id="SVGID_2_" gradientUnits="userSpaceOnUse" x1="76.3515" y1="33.3945" x2="76.3515" y2="13.2017">
			<stop  offset="0" style="stop-color:#FFFFFF"/>
			<stop  offset="0.5" style="stop-color:#7E5FA3"/>
			<stop  offset="1" style="stop-color:#6E589F"/>
		</linearGradient>
		<path fill="url(#SVGID_2_)" d="M39.8,21.1c0,0.1,0,0.1-0.1,0.2c0,0.1-0.1,0.2-0.1,0.3c-0.1,0.1-0.1,0.2-0.2,0.2
			c-0.1,0.1-0.2,0.1-0.3,0.1c0,0-0.1,0-0.2,0c-0.1,0-0.2,0-0.3,0s-0.2,0-0.3,0c-0.1,0-0.2,0-0.2,0c-1.1,0-2.2,0.3-3,1
			c-0.2,0.2-0.4,0.3-0.6,0.5c-0.2,0.2-0.4,0.4-0.6,0.7c-0.2,0.3-0.4,0.5-0.6,0.8s-0.4,0.6-0.5,0.9c-0.1,0.3-0.3,0.5-0.4,0.8
			s-0.2,0.6-0.3,0.9c-0.1,0.2-0.1,0.3-0.1,0.4c0,0.1-0.1,0.3-0.1,0.4c0,0.1-0.1,0.2-0.2,0.3c-0.1,0.1-0.2,0.1-0.3,0.2
			c-0.1,0-0.2,0.1-0.3,0.1c-0.1,0-0.2,0-0.4,0c-0.4,0-0.7-0.2-0.9-0.6c-0.1-0.4-0.2-1-0.2-1.7c0-0.2,0-0.3,0-0.5c0-0.2,0-0.3,0-0.5
			c0-0.2,0-0.3,0.1-0.5c0-0.2,0-0.4,0.1-0.6c0-0.3,0.1-0.7,0.2-1.1c0.1-0.4,0.1-0.8,0.2-1.3c0.1-0.4,0.2-0.9,0.2-1.3
			c0.1-0.4,0.2-0.7,0.3-1c0.1-0.3,0.3-0.6,0.5-0.8C31.3,19,31.6,19,32,19c0.1,0,0.2,0,0.3,0.1s0.2,0.1,0.3,0.2
			c0.1,0.1,0.2,0.2,0.2,0.3c0.1,0.1,0.1,0.2,0.1,0.3l0,0.2c0,0.2,0,0.4-0.1,0.6c0,0.2-0.1,0.5-0.2,0.8c-0.1,0.3-0.1,0.6-0.2,0.8
			c-0.1,0.3-0.2,0.6-0.2,0.8c-0.1,0.3-0.1,0.5-0.2,0.7c-0.1,0.2-0.1,0.4-0.1,0.5c0.3-0.5,0.5-0.9,0.8-1.4c0.3-0.4,0.6-0.8,0.9-1.2
			s0.7-0.7,1.1-1c0.4-0.3,0.8-0.5,1.2-0.7c0.3-0.1,0.6-0.2,0.9-0.3s0.5-0.1,0.7-0.1c0.3,0,0.5,0.1,0.8,0.1s0.5,0.2,0.7,0.3
			c0.2,0.1,0.4,0.2,0.5,0.4C39.8,20.7,39.8,20.9,39.8,21.1z"/>
		<linearGradient id="SVGID_3_" gradientUnits="userSpaceOnUse" x1="76.3515" y1="33.3945" x2="76.3515" y2="13.2017">
			<stop  offset="0" style="stop-color:#FFFFFF"/>
			<stop  offset="0.5" style="stop-color:#7E5FA3"/>
			<stop  offset="1" style="stop-color:#6E589F"/>
		</linearGradient>
		<path fill="url(#SVGID_3_)" d="M52,26.7c0.1,0,0.2,0,0.3,0.1s0.1,0.1,0.2,0.1c0,0.1,0.1,0.1,0.1,0.2c0,0.1,0,0.1,0,0.2
			c0,0.2-0.1,0.4-0.3,0.6c-0.2,0.2-0.4,0.4-0.8,0.6s-0.7,0.4-1.1,0.5c-0.4,0.1-0.8,0.2-1.2,0.2c-0.1,0-0.2,0-0.4-0.1
			c-0.2,0-0.4-0.1-0.7-0.2s-0.5-0.1-0.8-0.2s-0.6-0.1-0.8-0.2s-0.5-0.1-0.7-0.2c-0.2,0-0.4-0.1-0.5-0.1c-0.2,0-0.4,0-0.5,0
			s-0.3,0-0.5,0.1c-0.1,0-0.3,0.1-0.4,0.2s-0.3,0.2-0.4,0.3c-0.1,0.1-0.2,0.1-0.3,0.2c-0.1,0.1-0.2,0.1-0.3,0.1
			c-0.1,0-0.2,0.1-0.3,0.1c-0.1,0-0.3,0-0.4,0c-0.2,0-0.3-0.1-0.4-0.1c-0.1-0.1-0.2-0.2-0.2-0.3c-0.1-0.1-0.1-0.3-0.1-0.4
			c0-0.1,0-0.3,0-0.4c0.4-0.5,0.8-0.9,1.2-1.2c0.4-0.4,0.8-0.7,1.2-1c0.4-0.3,0.8-0.6,1.1-1c0.4-0.3,0.8-0.7,1.2-1
			c0.2-0.2,0.5-0.4,0.7-0.6c0.3-0.2,0.5-0.4,0.8-0.7c0.2-0.2,0.5-0.4,0.7-0.7c0.2-0.2,0.4-0.4,0.5-0.6c-0.1,0-0.3,0-0.4,0
			c-0.2,0-0.4,0-0.5,0s-0.4,0-0.5,0c-0.2,0-0.3,0-0.3,0c-0.1,0-0.2,0-0.4,0.1c-0.2,0-0.4,0.1-0.6,0.1c-0.2,0-0.4,0.1-0.6,0.1
			c-0.2,0-0.4,0-0.5,0c-0.9,0-1.5-0.2-1.9-0.4c-0.4-0.2-0.6-0.6-0.5-1c0-0.1,0-0.3,0.1-0.4c0.1-0.1,0.2-0.2,0.3-0.3
			c0.1-0.1,0.2-0.1,0.4-0.1c0.1,0,0.3,0,0.4,0c0.2,0,0.4,0,0.5,0.1c0.2,0,0.3,0.1,0.4,0.1c0.1,0,0.3,0.1,0.4,0.1c0.1,0,0.3,0,0.4,0
			c0.1,0,0.3,0,0.5,0c0.2,0,0.5,0,0.8,0c0.3,0,0.6,0,1,0c0.3,0,0.7,0,1,0c0.3,0,0.6,0,0.8,0c0.2,0,0.4,0,0.5,0c0.1,0,0.3,0,0.5,0.1
			c0.2,0,0.3,0.1,0.5,0.2s0.3,0.2,0.3,0.3s0.1,0.3,0.1,0.5l0,0.1c-0.2,0.3-0.4,0.6-0.6,0.9s-0.4,0.5-0.6,0.7
			c-0.2,0.2-0.4,0.4-0.6,0.7c-0.2,0.2-0.5,0.4-0.7,0.7c-0.3,0.3-0.6,0.6-1,0.8s-0.7,0.6-1,0.8s-0.6,0.5-0.9,0.8
			c-0.3,0.3-0.5,0.5-0.7,0.7c0.1,0,0.2,0,0.3,0c0.1,0,0.2,0,0.3,0c0.1,0,0.2,0,0.3,0c0.1,0,0.2,0,0.2,0c0.2,0,0.5,0,0.7,0.1
			c0.2,0,0.4,0.1,0.7,0.1c0.2,0,0.4,0.1,0.6,0.1c0.2,0.1,0.4,0.1,0.6,0.2c0.2,0.1,0.4,0.1,0.7,0.2s0.5,0.1,0.7,0.1
			c0.2,0,0.4,0,0.6-0.1s0.4-0.2,0.5-0.3c0.1-0.1,0.3-0.1,0.4-0.2S51.8,26.7,52,26.7z"/>
		<linearGradient id="SVGID_4_" gradientUnits="userSpaceOnUse" x1="76.3515" y1="33.3945" x2="76.3515" y2="13.2017">
			<stop  offset="0" style="stop-color:#FFFFFF"/>
			<stop  offset="0.5" style="stop-color:#7E5FA3"/>
			<stop  offset="1" style="stop-color:#6E589F"/>
		</linearGradient>
		<path fill="url(#SVGID_4_)" d="M67.1,22.7c0,0.2-0.1,0.3-0.2,0.6c-0.1,0.2-0.3,0.5-0.5,0.8c-0.2,0.3-0.5,0.6-0.8,0.9
			c-0.3,0.3-0.6,0.6-1,0.9c-0.4,0.4-0.8,0.7-1.2,1c-0.4,0.3-0.9,0.7-1.4,1c-0.5,0.3-1,0.5-1.4,0.7c-0.5,0.2-0.9,0.2-1.3,0.2
			c-0.5,0-0.9-0.1-1.2-0.3c-0.3-0.2-0.6-0.4-0.9-0.7c-0.2-0.3-0.4-0.6-0.6-0.9c-0.1-0.4-0.2-0.7-0.3-1.1c-0.1-0.4-0.1-0.8-0.1-1.2
			c0-0.4,0-0.8,0-1.1c0-0.1,0-0.3,0.1-0.6c0-0.3,0.1-0.6,0.1-0.9c0.1-0.3,0.1-0.6,0.2-0.9c0.1-0.3,0.1-0.5,0.2-0.7
			c0.1-0.3,0.4-0.6,0.8-0.9c0.4-0.3,0.8-0.4,1.2-0.4c0.4,0,0.7,0.3,0.6,0.8c0,0.2,0,0.5-0.1,0.8s-0.1,0.5-0.2,0.8
			c-0.1,0.5-0.2,0.9-0.3,1.3c-0.1,0.4-0.1,0.7-0.1,1c0,0.3,0,0.7,0,1c0,0.3,0.1,0.6,0.1,0.8c0.1,0.3,0.2,0.5,0.3,0.6
			c0.1,0.2,0.2,0.2,0.4,0.2c0.2,0,0.4,0,0.6,0c0.2,0,0.5-0.1,0.8-0.2c0.6-0.3,1.3-0.7,1.9-1.2c0.2-0.2,0.5-0.4,0.8-0.6
			c0.3-0.2,0.6-0.5,0.9-0.7c0.3-0.3,0.6-0.5,0.9-0.7c0.3-0.2,0.5-0.5,0.6-0.6c0,0,0.1-0.1,0.1-0.1s0.1-0.1,0.1-0.1
			c0.1,0,0.1-0.1,0.2-0.1c0.1,0,0.1,0,0.2,0c0.1,0,0.2,0,0.2,0.1c0,0,0.1,0.1,0.2,0.3C67.1,22.4,67.1,22.6,67.1,22.7z M61.2,14.3
			c0,0.2-0.1,0.4-0.1,0.6c-0.1,0.2-0.2,0.4-0.3,0.5c-0.3,0.3-0.7,0.5-1.2,0.5c-0.2,0-0.4,0-0.6-0.1c-0.2,0-0.4-0.1-0.5-0.2
			c-0.2-0.1-0.3-0.1-0.4-0.2c-0.1-0.1-0.1-0.2-0.1-0.3c0-0.2,0.1-0.4,0.2-0.6c0.1-0.2,0.3-0.4,0.5-0.6c0.2-0.2,0.4-0.3,0.6-0.5
			c0.2-0.1,0.4-0.2,0.6-0.2c0.2,0,0.4,0,0.6,0.1c0.2,0,0.3,0.1,0.5,0.2c0.1,0.1,0.2,0.2,0.3,0.3S61.2,14.1,61.2,14.3z"/>
		<linearGradient id="SVGID_5_" gradientUnits="userSpaceOnUse" x1="76.3515" y1="33.3945" x2="76.3515" y2="13.2017">
			<stop  offset="0" style="stop-color:#FFFFFF"/>
			<stop  offset="0.5" style="stop-color:#7E5FA3"/>
			<stop  offset="1" style="stop-color:#6E589F"/>
		</linearGradient>
		<path fill="url(#SVGID_5_)" d="M79.9,22.2c0,0.1-0.1,0.3-0.3,0.6c-0.4,0.5-0.8,0.9-1.3,1.4c-0.5,0.5-0.9,0.9-1.5,1.3
			c-0.5,0.4-1,0.8-1.6,1.1c-0.6,0.3-1.1,0.6-1.7,0.9c-0.6,0.2-1.1,0.4-1.7,0.5c-0.6,0.1-1.1,0.2-1.6,0.1c-1.2-0.1-2.1-0.4-2.7-1.1
			c-0.6-0.7-0.9-1.6-0.8-2.9c0-0.5,0.1-1,0.2-1.5s0.3-1,0.5-1.4s0.5-0.9,0.8-1.4c0.3-0.5,0.7-0.9,1.1-1.3c0.2-0.2,0.3-0.3,0.6-0.4
			c0.2-0.1,0.4-0.3,0.7-0.4s0.5-0.2,0.7-0.2c0.3-0.1,0.5-0.1,0.7-0.1c0.4,0,0.7,0.1,0.9,0.2s0.5,0.3,0.6,0.6
			c0.2,0.2,0.3,0.5,0.3,0.8C74,19.4,74,19.7,74,20c0,0.6-0.3,1.2-0.8,1.8c-0.5,0.6-1.1,1.2-2,1.8c-0.3,0.2-0.6,0.4-0.9,0.6
			c-0.4,0.2-0.8,0.5-1.2,0.8c0,0.2,0,0.3,0.1,0.5s0.2,0.3,0.3,0.4s0.3,0.2,0.5,0.3c0.2,0.1,0.4,0.1,0.7,0.1c0.3,0,0.7,0,1.1-0.1
			c0.4-0.1,0.8-0.2,1.1-0.3c0.4-0.1,0.7-0.3,1.1-0.4c0.4-0.2,0.7-0.3,1-0.5c0.5-0.3,1-0.7,1.5-1c0.5-0.4,1-0.8,1.4-1.2l0.6-0.5
			c0.4-0.3,0.7-0.4,1-0.4c0.1,0,0.2,0.1,0.3,0.1C79.9,22.1,79.9,22.2,79.9,22.2z M72,20c0-0.1,0-0.3,0-0.4s-0.1-0.2-0.1-0.3
			c-0.2,0-0.5,0.1-0.8,0.2c-0.3,0.2-0.5,0.4-0.8,0.8c-0.3,0.3-0.5,0.8-0.7,1.2c-0.2,0.5-0.4,1-0.5,1.6c0.3-0.2,0.7-0.4,1-0.7
			s0.6-0.5,0.9-0.7c0.3-0.3,0.5-0.5,0.7-0.8C71.9,20.7,72,20.4,72,20z"/>
		<linearGradient id="SVGID_6_" gradientUnits="userSpaceOnUse" x1="76.3515" y1="33.3945" x2="76.3515" y2="13.2017">
			<stop  offset="0" style="stop-color:#FFFFFF"/>
			<stop  offset="0.5" style="stop-color:#7E5FA3"/>
			<stop  offset="1" style="stop-color:#6E589F"/>
		</linearGradient>
		<path fill="url(#SVGID_6_)" d="M97.9,22.7c0,0.1,0,0.2-0.1,0.3c-0.1,0.1-0.2,0.3-0.3,0.4c-0.1,0.1-0.2,0.2-0.3,0.3
			c-0.1,0.1-0.2,0.3-0.4,0.4s-0.3,0.3-0.4,0.4c-0.1,0.1-0.2,0.2-0.4,0.3c-0.4,0.4-0.8,0.7-1.3,1c-0.5,0.3-0.9,0.6-1.4,0.9
			c-0.5,0.3-1,0.4-1.5,0.6c-0.5,0.1-1.1,0.2-1.6,0.2c-0.5,0-0.9-0.1-1.2-0.3c-0.3-0.2-0.6-0.5-0.8-0.8c-0.1-0.1-0.1-0.3-0.2-0.6
			c-0.1-0.3-0.1-0.5-0.2-0.8c0-0.3-0.1-0.6-0.1-0.9c0-0.3,0-0.5,0-0.7c0-0.1,0-0.3,0-0.4s0-0.3,0-0.4s0-0.3-0.1-0.4
			c0-0.1-0.1-0.1-0.1-0.2c-0.1,0-0.1,0-0.2,0c-0.1,0.1-0.3,0.2-0.6,0.4c-0.3,0.2-0.6,0.5-1,0.9c-0.4,0.4-0.8,0.8-1.2,1.2
			c-0.4,0.5-0.8,0.9-1.2,1.5c-0.1,0.2-0.3,0.4-0.5,0.6c-0.2,0.2-0.3,0.5-0.5,0.7c-0.2,0.2-0.3,0.5-0.4,0.7c-0.1,0.2-0.3,0.4-0.4,0.6
			c-0.1,0.1-0.2,0.2-0.3,0.3s-0.2,0.1-0.3,0.2s-0.2,0.1-0.3,0.1s-0.1,0-0.2,0c-0.2,0-0.3,0-0.4-0.1s-0.2-0.2-0.3-0.3
			c-0.1-0.1-0.2-0.2-0.2-0.4c-0.1-0.1-0.1-0.3-0.1-0.4c0-0.1,0-0.2,0.1-0.4c0-0.2,0.1-0.4,0.1-0.6c0-0.2,0.1-0.5,0.2-0.7
			c0.1-0.3,0.1-0.5,0.1-0.7c0.1-0.4,0.2-0.9,0.2-1.4s0.2-1,0.2-1.5c0.1-0.5,0.2-1,0.2-1.5c0.1-0.5,0.1-0.9,0.2-1.3
			c0-0.1,0-0.3,0.1-0.5s0.1-0.4,0.1-0.7s0.1-0.5,0.1-0.8c0-0.3,0.1-0.5,0.1-0.8c0-0.3,0.1-0.5,0.1-0.7s0-0.4,0.1-0.6
			c0-0.2,0-0.4,0.1-0.5s0.1-0.3,0.1-0.5s0.1-0.3,0.2-0.5s0.2-0.3,0.3-0.5c0-0.1,0.1-0.1,0.2-0.2c0.1-0.1,0.2-0.2,0.3-0.2
			s0.2-0.1,0.4-0.2s0.3-0.1,0.4-0.1c0.3,0,0.5,0.1,0.7,0.3c0.2,0.2,0.3,0.5,0.3,0.8c0,0.1,0,0.2-0.1,0.4c0,0.2-0.1,0.3-0.1,0.5
			s-0.1,0.3-0.1,0.4s0,0.2,0,0.2c0,0.1-0.1,0.3-0.1,0.5c0,0.2-0.1,0.5-0.2,0.8c-0.1,0.3-0.1,0.7-0.2,1.1c-0.1,0.4-0.1,0.8-0.2,1.2
			s-0.1,0.8-0.2,1.1c-0.1,0.4-0.1,0.7-0.2,1c-0.1,0.3-0.1,0.5-0.1,0.7c0,0.2,0,0.3-0.1,0.3c0,0.1-0.1,0.3-0.1,0.6s-0.1,0.5-0.1,0.7
			c-0.1,0.3-0.1,0.5-0.1,0.7c0,0.2-0.1,0.4-0.1,0.5c0.1-0.1,0.2-0.2,0.3-0.3c0.1-0.1,0.2-0.3,0.3-0.4c0.1-0.1,0.2-0.3,0.3-0.4
			c0.1-0.1,0.2-0.2,0.2-0.3c0.1-0.2,0.3-0.3,0.4-0.5c0.2-0.2,0.3-0.4,0.5-0.6c0.2-0.2,0.4-0.4,0.5-0.6c0.2-0.2,0.4-0.4,0.5-0.5
			c0.2-0.2,0.5-0.4,0.8-0.6c0.3-0.2,0.6-0.4,0.9-0.6c0.3-0.2,0.6-0.3,0.9-0.4c0.3-0.1,0.6-0.1,0.9-0.1c0.1,0,0.2,0,0.3,0.1
			c0.1,0,0.2,0.1,0.3,0.2c0.1,0.1,0.2,0.2,0.3,0.2s0.2,0.2,0.2,0.3c0.1,0.2,0.1,0.5,0.2,0.9c0,0.3,0.1,0.7,0.1,1.1s0.1,0.7,0.1,1.1
			c0,0.4,0.1,0.7,0.1,1c0.1,0.3,0.1,0.5,0.2,0.7s0.2,0.3,0.3,0.3c0.2,0,0.4,0,0.5,0s0.3,0,0.5,0c0.2,0,0.3-0.1,0.5-0.1
			c0.2,0,0.3-0.1,0.5-0.2c0.4-0.2,0.7-0.3,1-0.5c0.3-0.1,0.5-0.3,0.8-0.5c0.3-0.2,0.5-0.3,0.8-0.5c0.3-0.2,0.6-0.4,0.9-0.7
			c0.4-0.3,0.7-0.5,0.9-0.7s0.5-0.3,0.6-0.3c0.1,0,0.1,0,0.2,0.1c0,0,0.1,0.1,0.1,0.1s0,0.1,0,0.2S97.9,22.7,97.9,22.7z"/>
		<linearGradient id="SVGID_7_" gradientUnits="userSpaceOnUse" x1="76.3515" y1="33.3945" x2="76.3515" y2="13.2017">
			<stop  offset="0" style="stop-color:#FFFFFF"/>
			<stop  offset="0.5" style="stop-color:#7E5FA3"/>
			<stop  offset="1" style="stop-color:#6E589F"/>
		</linearGradient>
		<path fill="url(#SVGID_7_)" d="M116,21.3c0,0.4-0.2,0.8-0.5,1.2c-0.3,0.4-0.7,0.9-1.1,1.3c-0.5,0.4-1,0.8-1.5,1.2
			c-0.6,0.4-1.1,0.7-1.7,1c-0.6,0.3-1.1,0.5-1.6,0.7s-0.9,0.2-1.2,0.2c-0.4,0-0.8-0.1-1.1-0.3s-0.5-0.4-0.7-0.8
			c-0.2-0.3-0.3-0.7-0.4-1S106,24,106,23.6c-0.1,0.2-0.3,0.5-0.4,0.7c-0.2,0.3-0.4,0.5-0.6,0.8c-0.2,0.3-0.4,0.5-0.6,0.7
			s-0.4,0.4-0.6,0.6c-0.3,0.2-0.5,0.5-0.8,0.7s-0.6,0.4-1,0.5c-0.3,0.2-0.7,0.3-1.1,0.4c-0.4,0.1-0.8,0.1-1.1,0.1
			c-0.3,0-0.6-0.1-0.9-0.2c-0.2-0.1-0.5-0.3-0.6-0.6c-0.2-0.2-0.3-0.5-0.3-0.8s-0.1-0.6-0.1-0.8c0-0.2,0-0.5,0.1-0.8
			c0.1-0.3,0.1-0.5,0.2-0.8c0.1-0.3,0.1-0.5,0.2-0.8c0.1-0.3,0.1-0.5,0.1-0.8c0-0.2,0-0.4,0.1-0.6c0-0.2,0-0.4,0.1-0.7
			s0.1-0.4,0.1-0.7c0-0.2,0.1-0.4,0.1-0.6c0-0.1,0.1-0.3,0.1-0.4c0.1-0.1,0.1-0.2,0.2-0.3c0.1-0.1,0.2-0.2,0.4-0.2
			c0.1,0,0.3-0.1,0.5-0.1c0.4,0,0.7,0.2,0.9,0.4s0.2,0.6,0.2,1.1c0,0.2,0,0.3-0.1,0.5c0,0.2-0.1,0.4-0.1,0.6c0,0.2-0.1,0.4-0.2,0.6
			c-0.1,0.2-0.1,0.4-0.2,0.6c-0.1,0.4-0.3,0.9-0.4,1.3s-0.2,0.8-0.2,1.1c0,0.2,0,0.4,0.1,0.5s0.2,0.2,0.3,0.2c0.3,0,0.6-0.1,0.9-0.2
			c0.3-0.2,0.6-0.4,1-0.6c0.3-0.2,0.6-0.5,0.9-0.8c0.3-0.3,0.5-0.6,0.7-0.8c0.2-0.2,0.4-0.5,0.6-0.8c0.2-0.3,0.4-0.7,0.6-1.1
			c0.2-0.4,0.4-0.7,0.6-1.1s0.3-0.7,0.5-1c0.2-0.4,0.4-0.7,0.7-0.9c0.2-0.2,0.5-0.3,0.7-0.3c0.3,0,0.4,0.1,0.6,0.2
			c0.1,0.1,0.2,0.3,0.2,0.6c0,0.1,0,0.3-0.1,0.5c0,0.2-0.1,0.4-0.1,0.7c0,0.2-0.1,0.5-0.1,0.7c0,0.2-0.1,0.4-0.1,0.5
			c0,0.1,0,0.2,0,0.4c0,0.2,0,0.3,0,0.5s0,0.3,0,0.5c0,0.2,0,0.3,0,0.4c0,0.1,0.1,0.3,0.1,0.4c0.1,0.2,0.1,0.4,0.2,0.5
			s0.2,0.3,0.3,0.4s0.2,0.2,0.3,0.2c0.4,0,0.7,0,1.1-0.2c0.4-0.2,0.8-0.4,1.3-0.6c0.4-0.3,0.9-0.6,1.3-0.9c0.4-0.3,0.9-0.7,1.3-1
			c0.2-0.1,0.3-0.3,0.5-0.4c0.2-0.1,0.3-0.3,0.5-0.4c0.2-0.1,0.3-0.2,0.4-0.3c0.1-0.1,0.2-0.1,0.3-0.1c0.1,0,0.2,0,0.3,0.1
			C115.9,21.2,116,21.3,116,21.3z"/>
		<linearGradient id="SVGID_8_" gradientUnits="userSpaceOnUse" x1="76.3515" y1="33.3945" x2="76.3515" y2="13.2017">
			<stop  offset="0" style="stop-color:#FFFFFF"/>
			<stop  offset="0.5" style="stop-color:#7E5FA3"/>
			<stop  offset="1" style="stop-color:#6E589F"/>
		</linearGradient>
		<path fill="url(#SVGID_8_)" d="M132.9,22.1c0,0.1,0,0.3-0.1,0.4c-0.1,0.1-0.1,0.3-0.2,0.4c-0.1,0.1-0.2,0.3-0.3,0.4
			c-0.1,0.1-0.2,0.2-0.3,0.3c-0.2,0.3-0.5,0.5-0.8,0.8c-0.3,0.3-0.6,0.6-0.9,0.8c-0.3,0.3-0.6,0.5-0.9,0.8s-0.6,0.5-1,0.6
			c-0.2,0.1-0.5,0.3-0.7,0.4c-0.2,0.1-0.5,0.2-0.7,0.3c-0.2,0.1-0.5,0.2-0.8,0.2c-0.3,0-0.6,0.1-0.9,0c-0.5,0-0.9-0.1-1.3-0.4
			c-0.3-0.2-0.6-0.5-0.8-0.8s-0.3-0.7-0.4-1.2c-0.1-0.4-0.2-0.9-0.2-1.3c-0.1-0.6-0.1-1.1-0.2-1.5c-0.1-0.4-0.2-0.6-0.4-0.6
			c-0.1,0-0.3,0-0.4,0.1c-0.1,0.1-0.3,0.2-0.5,0.4c-0.2,0.2-0.5,0.5-0.8,0.9s-0.7,0.9-1.2,1.5c-0.2,0.2-0.4,0.5-0.6,0.7
			s-0.5,0.5-0.8,0.8c-0.3,0.2-0.5,0.4-0.8,0.6c-0.3,0.2-0.5,0.3-0.7,0.4c-0.9-0.2-1.2-1-1.2-2.4c0-0.4,0.1-0.9,0.2-1.6
			c0.1-0.3,0.1-0.6,0.2-1c0.1-0.3,0.2-0.7,0.2-1s0.2-0.7,0.3-1c0.1-0.3,0.3-0.6,0.4-0.9c0.1-0.2,0.2-0.3,0.3-0.4s0.2-0.1,0.3-0.2
			c0.1,0,0.2-0.1,0.3-0.1c0.1,0,0.2,0,0.3,0c0.1,0,0.2,0,0.3,0.1c0.1,0.1,0.2,0.1,0.2,0.2s0.1,0.2,0.2,0.3c0,0.1,0.1,0.3,0,0.5
			c0,0.2,0,0.3-0.1,0.4s-0.1,0.3-0.1,0.4s-0.1,0.3-0.2,0.5s-0.1,0.3-0.2,0.6c0,0.1-0.1,0.3-0.2,0.5c-0.1,0.2-0.2,0.4-0.2,0.7
			s-0.1,0.5-0.2,0.7s-0.1,0.4-0.1,0.6c0.1-0.1,0.3-0.3,0.5-0.5c0.2-0.2,0.4-0.4,0.5-0.6c0.2-0.2,0.4-0.5,0.6-0.7
			c0.2-0.2,0.4-0.5,0.6-0.7c0.3-0.3,0.5-0.5,0.7-0.8c0.2-0.2,0.5-0.5,0.8-0.6s0.6-0.3,0.9-0.4s0.6-0.1,1-0.1c0.4,0,0.8,0.1,1.1,0.3
			c0.3,0.2,0.5,0.4,0.6,0.8c0.2,0.3,0.3,0.7,0.3,1.1c0.1,0.4,0.1,0.9,0.1,1.4c0,0.3,0,0.5,0.1,0.8c0,0.3,0.1,0.5,0.2,0.7
			c0.1,0.2,0.2,0.4,0.3,0.6s0.3,0.2,0.5,0.2c0.3,0,0.7,0,1-0.2c0.4-0.1,0.8-0.3,1.2-0.6c0.4-0.3,0.9-0.6,1.3-0.9
			c0.5-0.4,0.9-0.7,1.4-1.1c0.1-0.1,0.3-0.3,0.4-0.4c0.1-0.1,0.3-0.2,0.4-0.3c0.1-0.1,0.2-0.2,0.4-0.2s0.2-0.1,0.3-0.1
			c0,0,0.1,0,0.1,0s0.1,0,0.2,0.1s0.1,0.1,0.1,0.1C132.9,22,132.9,22,132.9,22.1z"/>
		<linearGradient id="SVGID_9_" gradientUnits="userSpaceOnUse" x1="76.3515" y1="33.3945" x2="76.3515" y2="13.2017">
			<stop  offset="0" style="stop-color:#FFFFFF"/>
			<stop  offset="0.5" style="stop-color:#7E5FA3"/>
			<stop  offset="1" style="stop-color:#6E589F"/>
		</linearGradient>
		<path fill="url(#SVGID_9_)" d="M140.4,21.3c-0.1,0.4-0.1,0.9-0.2,1.4c-0.1,0.5-0.1,1.1-0.2,1.7c0,0.2-0.1,0.5-0.1,0.8
			s-0.1,0.6-0.2,0.9s-0.1,0.6-0.2,0.9c-0.1,0.3-0.1,0.6-0.2,0.8c-0.1,0.4-0.2,0.8-0.3,1.2c-0.1,0.4-0.3,0.8-0.4,1.2
			s-0.4,0.8-0.6,1.2c-0.2,0.4-0.5,0.7-0.8,1c-0.3,0.3-0.7,0.5-1.1,0.6c-0.4,0.1-0.9,0.2-1.4,0.2c-0.3,0-0.6-0.1-1-0.2
			c-0.3-0.1-0.6-0.2-0.9-0.3s-0.6-0.3-0.9-0.5c-0.3-0.2-0.5-0.4-0.8-0.6c-0.6-0.5-1-1-1.2-1.4c-0.1-0.1-0.1-0.3-0.2-0.4
			c0-0.1-0.1-0.2,0-0.3c0-0.1,0.1-0.3,0.2-0.4c0.1-0.1,0.2-0.1,0.4-0.1c0.1,0,0.1,0,0.2,0.1c0.1,0.1,0.2,0.1,0.3,0.2
			c0.1,0.1,0.2,0.1,0.2,0.2c0.1,0.1,0.1,0.1,0.1,0.1c0.6,0.6,1.2,1,1.8,1.3s1.3,0.5,1.9,0.5c0.4,0,0.7-0.1,1-0.3s0.5-0.5,0.7-0.9
			c0.2-0.4,0.3-0.8,0.5-1.2c0.1-0.4,0.2-0.8,0.3-1.2c0.1-0.4,0.2-0.8,0.2-1.3s0.1-0.9,0.2-1.4c-0.3,0.3-0.7,0.6-1.1,0.8
			c-0.4,0.3-0.8,0.5-1.2,0.7c-0.4,0.2-0.8,0.4-1.3,0.5c-0.4,0.1-0.9,0.2-1.3,0.1c-0.2,0-0.4-0.1-0.6-0.2c-0.2-0.1-0.4-0.2-0.5-0.4
			c-0.1-0.2-0.2-0.4-0.3-0.6s-0.1-0.5-0.1-0.8c0-0.4,0.1-0.8,0.3-1.2s0.4-0.8,0.6-1.3c0.2-0.4,0.5-0.8,0.8-1.2
			c0.3-0.4,0.6-0.7,0.8-1c0.3-0.3,0.6-0.6,1-0.9c0.4-0.3,0.8-0.6,1.2-0.9c0.4-0.3,0.9-0.5,1.3-0.6c0.5-0.2,0.9-0.2,1.3-0.2
			c0.2,0,0.5,0.1,0.7,0.1s0.5,0.2,0.7,0.3c0.2,0.1,0.4,0.3,0.5,0.5c0.1,0.2,0.2,0.4,0.2,0.7c0,0.1,0,0.2,0,0.3c0,0.1,0,0.3-0.1,0.4
			s0,0.3-0.1,0.4C140.4,21.1,140.4,21.2,140.4,21.3L140.4,21.3z M138,22.9c0-0.2,0.1-0.4,0.1-0.7c0-0.3,0.1-0.6,0.2-1
			c0-0.2,0-0.4,0.1-0.5s0-0.2,0-0.3c0-0.1,0-0.2,0-0.3c0-0.1-0.1-0.1-0.1-0.2c-0.1,0-0.2-0.1-0.4-0.1c-0.3,0.2-0.6,0.4-1,0.7
			s-0.6,0.5-0.9,0.8c-0.3,0.3-0.6,0.6-0.8,1c-0.3,0.3-0.5,0.7-0.7,1c-0.2,0.3-0.4,0.7-0.5,1c-0.1,0.3-0.2,0.6-0.2,0.9
			c0,0.1,0,0.2,0.1,0.2s0.2,0.1,0.3,0.1c0.2,0,0.4,0,0.7-0.1c0.3-0.1,0.5-0.2,0.8-0.3c0.3-0.1,0.5-0.3,0.8-0.4
			c0.2-0.1,0.5-0.3,0.6-0.4c0.1,0,0.2-0.1,0.3-0.2c0.1-0.1,0.2-0.2,0.3-0.3s0.2-0.3,0.3-0.4C137.9,23.2,138,23,138,22.9z"/>
	</g>
</g>
<use xlink:href="#Palm"  width="135.8" height="169.6" x="-67.9" y="-84.8" transform="matrix(0.2064 0 0 -0.2064 28.2312 19.1846)" overflow="visible"/>
<use xlink:href="#Butterfly_2"  width="79.6" height="72.1" x="-39.8" y="-36.2" transform="matrix(8.333625e-002 8.333625e-002 6.746927e-002 -6.746927e-002 8.9766 7.7)" overflow="visible"/>
<use xlink:href="#Butterfly_2"  width="79.6" height="72.1" x="-39.8" y="-36.2" transform="matrix(3.349468e-002 -7.708391e-002 -7.708391e-002 -3.349468e-002 129.1693 9.6015)" overflow="visible"/>
</svg>
